<?xml version="1.0" encoding="UTF-8" standalone="no"?>
<!-- Generator: Adobe Illustrator 20.1.0, SVG Export Plug-In . SVG Version: 6.00 Build 0)  -->

<svg
   version="1.1"
   id="Layer_1"
   x="0px"
   y="0px"
   width="351px"
   height="365px"
   viewBox="0 0 351 365"
   style="enable-background:new 0 0 351 365;"
   xml:space="preserve"
   sodipodi:docname="grafana_icon.svg"
   inkscape:version="1.1.2 (0a00cf5339, 2022-02-04)"
   xmlns:inkscape="http://www.inkscape.org/namespaces/inkscape"
   xmlns:sodipodi="http://sodipodi.sourceforge.net/DTD/sodipodi-0.dtd"
   xmlns="http://www.w3.org/2000/svg"
   xmlns:svg="http://www.w3.org/2000/svg"><defs
   id="defs1472" /><sodipodi:namedview
   id="namedview1470"
   pagecolor="#ffffff"
   bordercolor="#666666"
   borderopacity="1.0"
   inkscape:pageshadow="2"
   inkscape:pageopacity="0.0"
   inkscape:pagecheckerboard="0"
   showgrid="false"
   inkscape:zoom="2.3917808"
   inkscape:cx="174.76518"
   inkscape:cy="183.7543"
   inkscape:window-width="1513"
   inkscape:window-height="1410"
   inkscape:window-x="669"
   inkscape:window-y="0"
   inkscape:window-maximized="1"
   inkscape:current-layer="Layer_1" />
<style
   type="text/css"
   id="style1459">
	.st0{fill:url(#SVGID_1_);}
</style>
<g
   id="Layer_1_1_">
</g>
<linearGradient
   id="SVGID_1_"
   gradientUnits="userSpaceOnUse"
   x1="175.5"
   y1="30%"
   x2="175.5"
   y2="99%">
	<stop
   offset="0"
   style="stop-color:#F05A28"
   id="stop1462" />
	<stop
   offset="1"
   style="stop-color:#FBCA0A"
   id="stop1464" />
</linearGradient>

<path
   fill="#ae50bd"
   opacity="1"
   stroke="none"
   d="m 217.38606,242.41615 c -4.61053,9.64586 -9.22105,19.29175 -14.4958,29.24708 -22.79542,0.33675 -44.92661,0.36407 -67.0578,0.39139 -4.85181,-9.93449 -9.70363,-19.86903 -14.11354,-30.22497 13.83115,-0.49741 27.22041,-0.57339 40.60969,-0.64936 2.24791,4.31602 4.49586,8.63203 7.19258,13.80973 2.37646,-4.82945 4.45171,-9.04679 7.36408,-13.50738 11.28753,-0.21786 21.7391,-0.26627 32.18757,-0.11755 2.77597,0.0394 5.5424,0.6842 8.31322,1.05106 z"
   id="path360"
   style="stroke-width:1.12631" /><path
   fill="#d56bb8"
   opacity="1"
   stroke="none"
   d="m 288.94272,189.68286 c -0.0754,-15.78255 -0.15093,-31.56512 0.43269,-47.84836 12.9914,-0.50139 25.32376,-0.50207 37.65617,-0.50277 0.0844,15.7787 0.16893,31.55743 -0.39605,47.84272 -12.99724,0.5072 -25.345,0.5078 -37.69281,0.50841 z"
   id="path374"
   style="stroke-width:1.12631" /><path
   fill="#d56bb5"
   opacity="1"
   stroke="none"
   d="m 90.169199,177.96457 c -6.856438,-13.78491 -13.712846,-27.56979 -20.158738,-41.99731 11.220722,-0.83553 22.032713,-0.96873 32.839659,-1.26756 2.39585,-0.0663 4.77388,-0.71719 7.16008,-1.09889 4.92294,10.05517 9.84082,20.11256 14.77127,30.16439 1.95376,3.98317 3.93539,7.95396 5.46392,12.32045 -11.30303,0.39834 -22.16701,0.32253 -33.027203,0.48109 -2.356637,0.0344 -4.699684,0.90981 -7.048988,1.39783 z"
   id="path378"
   style="stroke-width:1.12631" /><path
   fill="#d56bb8"
   opacity="1"
   stroke="none"
   d="m 264.7122,145.69107 c -5.36298,11.12985 -10.72595,22.2597 -16.79965,33.74194 -11.53626,0.35578 -22.36257,0.42808 -33.18667,0.31224 -2.58333,-0.0277 -5.15921,-0.68321 -7.73853,-1.05001 5.46552,-11.61199 10.93101,-23.22399 17.28521,-35.02966 11.82902,-0.17203 22.77217,-0.26859 33.70737,-0.0317 2.25934,0.049 4.48896,1.33909 6.73227,2.05719 z"
   id="path384"
   style="stroke-width:1.12631" /><path
   fill="#de4a9e"
   opacity="1"
   stroke="none"
   d="m 243.89787,102.8059 c 2.72625,-5.964691 5.45255,-11.929403 8.86268,-18.190016 3.90414,0.0345 7.12317,0.637741 10.34493,0.651023 21.25924,0.08756 42.51905,0.04823 63.77869,0.05021 0.0855,5.886454 0.17094,11.77289 -0.37087,18.165953 -12.92336,0.50183 -25.21935,0.49705 -37.51539,0.49225 -0.1367,-1.25925 -0.27339,-2.51852 -0.49841,-4.591823 -1.21951,1.656093 -2.07654,2.819953 -3.6326,4.296353 -11.92853,0.31099 -23.15871,0.37163 -34.38691,0.2545 -2.19811,-0.023 -4.38829,-0.73452 -6.58212,-1.12849 z"
   id="path390"
   style="stroke-width:1.12631" /><path
   fill="#df3c96"
   opacity="1"
   stroke="none"
   d="m 326.96797,84.808572 c -21.34344,0.506565 -42.60325,0.545885 -63.8625,0.458335 -3.22175,-0.01329 -6.44078,-0.616559 -10.11015,-0.99709 2.27355,-5.733936 4.9962,-11.417718 8.55179,-17.36538 22.33413,-0.263462 43.83527,-0.263044 65.33644,-0.262627 0.056,5.886062 0.11212,11.772124 0.0844,18.166762 z"
   id="path396"
   style="stroke-width:1.12631" /><path
   fill="#a24dbe"
   opacity="1"
   stroke="none"
   d="m 135.94321,272.41464 c 22.02044,-0.38734 44.15163,-0.41466 66.74248,-0.39971 -2.47205,6.03322 -5.40373,12.02416 -9.04725,18.36822 -16.68827,0.35036 -32.66468,0.3476 -48.6411,0.34485 -2.98111,-5.98443 -5.96226,-11.96891 -9.05413,-18.31336 z"
   id="path402"
   style="stroke-width:1.12631" /><path
   fill="#e02c8f"
   opacity="1"
   stroke="none"
   d="m 326.96666,66.133806 c -21.58428,0.507587 -43.08542,0.507169 -65.12467,0.507949 2.10782,-5.624028 4.75373,-11.249243 8.1133,-17.228524 19.45201,-0.353449 38.19041,-0.352812 56.92877,-0.352175 0.0552,5.521582 0.1105,11.043164 0.0826,17.07275 z"
   id="path412"
   style="stroke-width:1.12631" /><path
   fill="#bd51b4"
   opacity="1"
   stroke="none"
   d="m 217.70844,242.18991 c -3.0932,-0.14062 -5.85964,-0.78532 -8.63561,-0.82482 -10.44846,-0.14872 -20.90004,-0.1003 -31.91489,-0.15388 3.50907,-8.62714 7.58261,-17.22614 12.44287,-26.03755 14.04405,0.15779 27.30144,0.52801 40.55884,0.89824 -4.04297,8.63062 -8.08589,17.26121 -12.45121,26.11801 z"
   id="path414"
   style="stroke-width:1.12631" /><path
   fill="#da5ca8"
   opacity="1"
   stroke="none"
   d="m 109.98772,133.19206 c -2.36374,0.79045 -4.74175,1.44139 -7.1376,1.50764 -10.806946,0.29883 -21.618937,0.43203 -32.837892,0.85406 -4.486718,-7.92008 -8.564668,-16.06931 -12.27203,-24.63648 13.803373,-0.75492 27.236113,-1.0919 40.668893,-1.42887 3.852039,7.76497 7.704089,15.52994 11.578629,23.70365 z"
   id="path416"
   style="stroke-width:1.12631" /><path
   fill="#bd51b4"
   opacity="1"
   stroke="none"
   d="m 162.23565,240.78089 c -13.29632,0.47537 -26.68558,0.55135 -40.65168,0.65713 -4.61523,-8.17311 -8.65361,-16.37603 -12.17169,-24.98579 11.48848,-0.40695 22.45763,-0.33324 33.42392,-0.4692 2.20118,-0.0273 4.39142,-0.85184 6.5867,-1.30883 4.23992,8.56911 8.47986,17.1382 12.81275,26.10669 z"
   id="path420"
   style="stroke-width:1.12631" /><path
   fill="#cd66ba"
   opacity="1"
   stroke="none"
   d="m 90.215433,178.35535 c 2.30307,-0.8788 4.646117,-1.75419 7.002754,-1.78861 10.860193,-0.15856 21.724153,-0.0827 33.135793,-0.10074 4.29665,7.43188 8.04428,14.87348 11.34704,22.74691 -13.83063,0.76745 -27.21638,1.10311 -40.60214,1.43877 -3.6124,-7.30186 -7.224801,-14.60372 -10.883447,-22.29636 z"
   id="path428"
   style="stroke-width:1.12631" /><path
   fill="#b450bb"
   opacity="1"
   stroke="none"
   d="m 327.07034,234.71832 c 0.0795,8.45205 0.15903,16.90408 -0.41454,25.86276 -13.00947,0.50489 -25.36585,0.50315 -37.72223,0.50137 -0.0777,-8.45178 -0.15545,-16.90357 0.43106,-25.85783 13.01135,-0.50375 25.35855,-0.50503 37.70571,-0.5063 z"
   id="path432"
   style="stroke-width:1.12631" /><path
   fill="#de1486"
   opacity="1"
   stroke="none"
   d="m 55.617952,19.917906 c 3.08526,6.508532 6.170509,13.017053 8.736053,19.935075 -14.141862,0.757733 -27.764016,1.105965 -41.386168,1.454196 -3.251743,-5.980225 -6.503494,-11.960472 -9.692899,-18.464258 0.146645,-0.827232 0.05053,-1.083772 -0.22601,-1.293159 0,0 -0.0054,0.02329 0.178183,-0.367984 0.768532,-0.801525 1.354918,-1.571408 1.938071,-1.5692 13.484467,0.05109 26.96859,0.185964 40.45277,0.30533 z"
   id="path454"
   style="stroke-width:1.12631" /><path
   fill="#da61ac"
   opacity="1"
   stroke="none"
   d="m 265.0244,145.45305 c -2.55551,-0.48007 -4.78513,-1.7702 -7.04447,-1.81917 -10.9352,-0.23689 -21.87835,-0.14033 -33.37518,-0.18587 2.60058,-6.71095 5.75766,-13.39799 9.64339,-20.4306 11.99341,-0.34833 23.25913,-0.42443 34.52211,-0.28997 2.17704,0.026 4.34327,0.87536 6.51445,1.34492 -3.31603,7.04755 -6.63205,14.09513 -10.2603,21.38069 z"
   id="path462"
   style="stroke-width:1.12631" /><path
   fill="#cd66ba"
   opacity="1"
   stroke="none"
   d="m 206.66075,178.92485 c 2.90592,0.13719 5.4818,0.79276 8.06513,0.8204 10.8241,0.11584 21.65041,0.0435 32.99727,0.0391 -2.73391,6.74785 -5.98913,13.49676 -10.01685,20.56071 -11.52627,0.31699 -22.28404,0.46816 -33.03062,0.20536 -2.38695,-0.0583 -4.7345,-1.57624 -7.10017,-2.42211 2.91955,-6.32459 5.83909,-12.6492 9.08524,-19.20343 z"
   id="path466"
   style="stroke-width:1.12631" /><path
   fill="#c052b4"
   opacity="1"
   stroke="none"
   d="m 327.18176,234.21374 c -12.45858,0.50585 -24.80578,0.50713 -37.6959,0.50677 -0.6258,-7.35126 -0.70865,-14.70088 -0.12246,-22.55581 13.0118,-0.50472 25.3546,-0.50411 37.69739,-0.50351 0.0775,7.34933 0.15491,14.69865 0.12097,22.55255 z"
   id="path468"
   style="stroke-width:1.12631" /><path
   fill="#a74fbf"
   opacity="1"
   stroke="none"
   d="m 288.81089,261.58691 c 12.47906,-0.50268 24.83544,-0.50094 37.73377,-0.50088 0.61311,7.35307 0.68432,14.70778 0.106,22.5682 -13.00471,0.50576 -25.35984,0.50583 -37.71497,0.50589 -0.0824,-7.35627 -0.16498,-14.71251 -0.12477,-22.57321 z"
   id="path470"
   style="stroke-width:1.12631" /><path
   fill="#ca60b8"
   opacity="1"
   stroke="none"
   d="m 327.17012,211.15492 c -12.45213,0.50567 -24.79492,0.50506 -37.68039,0.50796 -0.62817,-6.98941 -0.71369,-13.98234 -0.67313,-21.47764 12.47392,-0.50299 24.82168,-0.50359 37.71014,-0.50513 0.61132,6.9889 0.68201,13.97873 0.64338,21.47481 z"
   id="path482"
   style="stroke-width:1.12631" /><path
   fill="#e11b89"
   opacity="1"
   stroke="none"
   d="m 326.96586,48.555534 c -18.82014,0.504885 -37.55854,0.504248 -56.81988,0.502182 2.04175,-5.25745 4.60647,-10.513472 7.81335,-16.017751 3.29578,0.04559 5.94768,0.575691 8.60333,0.593368 13.44195,0.08954 26.88489,0.04581 40.32747,0.04878 0.0525,4.789293 0.10496,9.578586 0.0758,14.873411 z"
   id="path484"
   style="stroke-width:1.12631" /><path
   fill="#db58a6"
   opacity="1"
   stroke="none"
   d="m 275.61128,123.83311 c -2.49776,-0.23031 -4.66399,-1.07969 -6.84103,-1.10567 -11.26298,-0.13446 -22.5287,-0.0583 -34.30878,-0.0566 2.56751,-6.49084 5.65032,-12.9807 9.08479,-19.66773 2.54544,0.19679 4.73562,0.90837 6.93373,0.93131 11.2282,0.11714 22.45837,0.0565 34.21033,0.0564 -2.5692,6.53323 -5.66085,13.06818 -9.07905,19.84239 z"
   id="path496"
   style="stroke-width:1.12631" /><path
   fill="#da61ac"
   opacity="1"
   stroke="none"
   d="m 327.14293,140.82788 c -12.44376,0.50455 -24.77611,0.50523 -37.65102,0.50094 -0.61195,-6.62339 -0.68141,-13.24179 -0.0947,-20.36248 12.97452,-0.50258 25.2928,-0.50293 37.61111,-0.50326 0.082,6.62033 0.16396,13.24064 0.13456,20.3648 z"
   id="path502"
   style="stroke-width:1.12631" /><path
   fill="#974abd"
   opacity="1"
   stroke="none"
   d="m 288.8104,284.66321 c 12.48041,-0.50315 24.83552,-0.50322 37.73241,-0.50325 0.61757,6.62109 0.69328,13.24211 0.12072,20.3708 -13.01213,0.50745 -25.376,0.5072 -37.73984,0.50697 -0.0796,-6.62384 -0.15903,-13.24764 -0.11327,-20.37452 z"
   id="path504"
   style="stroke-width:1.12631" /><path
   fill="#e0248c"
   opacity="1"
   stroke="none"
   d="m 23.041573,41.668372 c 13.548416,-0.709426 27.17057,-1.057658 41.329983,-1.411778 3.351631,5.618272 6.166011,11.242433 8.58566,17.226745 -11.464253,0.362304 -22.536232,0.249058 -33.601255,0.462576 -2.250433,0.0434 -4.47464,1.317472 -6.710943,2.024217 -3.176569,-5.980192 -6.353139,-11.960384 -9.603445,-18.30176 z"
   id="path514"
   style="stroke-width:1.12631" /><path
   fill="#8e4bbb"
   opacity="1"
   stroke="none"
   d="m 145.10635,291.09335 c 15.86741,-0.3626 31.84382,-0.35984 48.34096,-0.35914 -2.4108,5.9961 -5.34224,11.99426 -8.98902,18.34358 -10.58653,0.35008 -20.45775,0.34904 -30.32895,0.34797 -2.9713,-5.989 -5.94263,-11.97802 -9.02299,-18.33241 z"
   id="path516"
   style="stroke-width:1.12631" /><path
   fill="#de4499"
   opacity="1"
   stroke="none"
   d="m 81.429675,74.191268 c 2.963585,5.996683 5.927141,11.993365 8.381788,18.397997 -4.924271,0.409721 -9.343625,0.297167 -13.754115,0.437198 -8.98057,0.285104 -17.956389,0.706405 -26.93417,1.071588 -2.775715,-5.594297 -5.55143,-11.188574 -7.91867,-17.357653 5.526675,-0.821717 10.645206,-1.062338 15.762992,-1.31701 8.15433,-0.405789 16.308134,-0.820937 24.462175,-1.23212 z"
   id="path518"
   style="stroke-width:1.12631" /><path
   fill="#df3592"
   opacity="1"
   stroke="none"
   d="M 81.358361,73.791852 C 73.275646,74.602451 65.12183,75.017599 56.9675,75.423388 51.849714,75.67806 46.731183,75.918681 41.168847,76.339246 38.033365,71.27255 35.342011,66.032216 32.647846,60.380996 c 2.233475,-1.117609 4.457682,-2.391652 6.708115,-2.435081 11.065023,-0.213518 22.137002,-0.100305 33.705062,-0.108874 3.074348,5.18081 5.650169,10.368124 8.297338,15.954855 z"
   id="path524"
   style="stroke-width:1.12631" /><path
   fill="#dc0f84"
   opacity="1"
   stroke="none"
   d="m 326.97262,33.176008 c -13.52507,0.503116 -26.96802,0.546808 -40.40997,0.457325 -2.65565,-0.01769 -5.30755,-0.547819 -8.41323,-0.946817 -0.4446,-0.287071 -0.48819,-0.487911 -0.4224,-0.648091 5.57914,-13.587887 5.57969,-13.5858 20.94148,-13.579329 9.1621,0.0044 18.3242,7.14e-4 28.38661,7.14e-4 0,4.937794 0,9.57395 -0.0824,14.716198 z"
   id="path548"
   style="stroke-width:1.12631" /><path
   fill="#7650b6"
   opacity="1"
   stroke="none"
   d="m 327.11019,322.61524 c 0,5.98397 0,11.96793 0,18.28828 -12.70444,0 -25.10266,0 -38.4357,0 0,-5.76799 0,-11.52303 0.66424,-17.78149 13.03332,-0.50455 25.40239,-0.50568 37.77146,-0.50679 z"
   id="path550"
   style="stroke-width:1.12631" /><path
   fill="#dc4fa0"
   opacity="1"
   stroke="none"
   d="m 49.223546,94.467134 c 8.877413,-0.734266 17.853232,-1.155567 26.833814,-1.440671 4.41049,-0.140031 8.829844,-0.02747 13.787866,-0.03131 3.201965,5.227721 5.861236,10.457477 8.54218,16.090217 -13.411095,0.73997 -26.843835,1.07695 -40.741651,1.45441 -3.083978,-5.20751 -5.702915,-10.45556 -8.422209,-16.072689 z"
   id="path554"
   style="stroke-width:1.12631" /><path
   fill="#844db9"
   opacity="1"
   stroke="none"
   d="m 327.21637,322.11081 c -12.47525,0.50554 -24.84432,0.50667 -37.75842,0.50761 -0.6238,-5.52592 -0.7026,-11.0517 -0.65781,-17.07909 12.48739,-0.50137 24.85126,-0.50112 37.75797,-0.50257 0.61671,5.52209 0.69058,11.04583 0.65826,17.07405 z"
   id="path570"
   style="stroke-width:1.12631" /><path
   fill="#c65cb5"
   opacity="1"
   stroke="none"
   d="m 101.18894,201.02518 c 13.2957,-0.70913 26.68145,-1.04478 40.54437,-1.41937 2.8498,4.73492 5.22243,9.5088 7.64232,14.67556 -2.14801,0.84982 -4.33825,1.67439 -6.53943,1.70166 -10.96629,0.13596 -21.93544,0.0623 -33.44381,0.0622 -3.06463,-4.88229 -5.589,-9.76443 -8.20345,-15.02003 z"
   id="path574"
   style="stroke-width:1.12631" /><path
   fill="#c65cb5"
   opacity="1"
   stroke="none"
   d="m 196.90806,198.36739 c 2.65615,0.59793 4.96953,2.09371 7.32169,2.15122 10.5901,0.25898 21.19115,0.10999 32.31069,0.10877 -1.82349,4.93423 -4.16954,9.86796 -6.85677,14.99427 -13.4054,-0.17226 -26.46971,-0.53706 -40.02957,-0.9501 1.97926,-5.38821 4.45411,-10.72827 7.25396,-16.30394 z"
   id="path576"
   style="stroke-width:1.1099" /><path
   fill="#db58a6"
   opacity="1"
   stroke="none"
   d="m 327.11538,119.96032 c -12.42534,0.50309 -24.74361,0.50344 -37.60299,0.5011 -0.6041,-5.16057 -0.66715,-10.31848 -0.62232,-15.98123 12.40388,-0.50002 24.69987,-0.49525 37.52921,-0.49007 0.62322,5.15608 0.71315,10.31176 0.6961,15.9702 z"
   id="path586"
   style="stroke-width:1.12631" /><path
   fill="#7e4fb8"
   opacity="1"
   stroke="none"
   d="m 154.20809,309.807 c 9.79245,-0.38017 19.66367,-0.37913 30.05947,-0.37946 -4.35091,10.22491 -9.22635,20.45124 -14.68549,31.90188 -5.4426,-11.08118 -10.36889,-21.11115 -15.37398,-31.52242 z"
   id="path592"
   style="stroke-width:1.12631" /><path
   fill="#dc4fa0"
   opacity="1"
   stroke="none"
   d="m 55.446053,19.442256 c -13.312281,0.356284 -26.796404,0.221362 -40.280871,0.17032 -0.583153,-0.0022 -1.169539,0.767675 -1.929253,1.577714 -0.599063,-0.504346 -1.023272,-1.408493 -1.405758,-2.223706 14.729987,0 29.086985,0 43.615882,0.475672 z"
   id="path598"
   style="stroke-width:1.12631" /><path
   fill="#dc4fa0"
   opacity="1"
   stroke="none"
   d="m 13.040073,21.810881 c 0.285397,-0.05174 0.38151,0.204806 0.220663,0.63572 -0.07653,0.127243 -0.229516,-0.374587 -0.220663,-0.63572 z"
   id="path600"
   style="stroke-width:1.12631" /></svg>
