<?xml version="1.0" encoding="UTF-8" standalone="no"?>
<svg
   version="1.1"
   id="Layer_1"
   x="0px"
   y="0px"
   width="1444.5703"
   viewBox="0 0 1444.5703 293.99878"
   enable-background="new 0 0 1565 421"
   xml:space="preserve"
   sodipodi:docname="grafana_icon2.svg"
   height="293.99878"
   inkscape:version="1.1.2 (0a00cf5339, 2022-02-04)"
   xmlns:inkscape="http://www.inkscape.org/namespaces/inkscape"
   xmlns:sodipodi="http://sodipodi.sourceforge.net/DTD/sodipodi-0.dtd"
   xmlns="http://www.w3.org/2000/svg"
   xmlns:svg="http://www.w3.org/2000/svg"><defs
   id="defs605" /><sodipodi:namedview
   id="namedview603"
   pagecolor="#ffffff"
   bordercolor="#666666"
   borderopacity="1.0"
   inkscape:pageshadow="2"
   inkscape:pageopacity="0.0"
   inkscape:pagecheckerboard="0"
   showgrid="false"
   inkscape:zoom="0.56421725"
   inkscape:cx="716.92242"
   inkscape:cy="140.90317"
   inkscape:window-width="1096"
   inkscape:window-height="1410"
   inkscape:window-x="514"
   inkscape:window-y="0"
   inkscape:window-maximized="1"
   inkscape:current-layer="Layer_1" />

<path
   fill="#d06ab9"
   opacity="1"
   stroke="none"
   d="m 1132.1116,125.58098 c 9.4471,4.30473 19.4212,5.18013 29.6734,5.03532 18.9803,-0.26811 37.9657,-0.27065 56.9488,-0.24011 24.3184,0.0391 44.9791,8.70451 61.5948,26.61247 1.0913,1.17612 1.8328,2.6766 2.4088,4.62396 -2.2785,0.82186 -4.2276,1.23148 -6.1786,1.24013 -13.0768,0.0579 -26.1549,-0.0557 -39.2298,0.11806 -2.1096,0.028 -4.2039,1.21188 -6.3054,1.8614 -25.6319,-0.32059 -51.2633,-0.76149 -76.8962,-0.92961 -28.5521,-0.18732 -50.799,-12.19395 -66.9763,-35.58104 13.4222,-0.38467 26.4829,-0.32614 39.5389,-0.54556 1.819,-0.0306 3.615,-1.42952 5.4216,-2.19502 z"
   id="path326" />
<path
   fill="#de1486"
   opacity="1"
   stroke="none"
   d="m 734.3615,19.877381 c 2.54425,-5.545815 5.2442,-11.027619 7.56354,-16.665955 1.0697,-2.60044102 2.56732,-3.21398102 5.22149,-3.2114180156973 C 823.22564,0.07342798 899.30535,-0.09074202 975.38359,0.17256998 c 18.7108,0.06476 35.78171,6.02963202 50.23621,18.49007402 -2.6937,0.717026 -5.1578,1.185074 -7.6221,1.18602 -94.54538,0.0362 -189.09079,0.02962 -283.6362,0.02872 z"
   id="path328" />
<path
   fill="#e0248c"
   opacity="1"
   stroke="none"
   d="m 734.18523,20.202958 c 94.72168,-0.324677 189.26709,-0.318093 283.81247,-0.354294 2.4643,-9.46e-4 4.9284,-0.468994 7.7871,-0.88681 5.6385,5.283798 10.8825,10.735199 15.8429,16.752879 -2.2424,0.76617 -4.2003,1.12883 -6.1601,1.13894 -10.9384,0.0564 -21.8787,-0.065 -32.8142,0.11591 -1.8904,0.0313 -3.76161,1.22083 -5.64161,1.87538 -9.0958,-4.12948 -18.643,-5.08035 -28.5773,-5.0536 -66.09441,0.178 -132.18957,0.0811 -198.28442,0.14557 -2.01397,0.002 -4.02716,0.79257 -6.71154,1.58007 -12.41486,-0.0219 -24.15888,-0.40834 -35.9029,-0.7948 2.15778,-4.73122 4.31561,-9.462444 6.6496,-14.519245 z"
   id="path330" />
<path
   fill="#7450b5"
   opacity="1"
   stroke="none"
   d="m 1264.0588,279.99267 c -7.7996,6.62564 -17.1844,9.87186 -26.9505,11.76255 -6.8062,1.31765 -13.844,1.99127 -20.78,2.00274 -80.5734,0.13309 -161.1473,0.0174 -241.72021,0.24072 -5.2763,0.0147 -7.8992,-1.61209 -9.449,-6.3045 -0.9288,-2.81183 -2.3678,-5.4552 -3.2286,-8.50149 98.52831,-0.32203 196.70801,-0.32474 294.88761,-0.26514 2.4138,10e-4 4.8271,0.69461 7.2407,1.06512 z"
   id="path332" />
<path
   fill="#dc0f84"
   opacity="1"
   stroke="none"
   d="m 1115.0102,10.875565 c 12.1511,-7.606903 25.6824,-10.70597802 39.7223,-10.73178102 95.1329,-0.174889 190.2661,-0.09409 285.3993,-0.0865 1.153,9.2e-5 2.306,0.124489 4.245,0.236107 0,4.00654602 0,7.92977902 -0.5973,12.22967502 -3.2628,0.369927 -5.9284,0.357323 -8.5938,0.3573 -104.1196,-0.001 -208.2394,0.01368 -312.3589,-0.08474 -2.6062,-0.0025 -5.2111,-1.252098 -7.8166,-1.920059 z"
   id="path334" />
<path
   fill="#844db9"
   opacity="1"
   stroke="none"
   d="m 1264.4072,279.92547 c -2.762,-0.30331 -5.1753,-0.99646 -7.5891,-0.99792 -98.1796,-0.0596 -196.3593,-0.0569 -294.98301,-0.0638 -2.3707,-4.11456 -4.2973,-8.22745 -5.8717,-12.6666 2.3505,-0.32287 4.3487,-0.31662 6.3468,-0.31659 103.07341,4.9e-4 206.14681,-0.0127 309.22001,0.074 2.6688,0.002 5.3367,1.09805 8.0049,1.68387 -4.9265,4.07324 -9.8529,8.14648 -15.1279,12.28698 z"
   id="path336" />
<path
   fill="#d06ab9"
   opacity="1"
   stroke="none"
   d="m 784.01189,163.87086 c -12.93817,0 -25.37628,0 -38.05603,0 0,-11.21679 0,-21.94624 0,-33.03328 1.78046,-0.0904 3.38928,-0.24281 4.99817,-0.24347 33.61517,-0.0138 67.23071,0.0543 100.84515,-0.10173 3.72687,-0.0173 5.61853,1.09259 7.06049,4.52646 3.9461,9.39729 8.27295,18.63471 12.86059,28.85202 -29.56982,0 -58.3891,0 -87.70837,0 z"
   id="path338" />
<path
   fill="#e11b89"
   opacity="1"
   stroke="none"
   d="m 1114.6619,10.922654 c 2.9538,0.620872 5.5587,1.870506 8.1649,1.87297 104.1195,0.09842 208.2393,0.08373 312.3589,0.08474 2.6654,2.3e-5 5.331,0.01263 8.4731,0.02584 0.5495,3.359924 0.6223,6.713371 0.1033,10.516792 -113.7857,0.452652 -226.9797,0.456184 -340.1737,0.451111 -1.9961,-9.2e-5 -3.9923,-0.103615 -5.9884,-0.158882 5.5712,-4.248497 11.1425,-8.496987 17.0619,-12.792572 z"
   id="path340" />
<path
   fill="#e0268d"
   opacity="1"
   stroke="none"
   d="m 1097.3112,23.861176 c 2.2849,-0.09068 4.2811,0.01284 6.2772,0.01293 113.194,0.0051 226.388,0.0015 340.058,-0.0071 0.476,3.135605 0.476,6.277192 0.476,10.015429 -2.1365,0 -4.2558,0 -6.375,0 -93.4585,0 -186.9171,0.0507 -280.3754,-0.084 -8.6584,-0.0125 -16.7485,1.59655 -25.2328,4.8373 -3.0183,-0.73332 -5.3724,-1.65177 -7.739,-1.68492 -12.5336,-0.17555 -25.0702,-0.12857 -37.6058,-0.15869 3.4093,-4.26165 6.8186,-8.523297 10.5168,-12.930897 z"
   id="path342" />
<path
   fill="#d36cb9"
   opacity="1"
   stroke="none"
   d="m 1046.0253,122.91224 c -7.3265,13.74793 -17.9522,24.10453 -31.8813,31.08985 -1.5309,0.7677 -2.9507,1.75673 -4.9636,2.34755 -2.0873,-0.685 -3.6329,-1.41242 -5.179,-1.4142 -33.06341,-0.0384 -66.12681,0.005 -99.19025,0.0318 -3.71174,-7.85423 -7.42353,-15.70846 -11.52027,-24.37732 2.74713,0 4.52203,3e-5 6.29694,2e-5 24.45868,-2.6e-4 48.91737,-0.0276 73.37597,0.0108 11.9645,0.0188 22.941,-2.89336 33.12631,-10.44478 2.4914,0.27646 4.2731,0.68091 6.0574,0.69338 9.3834,0.0656 18.77,-0.079 28.1496,0.12518 1.9226,0.0418 3.8194,1.26115 5.7282,1.93774 z"
   id="path344" />
<path
   fill="#7650b6"
   opacity="1"
   stroke="none"
   d="m 922.9016,276.87402 c 2.53333,5.35791 5.06671,10.71582 7.86096,16.62558 -61.88244,0 -123.03863,0 -185.02588,0 0,-5.2077 0,-10.44827 0.57611,-16.14865 59.24707,-0.46555 117.91791,-0.47122 176.58881,-0.47693 z"
   id="path346" />
<path
   fill="#844bb6"
   opacity="1"
   stroke="none"
   d="m 922.85991,276.51687 c -58.62921,0.36286 -117.30005,0.36853 -176.44415,0.37628 -0.47321,-5.43569 -0.47321,-10.87344 -0.47321,-16.8077 1.97101,0 3.59717,0 5.22333,0 53.09601,0 106.19226,0.0608 159.28766,-0.12012 4.06744,-0.0139 5.99646,1.3522 7.34711,4.84756 1.48901,3.85321 3.32995,7.57041 5.05926,11.70398 z"
   id="path348" />
<path
   fill="#d36cb9"
   opacity="1"
   stroke="none"
   d="m 1325.3317,152.86737 c -8.489,-10.01813 -18.1991,-18.25398 -31.3454,-21.87708 49.9814,0 99.963,0 150.389,0 0,6.76654 0,13.37474 -0.5961,20.43799 -37.0858,0.45433 -73.5753,0.43205 -110.0648,0.49545 -2.7948,0.005 -5.5885,0.6149 -8.3827,0.94364 z"
   id="path350" />
<path
   fill="#894ab5"
   opacity="1"
   stroke="none"
   d="m 373.37444,270.86859 c -0.0613,-4.69623 -0.12262,-9.39249 0.35242,-14.54599 11.35479,-0.45728 22.17324,-0.45728 32.99169,-0.45731 0.17215,1.26758 0.34427,2.53519 0.53748,3.95801 10.90991,0 21.58551,0 32.55814,0 0.084,-1.85617 0.15689,-3.46515 0.72055,-5.50152 11.38098,-0.10724 22.27111,0.21285 33.16131,0.53295 0.13721,1.48496 0.27448,2.96991 0.48371,5.23392 1.87286,0 3.79101,3e-5 5.7091,3e-5 34.58289,3e-5 69.16614,0.0787 103.74829,-0.0837 5.26655,-0.0247 9.61066,0.1243 9.92487,6.84479 0.0333,0.71301 0.76361,1.39343 1.09888,2.61691 -2.17981,0.82334 -4.28772,1.3757 -6.39588,1.37692 -71.63019,0.0407 -143.2604,0.0291 -214.89056,0.025 z"
   id="path352" />
<path
   fill="#7e4fb8"
   opacity="1"
   stroke="none"
   d="m 373.29045,271.32354 c 71.71415,-0.45089 143.34436,-0.43924 214.97455,-0.47995 2.10816,-0.001 4.21607,-0.55358 6.6579,-1.13845 2.21039,3.62899 4.08704,7.54748 5.57587,11.85858 -3.02253,0.70077 -5.65711,1.27652 -8.29187,1.27798 -72.94281,0.0409 -145.88562,0.0235 -218.8284,0.0157 -0.0573,-3.69299 -0.11466,-7.38596 -0.088,-11.53388 z"
   id="path354" />
<path
   fill="#7450b2"
   opacity="1"
   stroke="none"
   d="m 373.29106,283.31076 c 73.03022,-0.44559 145.97303,-0.42813 218.91584,-0.46906 2.63476,-10e-4 5.26934,-0.57721 8.31897,-0.91693 2.23095,3.63199 4.04693,7.29562 6.16607,11.57093 -78.16333,0 -155.4563,0 -233.48828,0 0,-3.21989 0,-6.47574 0.0874,-10.18494 z"
   id="path356" />
<path
   fill="#8e4bbb"
   opacity="1"
   stroke="none"
   d="m 1279.7958,267.41803 c -2.9289,-0.36536 -5.5968,-1.46115 -8.2656,-1.46341 -103.0732,-0.0868 -206.1466,-0.0735 -309.22001,-0.074 -1.9981,-3e-5 -3.9963,-0.006 -6.4359,-0.0111 -2.2018,-3.75991 -3.9622,-7.5184 -5.3515,-11.72433 2.5059,-0.71939 4.6389,-1.20715 6.7761,-1.22632 9.8232,-0.0883 19.6474,-0.0456 29.4713,-0.0499 1.7002,6.46006 6.0311,7.42246 12.2673,7.40119 72.45231,-0.24762 144.90581,-0.2587 217.35821,-0.047 10.4285,0.0305 19.9546,-2.07046 29.3057,-6.93292 2.1921,1.07501 3.9598,2.45038 5.755,2.48727 10.2587,0.21082 20.5246,0.0536 30.7868,0.14795 1.9229,0.0177 3.8404,0.60886 5.7604,0.93546 -2.6489,3.44555 -5.2979,6.89114 -8.2078,10.55713 z"
   id="path358" />
<path
   fill="#ae50bd"
   opacity="1"
   stroke="none"
   d="m 178.01773,203.88159 c -3.99286,8.77994 -7.98571,17.5599 -12.55381,26.62152 -19.74154,0.30652 -38.90783,0.33139 -58.07412,0.35626 -4.20182,-9.04266 -8.403646,-18.08536 -12.222766,-27.51163 11.978216,-0.45275 23.573726,-0.52191 35.169246,-0.59106 1.94677,3.92856 3.89355,7.85712 6.229,12.57001 2.05809,-4.39591 3.85532,-8.23465 6.37752,-12.2948 9.77534,-0.19831 18.82673,-0.24237 27.87542,-0.107 2.40407,0.0359 4.7999,0.62278 7.19951,0.9567 z"
   id="path360" />
<path
   fill="#b150bb"
   opacity="1"
   stroke="none"
   d="m 635.96941,198.89294 c 2.53638,5.13391 5.07275,10.26779 8.08679,16.36844 2.74579,-5.89572 5.08563,-10.91965 8.17096,-16.15948 12.37567,-0.21949 24.0058,-0.22306 35.63593,-0.22666 -3.95929,8.59607 -7.91864,17.19211 -12.65662,25.94129 -19.41418,0.12554 -38.04987,0.0644 -56.68524,0.12033 -1.94007,0.006 -3.87799,0.70553 -5.81696,1.08328 -3.95678,-8.4339 -7.91357,-16.8678 -11.51928,-25.71311 11.82879,-0.74563 23.30658,-1.07986 34.78442,-1.41409 z"
   id="path362" />
<path
   fill="#844bb6"
   opacity="1"
   stroke="none"
   d="m 1324.0156,272.88067 c 2.3674,-3.58065 4.6244,-7.24283 7.1706,-10.6914 0.7461,-1.01047 2.3128,-2.00665 3.5059,-2.00949 35.9183,-0.0853 71.8368,-0.0468 107.7553,-0.006 0.4633,5.2e-4 0.9263,0.27942 1.9516,0.60919 0,3.98023 0,8.08356 -0.5927,12.64194 -37.712,0.45505 -74.8311,0.47516 -111.9503,0.41208 -2.614,-0.004 -5.227,-0.62311 -7.8404,-0.95615 z"
   id="path364" />
<path
   fill="#d16ab8"
   opacity="1"
   stroke="none"
   d="m 724.00341,120.85879 c -6.32148,13.78586 -12.64301,27.57172 -19.58075,41.68061 -7.43268,0.32962 -14.25208,0.46038 -21.0647,0.30052 -4.77667,-0.11209 -9.54407,-0.62065 -14.31561,-0.95214 6.45715,-14.20736 12.91436,-28.41475 20.06988,-42.73236 9.16352,0.1688 17.63123,0.39009 26.09253,0.75829 2.94098,0.128 5.86621,0.61955 8.79865,0.94508 z"
   id="path366" />
<path
   fill="#d56bb8"
   opacity="1"
   stroke="none"
   d="m 440.2079,156.86715 c -0.0486,-14.68473 -0.0973,-29.36946 0.38266,-44.51838 11.38276,-0.4644 22.23688,-0.46462 33.09101,-0.46483 0.0551,14.68565 0.11023,29.37132 -0.36487,44.51825 -11.38971,0.46251 -22.24927,0.46373 -33.1088,0.46496 z"
   id="path368" />
<path
   fill="#7e4fb8"
   opacity="1"
   stroke="none"
   d="m 1323.7198,273.03415 c 2.9092,0.17956 5.5222,0.79821 8.1362,0.80267 37.1192,0.0631 74.2383,0.043 111.8373,0.0425 0.5476,3.68759 0.6155,7.37567 0.098,11.52017 -41.4499,0.46347 -82.3147,0.51322 -123.1789,0.37665 -2.5933,-0.009 -5.1817,-1.46567 -7.7724,-2.24884 3.528,-3.44656 7.056,-6.8931 10.8797,-10.49313 z"
   id="path370" />
<path
   fill="#d56bb5"
   opacity="1"
   stroke="none"
   d="m 406.69872,108.88366 c 0.0572,14.01972 0.11429,28.03943 -0.35834,42.52192 -11.33765,0.4609 -22.14557,0.45901 -32.95346,0.45713 -0.057,-14.01841 -0.11404,-28.03685 0.36282,-42.51474 11.33896,-0.46107 22.14395,-0.46269 32.94898,-0.46431 z"
   id="path372" />
<path
   fill="#d56bb8"
   opacity="1"
   stroke="none"
   d="m 239.988,155.88226 c -0.0653,-14.36572 -0.13071,-28.73146 0.37472,-43.55293 11.25095,-0.45638 21.93115,-0.457 32.61139,-0.45764 0.0731,14.36222 0.1463,28.72447 -0.34299,43.5478 -11.25601,0.46167 -21.94955,0.46222 -32.64312,0.46277 z"
   id="path374" />
<path
   fill="#d16ab8"
   opacity="1"
   stroke="none"
   d="m 582.40447,160.85739 c -5.97913,-12.7688 -11.95825,-25.53758 -17.56226,-38.64145 2.36823,-0.33501 4.36316,-0.27985 6.35419,-0.34428 9.59857,-0.31055 19.19617,-0.65334 28.79401,-0.9847 5.35101,12.00737 10.68927,24.02045 16.07971,36.01004 0.38849,0.86415 1.15808,1.55692 1.47961,2.89465 -11.89569,0.7321 -23.52045,0.89893 -35.14526,1.06574 z"
   id="path376" />
<path
   fill="#d56bb5"
   opacity="1"
   stroke="none"
   d="m 67.844004,145.21594 c -5.93788,-12.54741 -11.87574,-25.0948 -17.45809,-38.22714 9.71749,-0.76052 19.08101,-0.88176 28.44016,-1.15377 2.07489,-0.0603 4.13432,-0.6528 6.20086,-1.00024 4.2634,9.1525 8.52245,18.30702 12.79236,27.45648 1.69202,3.6256 3.408176,7.23992 4.731936,11.21443 -9.788786,0.36258 -19.197326,0.29357 -28.602586,0.4379 -2.04092,0.0313 -4.07007,0.82813 -6.10464,1.27234 z"
   id="path378" />
<path
   fill="#cd66ba"
   opacity="1"
   stroke="none"
   d="m 1325.4589,153.16687 c 2.667,-0.62824 5.4607,-1.23827 8.2555,-1.24314 36.4895,-0.0634 72.979,-0.0411 109.9454,-0.0396 0.477,3.80099 0.477,7.60122 0.477,11.99173 -1.778,0 -3.5593,1e-5 -5.3406,1e-5 -33.4243,2e-5 -66.8492,-0.0882 -100.2725,0.10536 -4.4591,0.0258 -7.53,-0.83424 -9.3524,-5.15695 -0.8196,-1.94424 -2.3675,-3.58139 -3.7124,-5.65739 z"
   id="path380" />
<path
   fill="#ca60b8"
   opacity="1"
   stroke="none"
   d="m 904.86809,155.33426 c 33.0065,-0.39421 66.0699,-0.4372 99.13331,-0.39882 1.5461,0.002 3.0917,0.7292 4.8252,1.45015 -8.6542,4.76629 -18.06541,7.17141 -27.90651,7.39909 -11.4336,0.26454 -22.8778,0.0617 -34.8774,0.0617 1.4385,3.31439 2.7282,6.28593 3.6723,9.78318 -2.1447,0.76818 -3.9424,1.20815 -5.7431,1.22034 -9.9813,0.0677 -19.96336,0.0313 -29.94517,0.0305 -3.03393,-6.39305 -6.06781,-12.78612 -9.15863,-19.5462 z"
   id="path382" />
<path
   fill="#d56bb8"
   opacity="1"
   stroke="none"
   d="m 219.00362,115.83969 c -4.6445,10.1307 -9.289,20.26141 -14.54901,30.71287 -9.99076,0.32384 -19.36667,0.38965 -28.74068,0.28421 -2.23724,-0.0252 -4.46803,-0.62188 -6.7018,-0.95575 4.7333,-10.56956 9.46659,-21.13913 14.96952,-31.88499 10.24429,-0.15659 19.7214,-0.24448 29.19162,-0.0289 1.95666,0.0446 3.88757,1.21888 5.83035,1.87251 z"
   id="path384" />
<path
   fill="#b150bb"
   opacity="1"
   stroke="none"
   d="m 961.16189,197.6001 c 4.881,10.53717 9.7619,21.0743 14.3847,32.17498 -12.2221,0.73331 -24.186,0.90311 -36.1498,1.07288 -4.674,-10.09473 -9.34791,-20.18945 -13.68092,-30.6676 9.84492,-0.68878 19.35182,-0.92881 28.85082,-1.34812 2.2122,-0.0977 4.3976,-0.8052 6.5952,-1.23214 z"
   id="path386" />
<path
   fill="#a24dbe"
   opacity="1"
   stroke="none"
   d="m 612.79546,226.37933 c 1.84778,-0.73694 3.7857,-1.43664 5.72577,-1.44247 18.63537,-0.0559 37.27106,0.005 56.40143,0.062 -2.63233,7.0906 -5.7594,14.15207 -9.50696,21.53824 -14.78186,0.32379 -28.94324,0.32293 -43.10462,0.32208 -3.14147,-6.70688 -6.28295,-13.41376 -9.51562,-20.4798 z"
   id="path388" />
<path
   fill="#de4a9e"
   opacity="1"
   stroke="none"
   d="m 200.97777,76.804383 c 2.36102,-5.42923 4.72208,-10.85848 7.67535,-16.55707 3.38111,0.0314 6.16889,0.58049 8.95902,0.59258 18.41116,0.0797 36.82281,0.0439 55.23431,0.0457 0.074,5.35802 0.14804,10.71602 -0.32119,16.53517 -11.19202,0.45678 -21.84073,0.45243 -32.48948,0.44806 -0.11837,-1.14621 -0.23675,-2.29243 -0.43163,-4.17961 -1.05613,1.50742 -1.79834,2.5668 -3.14594,3.91066 -10.33048,0.28307 -20.05615,0.33827 -29.78012,0.23165 -1.90363,-0.0209 -3.80039,-0.66858 -5.70032,-1.02718 z"
   id="path390" />
<path
   fill="#7450b2"
   opacity="1"
   stroke="none"
   d="m 1312.5121,283.66229 c 2.9187,0.64816 5.5071,2.10519 8.1004,2.11383 40.8642,0.13657 81.729,0.0868 123.0724,0.0713 0.608,2.43442 0.7374,4.87735 0.8855,7.67166 -51.0006,0 -101.5022,0 -151.152,0 5.7826,-2.99573 12.2742,-6.35873 19.0937,-9.85681 z"
   id="path392" />
<path
   fill="#d867b1"
   opacity="1"
   stroke="none"
   d="m 1131.9084,125.32061 c -1.6034,1.02587 -3.3994,2.42481 -5.2184,2.45539 -13.056,0.21942 -26.1167,0.16089 -39.6776,0.21805 -4.3171,-8.42838 -8.1323,-16.88422 -11.5222,-25.81661 7.8631,-0.75024 15.3038,-0.96596 22.7375,-1.32263 3.5947,-0.17247 7.1768,-0.60967 10.7645,-0.926987 4.9834,10.715907 11.8945,19.689787 22.9162,25.392787 z"
   id="path394" />
<path
   fill="#df3c96"
   opacity="1"
   stroke="none"
   d="m 272.91902,60.422703 c -18.48407,0.46109 -36.89572,0.49688 -55.30688,0.41719 -2.79013,-0.0121 -5.57791,-0.56121 -8.75571,-0.90758 1.96897,-5.21919 4.32688,-10.39273 7.40613,-15.80646 19.34204,-0.23981 37.96268,-0.23943 56.58335,-0.23905 0.0485,5.35766 0.0971,10.71532 0.0731,16.5359 z"
   id="path396" />
<path
   fill="#ae50bd"
   opacity="1"
   stroke="none"
   d="m 440.20006,230.86819 c -0.0484,-9.6871 -0.0969,-19.37424 0.33542,-29.48782 11.3718,-0.11997 22.26291,0.18658 33.1539,0.4931 0.0533,9.35456 0.10657,18.70914 -0.36646,28.52725 -11.39178,0.46488 -22.25732,0.46619 -33.12286,0.46747 z"
   id="path398" />
<path
   fill="#d56bb5"
   opacity="1"
   stroke="none"
   d="m 306.72374,135.6773 c -0.0841,-8.95909 -0.16827,-17.91819 0.30448,-27.33004 11.31067,-0.45514 22.06448,-0.45752 32.81826,-0.45989 0.0493,8.68817 0.0985,17.37633 -0.3814,26.52892 -4.67606,0.46473 -8.8256,0.37092 -12.96927,0.48689 -6.59275,0.18454 -13.18158,0.50891 -19.77207,0.77412 z"
   id="path400" />
<path
   fill="#a24dbe"
   opacity="1"
   stroke="none"
   d="m 107.48571,231.18707 c 19.07038,-0.35257 38.23667,-0.37744 57.80105,-0.36383 -2.14087,5.49161 -4.67981,10.94473 -7.8352,16.71927 -14.45255,0.31891 -28.28861,0.3164 -42.12468,0.3139 -2.58174,-5.4472 -5.1635,-10.89444 -7.84117,-16.66934 z"
   id="path402" />
<path
   fill="#c052b4"
   opacity="1"
   stroke="none"
   d="m 961.10929,197.24713 c -2.145,0.77991 -4.3304,1.48743 -6.5426,1.58511 -9.499,0.41931 -19.0059,0.65934 -28.91405,1.00162 -4.13593,-8.04623 -7.86768,-16.12944 -11.61267,-24.58301 9.96856,-0.36964 19.95062,-0.33327 29.93192,-0.40094 1.8007,-0.0122 3.5984,-0.45216 5.7927,-0.8558 4.0276,7.52588 7.6599,15.21295 11.3447,23.25302 z"
   id="path404" />
<path
   fill="#ae50bd"
   opacity="1"
   stroke="none"
   d="m 1300.8355,200.88086 c -0.2358,8.39544 -0.4717,16.79086 -1.2186,25.59417 -11.5106,0.40589 -22.5102,0.4039 -33.5097,0.40192 1.8749,-8.32394 2.9016,-16.68024 1.4633,-25.573 11.425,-0.42328 22.3451,-0.42319 33.265,-0.42309 z"
   id="path406" />
<path
   fill="#d06ab9"
   opacity="1"
   stroke="none"
   d="m 306.5869,136.14193 c 6.72733,-0.72984 13.31616,-1.05421 19.90891,-1.23875 4.14367,-0.11597 8.29321,-0.0222 12.89868,-0.023 0.5022,8.35498 0.54584,16.71055 0.0623,25.53139 -11.25815,0.45448 -21.98917,0.4437 -32.72016,0.43289 -0.0956,-8.07928 -0.19107,-16.15858 -0.14978,-24.7025 z"
   id="path408" />
<path
   fill="#d867b1"
   opacity="1"
   stroke="none"
   d="m 724.27166,120.63833 c -3.20069,-0.10507 -6.12592,-0.59662 -9.0669,-0.72462 -8.4613,-0.3682 -16.92901,-0.58949 -25.80456,-0.95436 3.08313,-7.9366 6.57672,-15.78736 10.69525,-23.632477 2.74243,0.1891 4.85656,0.45596 6.97796,0.54163 9.36487,0.37814 18.73181,0.70413 28.09803,1.04901 -3.54383,7.833477 -7.08771,15.666937 -10.89978,23.720817 z"
   id="path410" />
<path
   fill="#e02c8f"
   opacity="1"
   stroke="none"
   d="m 272.9179,43.424403 c -18.69266,0.46202 -37.3133,0.46164 -56.39997,0.46235 1.82544,-5.11915 4.11688,-10.23938 7.02637,-15.681888 16.84604,-0.321716 33.07407,-0.321136 49.30206,-0.320557 0.0478,5.025895 0.0957,10.051795 0.0715,15.540095 z"
   id="path412" />
<path
   fill="#bd51b4"
   opacity="1"
   stroke="none"
   d="m 178.29692,203.67566 c -2.6788,-0.12799 -5.07463,-0.71482 -7.4787,-0.75077 -9.04869,-0.13537 -18.10008,-0.0913 -27.63929,-0.14007 3.03897,-7.85266 6.56679,-15.67972 10.77591,-23.70011 12.16259,0.14362 23.64389,0.48061 35.1252,0.8176 -3.50132,7.85584 -7.00263,15.71164 -10.78312,23.77335 z"
   id="path414" />
<path
   fill="#da5ca8"
   opacity="1"
   stroke="none"
   d="m 85.007464,104.46274 c -2.04707,0.71949 -4.1065,1.31199 -6.18139,1.37229 -9.35915,0.27201 -18.72267,0.39325 -28.43863,0.77739 -3.88563,-7.209087 -7.41726,-14.626747 -10.62795,-22.424827 11.95414,-0.68715 23.58731,-0.99388 35.22051,-1.3006 3.33598,7.0679 6.67198,14.13579 10.02746,21.575747 z"
   id="path416" />
<path
   fill="#bd51b4"
   opacity="1"
   stroke="none"
   d="m 473.77153,201.41198 c -10.97314,0.15497 -21.86425,-0.15158 -33.16259,-0.49526 -0.45731,-7.73194 -0.50736,-15.42675 -0.0226,-23.58378 11.38828,-0.46339 22.24179,-0.4646 33.09525,-0.46579 0.0573,8.02777 0.11462,16.05555 0.09,24.54483 z"
   id="path418" />
<path
   fill="#bd51b4"
   opacity="1"
   stroke="none"
   d="m 130.25577,202.39313 c -11.51501,0.4327 -23.11052,0.50186 -35.205596,0.59814 -3.99693,-7.43939 -7.4943,-14.90592 -10.54106,-22.74277 9.94937,-0.37042 19.449006,-0.30333 28.946146,-0.42708 1.90629,-0.0248 3.8031,-0.77537 5.70429,-1.19133 3.6719,7.79984 7.34381,15.59967 11.09622,23.76304 z"
   id="path420" />
<path
   fill="#9d4bbd"
   opacity="1"
   stroke="none"
   d="m 939.49489,231.1773 c 11.8657,-0.49911 23.8296,-0.66891 36.1446,-1.05346 3.8879,7.21206 7.4246,14.63885 11.0461,22.40539 -9.7393,0.34403 -19.5635,0.30136 -29.3867,0.38962 -2.1372,0.0192 -4.2702,0.50693 -6.8089,0.86557 -3.9015,-7.36816 -7.3992,-14.82297 -10.9951,-22.60712 z"
   id="path422" />
<path
   fill="#9d4bbd"
   opacity="1"
   stroke="none"
   d="m 440.12462,231.33239 c 10.94098,-0.46548 21.80652,-0.46679 33.12018,-0.47027 0.49799,7.68838 0.54773,15.37894 0.52435,23.53107 -10.96332,0.14144 -21.85345,-0.17865 -33.15811,-0.51478 -0.46359,-7.3713 -0.51272,-14.72656 -0.48642,-22.54602 z"
   id="path424" />
<path
   fill="#da61ac"
   opacity="1"
   stroke="none"
   d="m 473.77068,111.423 c -10.94324,0.46115 -21.79736,0.46137 -33.10779,0.4624 -0.50378,-7.35798 -0.5513,-14.716757 -0.11487,-22.551277 11.36768,-0.8004 22.25147,-1.12508 33.13526,-1.44975 0.0588,7.69256 0.11773,15.385137 0.0874,23.538627 z"
   id="path426" />
<path
   fill="#cd66ba"
   opacity="1"
   stroke="none"
   d="m 67.884044,145.57164 c 1.99453,-0.79991 4.02368,-1.59671 6.0646,-1.62804 9.40526,-0.14433 18.8138,-0.0753 28.696636,-0.0917 3.72103,6.76471 6.96659,13.53826 9.82688,20.70488 -11.97776,0.69856 -23.570226,1.00408 -35.162706,1.30961 -3.12846,-6.64636 -6.25691,-13.29272 -9.42541,-20.29478 z"
   id="path428" />
<path
   fill="#bd51b4"
   opacity="1"
   stroke="none"
   d="m 1300.8729,200.48327 c -10.9573,0.39749 -21.8774,0.3974 -33.2568,0.3963 -3.8579,-6.57391 -7.2563,-13.14685 -10.4896,-20.32168 2.2439,-0.95993 4.3186,-1.59941 6.4019,-1.62842 10.2844,-0.14323 20.5711,-0.12486 30.857,-0.16348 2.175,7.10657 4.3499,14.21313 6.4875,21.71728 z"
   id="path430" />
<path
   fill="#b450bb"
   opacity="1"
   stroke="none"
   d="m 273.00768,196.87481 c 0.0688,7.6933 0.13772,15.38657 -0.35901,23.54102 -11.2666,0.45956 -21.96759,0.45798 -32.66861,0.45636 -0.0673,-7.69305 -0.13461,-15.38611 0.37332,-23.53653 11.26822,-0.45853 21.96128,-0.45969 32.6543,-0.46085 z"
   id="path432" />
<path
   fill="#ca60b8"
   opacity="1"
   stroke="none"
   d="m 373.29232,152.32403 c 10.90249,-0.45944 21.71041,-0.45755 32.96768,-0.45695 0.49951,7.35803 0.54965,14.71736 0.0723,22.53779 -11.33127,0.46059 -22.13504,0.46004 -32.93878,0.45949 -0.0653,-7.35968 -0.13052,-14.71934 -0.10116,-22.54033 z"
   id="path434" />
<path
   fill="#b450bb"
   opacity="1"
   stroke="none"
   d="m 339.84487,194.88131 c 0.0461,7.3552 0.0922,14.71036 -0.38736,22.53101 -11.26395,0.45398 -22.00226,0.44254 -32.7406,0.43109 -0.0872,-7.3511 -0.17447,-14.70224 0.2962,-22.50494 11.31589,-0.45343 22.07382,-0.45529 32.83176,-0.45716 z"
   id="path436" />
<path
   fill="#d867b1"
   opacity="1"
   stroke="none"
   d="m 1046.3198,122.72352 c -2.2033,-0.48787 -4.1001,-1.70718 -6.0227,-1.74902 -9.3796,-0.20421 -18.7662,-0.0596 -28.1496,-0.12518 -1.7843,-0.0125 -3.566,-0.41692 -5.7323,-0.80025 4.1526,-6.31331 8.6886,-12.4669 13.9224,-18.88599 11.9508,-0.26922 23.2038,-0.27299 34.4568,-0.27676 -2.7268,7.21616 -5.4535,14.43231 -8.4746,21.8372 z"
   id="path438" />
<path
   fill="#d867b1"
   opacity="1"
   stroke="none"
   d="m 599.9594,120.52343 c -9.56683,0.69489 -19.16443,1.03768 -28.763,1.34823 -1.99103,0.0644 -3.98596,0.009 -6.42816,0.008 -3.60627,-6.72941 -6.76343,-13.45811 -9.50739,-20.56802 9.85803,-0.39836 19.30402,-0.34094 28.74677,-0.49136 2.05224,-0.0327 4.09259,-0.81021 6.13842,-1.244687 3.26075,6.861287 6.52155,13.722557 9.81336,20.947347 z"
   id="path440" />
<path
   fill="#bd51b4"
   opacity="1"
   stroke="none"
   d="m 635.93975,198.53405 c -11.44818,0.69312 -22.92597,1.02735 -34.84742,1.41053 -3.64526,-6.73545 -6.84692,-13.51985 -9.70593,-20.75113 2.78797,-0.7343 5.23029,-1.23624 7.6792,-1.27086 9.07922,-0.1284 18.16064,-0.10278 27.24121,-0.13503 3.20111,6.79586 6.40222,13.59171 9.63294,20.74649 z"
   id="path442" />
<path
   fill="#c65cb5"
   opacity="1"
   stroke="none"
   d="m 1294.2884,178.40054 c -10.1889,0.40407 -20.4756,0.3857 -30.76,0.52893 -2.0833,0.029 -4.158,0.66849 -6.5637,1.34708 -7.2456,-7.14185 -15.5024,-12.40364 -25.6795,-15.19109 1.8399,-0.90277 3.9342,-2.08661 6.0438,-2.11465 13.0749,-0.17377 26.153,-0.0601 39.2298,-0.11806 1.951,-0.009 3.9001,-0.41827 6.1936,-0.88782 3.1626,3.37752 6.0824,6.92844 8.7546,10.65691 1.158,1.61581 1.8052,3.59764 2.7814,5.7787 z"
   id="path444" />
<path
   fill="#a74fbf"
   opacity="1"
   stroke="none"
   d="m 373.38808,238.86059 c -0.0607,-7.02145 -0.12137,-14.0429 0.35342,-21.52542 11.34516,-0.46142 22.15482,-0.46179 32.96448,-0.46216 0.051,7.02225 0.10199,14.04453 -0.37262,21.5297 -11.33215,0.46121 -22.1387,0.45953 -32.94528,0.45788 z"
   id="path446" />
<path
   fill="#a74fbf"
   opacity="1"
   stroke="none"
   d="m 306.58162,218.29693 c 10.87363,-0.44207 21.61194,-0.43063 32.80851,-0.42071 0.50076,7.02099 0.54336,14.04352 0.0629,21.53253 -11.26169,0.45279 -22.00024,0.43909 -32.7388,0.42535 -0.0893,-7.02789 -0.17859,-14.05575 -0.13257,-21.53717 z"
   id="path448" />
<path
   fill="#de1486"
   opacity="1"
   stroke="none"
   d="m 373.39742,21.863434 c 0,-6.964843 0,-13.929695 0,-21.35041802 10.88177,0 21.74225,0 33.47433,0 0,6.65434302 0,13.54491502 -0.53344,20.90077202 -11.33594,0.460083 -22.13843,0.454865 -32.94089,0.449646 z"
   id="path450" />
<path
   fill="#bd51b4"
   opacity="1"
   stroke="none"
   d="m 688.08544,198.59411 c -11.85248,0.28473 -23.48261,0.2883 -35.57965,0.29358 2.58129,-6.89374 5.62951,-13.78914 9.34338,-20.74161 2.60803,0.2067 4.54865,0.68224 6.49304,0.69838 9.55426,0.0793 19.10956,0.0366 28.66443,0.0369 -2.8996,6.4772 -5.79919,12.9544 -8.9212,19.7127 z"
   id="path452" />
<path
   fill="#de1486"
   opacity="1"
   stroke="none"
   d="m 37.921564,1.357392 c 2.67193,5.924248 5.34385,11.848488 7.56569,18.145462 C 33.239967,20.192566 21.442764,20.509537 9.645561,20.826508 6.829452,15.383133 4.013336,9.939751 1.251213,4.019822 1.378212,3.266846 1.294973,3.033341 1.055481,2.842743 c 0,0 -0.0047,0.02123 0.154312,-0.334945 0.665573,-0.729569 1.173401,-1.430344 1.678429,-1.42833 11.677963,0.04646 23.355628,0.169274 35.033342,0.277924 z"
   id="path454" />
<path
   fill="#b450bb"
   opacity="1"
   stroke="none"
   d="m 406.78575,216.41119 c -10.88943,0.46219 -21.69909,0.46256 -32.95324,0.46301 -0.50244,-6.69137 -0.56046,-13.38281 -0.0837,-20.5354 11.33996,-0.46084 22.14523,-0.46051 32.95047,-0.4602 0.0554,6.69025 0.11084,13.38049 0.0865,20.53259 z"
   id="path456" />
<path
   fill="#c052b4"
   opacity="1"
   stroke="none"
   d="m 406.78136,195.41662 c -10.88733,0.46167 -21.6926,0.46134 -32.94183,0.46149 -0.50821,-6.6972 -0.57239,-13.39485 -0.54132,-20.55313 10.89901,-0.46007 21.70278,-0.45952 32.95538,-0.45828 0.50253,6.69644 0.55618,13.39221 0.52777,20.54992 z"
   id="path458" />
<path
   fill="#de1486"
   opacity="1"
   stroke="none"
   d="m 518.03368,21.765732 c -3.36353,-6.936905 -6.72699,-13.873817 -10.51373,-21.68364702 12.37707,0 23.88482,-0.07001 35.3883,0.121231 1.01679,0.0169 2.3761,1.55564902 2.94281,2.70099702 2.48444,5.021064 4.73566,10.157547 6.62671,15.61734 -10.18652,0.364654 -19.93182,0.233352 -29.66669,0.492782 -1.61572,0.04306 -3.18609,1.791123 -4.7774,2.751297 z"
   id="path460" />
<path
   fill="#da61ac"
   opacity="1"
   stroke="none"
   d="m 219.274,115.62304 c -2.21316,-0.43698 -4.14407,-1.61129 -6.10073,-1.65586 -9.47022,-0.21563 -18.94733,-0.12774 -28.90393,-0.16919 2.25218,-6.10849 4.98631,-12.19523 8.35147,-18.596517 10.38665,-0.31706 20.14312,-0.38633 29.89721,-0.26394 1.88538,0.0237 3.76139,0.79678 5.6417,1.22419 -2.87177,6.414887 -5.74356,12.829787 -8.88572,19.461317 z"
   id="path462" />
<path
   fill="#da5ca8"
   opacity="1"
   stroke="none"
   d="m 590.11248,99.219203 c -2.01227,0.791357 -4.05262,1.568897 -6.10486,1.601567 -9.44275,0.15042 -18.88874,0.093 -28.823,0.12616 -3.04797,-5.410477 -5.60657,-10.836957 -7.9458,-16.945217 2.08203,-1.16109 3.93921,-2.0277 5.80847,-2.05475 9.64844,-0.13965 19.29999,-0.0642 28.95044,-0.0639 2.69373,5.65973 5.38751,11.31948 8.11475,17.33609 z"
   id="path464" />
<path
   fill="#cd66ba"
   opacity="1"
   stroke="none"
   d="m 168.72928,146.09002 c 2.51662,0.12487 4.74741,0.72159 6.98465,0.74675 9.37401,0.10544 18.74992,0.0396 28.57665,0.0356 -2.36765,6.14208 -5.18677,12.28513 -8.6749,18.71494 -9.9821,0.28853 -19.29866,0.42613 -28.60553,0.18692 -2.06717,-0.0531 -4.10022,-1.43474 -6.14896,-2.20467 2.52842,-5.75682 5.05683,-11.51366 7.86809,-17.47951 z"
   id="path466" />
<path
   fill="#c052b4"
   opacity="1"
   stroke="none"
   d="m 273.10417,196.41553 c -10.78951,0.46044 -21.48257,0.4616 -32.64581,0.46127 -0.54196,-6.69132 -0.61371,-13.38115 -0.10605,-20.53093 11.26862,-0.45941 21.95786,-0.45886 32.6471,-0.45831 0.0671,6.68957 0.13415,13.37913 0.10476,20.52797 z"
   id="path468" />
<path
   fill="#a74fbf"
   opacity="1"
   stroke="none"
   d="m 239.87383,221.33136 c 10.80725,-0.45755 21.50824,-0.45597 32.67859,-0.45591 0.53097,6.69297 0.59265,13.38743 0.0918,20.54221 -11.26248,0.46036 -21.9624,0.46042 -32.66232,0.46048 -0.0714,-6.69589 -0.14288,-13.39175 -0.10806,-20.54678 z"
   id="path470" />
<path
   fill="#df3592"
   opacity="1"
   stroke="none"
   d="m 997.24069,39.101903 c 1.6511,-0.91149 3.52231,-2.10104 5.41271,-2.13232 10.9355,-0.18092 21.8758,-0.0595 32.8142,-0.11591 1.9598,-0.0101 3.9177,-0.37277 6.2242,-0.80138 3.2878,4.88512 6.2277,9.99899 8.7561,15.56576 -2.5304,0.72216 -4.6474,1.20444 -6.7688,1.22432 -9.9182,0.0929 -19.8375,0.0584 -29.7564,0.0694 -5.4844,-4.51764 -10.9688,-9.03527 -16.68201,-13.80985 z"
   id="path472" />
<path
   fill="#de1486"
   opacity="1"
   stroke="none"
   d="m 440.20418,19.889092 c 0,-6.443161 0,-12.886322 0,-19.55159802 11.29453,0 22.19882,0 33.64963,0 0,6.38687202 0,12.50190002 -0.53418,19.08191002 -11.39465,0.466552 -22.25507,0.468116 -33.11545,0.469688 z"
   id="path474" />
<path
   fill="#ca60b8"
   opacity="1"
   stroke="none"
   d="m 473.7611,176.40551 c -10.93299,0.46283 -21.7865,0.46404 -33.09601,0.46386 -0.50849,-6.35913 -0.56085,-12.71689 -0.53522,-19.53844 10.93756,-0.46501 21.79712,-0.46623 33.10431,-0.46782 0.50049,6.36003 0.55347,12.7204 0.52692,19.5424 z"
   id="path476" />
<path
   fill="#974abd"
   opacity="1"
   stroke="none"
   d="m 306.57695,240.28747 c 10.8758,-0.43963 21.61435,-0.42593 32.81092,-0.41485 0.50079,6.35656 0.54358,12.71573 0.0651,19.54132 -11.26544,0.45016 -22.00961,0.4339 -32.75375,0.41763 -0.0865,-6.36358 -0.17298,-12.72717 -0.12223,-19.5441 z"
   id="path478" />
<path
   fill="#8e4bbb"
   opacity="1"
   stroke="none"
   d="m 622.40032,247.19525 c 14.07214,-0.33527 28.23352,-0.33441 42.84289,-0.33615 -2.40728,6.12375 -5.26257,12.25012 -8.73388,18.69717 -8.8498,0.31961 -17.08362,0.31845 -25.31739,0.31729 -2.90081,-6.11404 -5.80157,-12.22812 -8.79162,-18.67831 z"
   id="path480" />
<path
   fill="#ca60b8"
   opacity="1"
   stroke="none"
   d="m 273.0941,175.42674 c -10.78393,0.46027 -21.47317,0.45972 -32.63238,0.46236 -0.54401,-6.36196 -0.61807,-12.72712 -0.58295,-19.54956 10.8028,-0.45783 21.49634,-0.45838 32.65814,-0.45978 0.52942,6.36149 0.59064,12.72383 0.55719,19.54698 z"
   id="path482" />
<path
   fill="#e11b89"
   opacity="1"
   stroke="none"
   d="m 272.91719,27.424164 c -16.29882,0.459565 -32.52685,0.458985 -49.20776,0.457108 1.76822,-4.785484 3.98935,-9.569664 6.7666,-14.579819 2.85425,0.04147 5.15088,0.524017 7.45075,0.5401 11.64114,0.08146 23.28314,0.04168 34.92483,0.0444 0.0455,4.359352 0.0909,8.718705 0.0656,13.538208 z"
   id="path484" />
<path
   fill="#da5ca8"
   opacity="1"
   stroke="none"
   d="m 1108.976,99.532713 c -3.5715,0.712427 -7.1536,1.149627 -10.7483,1.322097 -7.4337,0.35667 -14.8744,0.57239 -22.7141,0.93451 -1.27,-6.310837 -2.1381,-12.710097 -2.4358,-19.501677 11.2935,-0.39482 22.0167,-0.39735 32.7399,-0.39989 1.0472,5.74996 2.0946,11.49991 3.1583,17.64496 z"
   id="path486" />
<path
   fill="#da61ac"
   opacity="1"
   stroke="none"
   d="m 406.78591,108.42268 c -10.89222,0.4626 -21.69721,0.46422 -32.94638,0.46478 -0.50241,-6.02595 -0.56067,-12.050847 -0.086,-18.535317 11.33688,-0.46019 22.14084,-0.46085 32.94479,-0.4615 0.0583,6.02368 0.11652,12.047377 0.0876,18.532037 z"
   id="path488" />
<path
   fill="#c052b4"
   opacity="1"
   stroke="none"
   d="m 339.91399,194.41742 c -10.82706,0.46576 -21.58499,0.46762 -32.76489,0.47177 -0.51496,-6.03662 -0.60797,-12.07555 -0.13715,-18.56339 11.3201,-0.45039 22.07633,-0.45187 32.83258,-0.45337 0.0462,6.02703 0.0924,12.05405 0.0695,18.54499 z"
   id="path490" />
<path
   fill="#df3592"
   opacity="1"
   stroke="none"
   d="m 1086.5163,36.980213 c 12.8137,-0.15802 25.3503,-0.205 37.8839,-0.0294 2.3666,0.0331 4.7207,0.9516 7.3627,1.72817 -5.1562,4.89091 -10.5945,9.5152 -16.7107,13.98815 -5.1353,-0.36279 -9.5925,-0.57936 -14.0502,-0.78457 -7.2809,-0.33516 -14.562,-0.66291 -21.843,-0.99379 2.3597,-4.57345 4.7194,-9.14691 7.3573,-13.90851 z"
   id="path492" />
<path
   fill="#db58a6"
   opacity="1"
   stroke="none"
   d="m 735.43157,96.692763 c -9.62635,-0.12013 -18.99329,-0.44612 -28.35816,-0.82426 -2.1214,-0.0857 -4.23553,-0.35253 -6.70367,-0.75333 2.09906,-5.81218 4.54883,-11.407 7.59796,-16.98468 9.66882,0.2608 18.74048,0.44849 27.80652,0.78543 2.42444,0.0901 4.83197,0.63612 7.24725,0.97284 -2.44324,5.52643 -4.88653,11.05284 -7.5899,16.804 z"
   id="path494" />
<path
   fill="#db58a6"
   opacity="1"
   stroke="none"
   d="m 228.44255,95.943953 c -2.16314,-0.20964 -4.03915,-0.98277 -5.92453,-1.00642 -9.75409,-0.12239 -19.51056,-0.0531 -29.71246,-0.0515 2.22354,-5.90814 4.89334,-11.8154 7.86771,-17.90213 2.20443,0.17913 4.10119,0.82683 6.00482,0.84771 9.72397,0.10662 19.44964,0.0514 29.6272,0.0513 -2.22501,5.94673 -4.90247,11.89503 -7.86274,18.06111 z"
   id="path496" />
<path
   fill="#e0248c"
   opacity="1"
   stroke="none"
   d="m 518.06047,22.136399 c 1.56452,-1.330841 3.13489,-3.078903 4.75061,-3.121964 9.73487,-0.25943 19.48017,-0.128128 29.68738,-0.1268 3.07953,5.425949 5.69348,10.851105 7.87451,16.635698 -2.43261,0.35945 -4.4339,0.30511 -6.43151,0.36872 -9.63068,0.30673 -19.26038,0.64523 -28.89039,0.97247 -2.32128,-4.7858 -4.64251,-9.571622 -6.9906,-14.728124 z"
   id="path498" />
<path
   fill="#c65cb5"
   opacity="1"
   stroke="none"
   d="m 626.17937,177.43512 c -8.95313,0.38469 -18.03455,0.35907 -27.11377,0.48747 -2.44891,0.0346 -4.89123,0.53656 -7.75269,0.91304 -3.18347,-5.71446 -5.95074,-11.51794 -8.81323,-17.64984 11.5296,-0.49521 23.15436,-0.66204 35.1319,-1.03932 3.04193,5.50508 5.73114,11.22062 8.54779,17.28865 z"
   id="path500" />
<path
   fill="#da61ac"
   opacity="1"
   stroke="none"
   d="m 273.07054,111.41308 c -10.77667,0.45925 -21.45687,0.45987 -32.60693,0.45597 -0.52997,-6.0288 -0.59012,-12.053067 -0.082,-18.534517 11.23633,-0.45746 21.90433,-0.45778 32.57236,-0.45808 0.071,6.02601 0.142,12.052007 0.11654,18.536627 z"
   id="path502" />
<path
   fill="#974abd"
   opacity="1"
   stroke="none"
   d="m 239.8734,242.33606 c 10.80841,-0.45798 21.50833,-0.45804 32.67743,-0.45807 0.53482,6.0267 0.6004,12.05334 0.10455,18.54208 -11.26892,0.46189 -21.97641,0.46167 -32.68386,0.46146 -0.0689,-6.02921 -0.13773,-12.05838 -0.0981,-18.54547 z"
   id="path504" />
<path
   fill="#da5ca8"
   opacity="1"
   stroke="none"
   d="m 1054.9301,100.50323 c -11.3887,0.38686 -22.6417,0.39063 -34.3569,0.39945 0.6965,-5.742597 1.8554,-11.490237 3.6284,-17.621297 11.2848,-0.38754 21.9557,-0.39169 32.6266,-0.39582 -0.5874,5.74485 -1.1748,11.48973 -1.8981,17.617667 z"
   id="path506" />
<path
   fill="#e0268d"
   opacity="1"
   stroke="none"
   d="m 373.31215,22.326554 c 10.88773,-0.457901 21.69022,-0.452683 32.94141,-0.451767 0.50412,5.687134 0.55954,11.378566 0.0826,17.534476 -11.33457,0.45924 -22.13678,0.454 -32.93897,0.44875 -0.0568,-5.68945 -0.11352,-11.378894 -0.085,-17.531459 z"
   id="path508" />
<path
   fill="#e0268d"
   opacity="1"
   stroke="none"
   d="m 440.13521,20.35196 c 10.92935,-0.46444 21.78977,-0.466004 33.0975,-0.471756 0.5044,5.687248 0.56153,11.378689 0.0856,17.534279 -11.39222,0.4649 -22.25141,0.46565 -33.11054,0.46639 -0.0471,-5.68868 -0.0943,-11.377371 -0.0725,-17.528913 z"
   id="path510" />
<path
   fill="#844db9"
   opacity="1"
   stroke="none"
   d="m 306.56487,260.2854 c 10.87845,-0.43756 21.62262,-0.4213 32.82489,-0.40711 0.50244,5.68323 0.54678,11.36856 0.0798,17.53485 -11.29132,0.44687 -22.07129,0.41282 -32.85126,0.37876 -0.0626,-5.68424 -0.12515,-11.36847 -0.0534,-17.5065 z"
   id="path512" />
<path
   fill="#e0248c"
   opacity="1"
   stroke="none"
   d="m 9.709419,21.155274 c 11.733345,-0.645737 23.530548,-0.962708 35.793035,-1.285034 2.90261,5.113907 5.33995,10.233177 7.43544,15.680263 -9.92839,0.32978 -19.517064,0.2267 -29.099714,0.42105 -1.948944,0.0395 -3.875175,1.1992 -5.811882,1.8425 -2.751007,-5.44334 -5.502014,-10.886677 -8.316879,-16.658779 z"
   id="path514" />
<path
   fill="#8e4bbb"
   opacity="1"
   stroke="none"
   d="m 115.42128,248.18896 c 13.74167,-0.33005 27.57773,-0.32754 41.86475,-0.3269 -2.08782,5.45782 -4.62654,10.91751 -7.78476,16.69684 -9.16826,0.31866 -17.71704,0.31771 -26.26581,0.31674 -2.57324,-5.45136 -5.1465,-10.90274 -7.81418,-16.68668 z"
   id="path516" />
<path
   fill="#de4499"
   opacity="1"
   stroke="none"
   d="m 60.275314,50.758533 c 2.56655,5.45835 5.13309,10.9167 7.25889,16.74638 -4.26457,0.37294 -8.09187,0.27049 -11.91149,0.39795 -7.77746,0.25951 -15.55079,0.64299 -23.325824,0.97539 -2.403854,-5.09209 -4.807709,-10.18416 -6.857811,-15.79943 4.78627,-0.74795 9.219075,-0.96697 13.651235,-1.19878 7.0619,-0.36936 14.12335,-0.74724 21.185,-1.12151 z"
   id="path518" />
<path
   fill="#de4a9e"
   opacity="1"
   stroke="none"
   d="m 743.31133,79.695163 c -2.70514,-0.14312 -5.11267,-0.68915 -7.53711,-0.77924 -9.06604,-0.33694 -18.1377,-0.52463 -27.54547,-1.02869 1.92065,-5.32696 4.17956,-10.39357 7.0741,-15.69996 12.31304,0.0641 23.99041,0.36792 35.66778,0.67178 -2.45648,5.5475 -4.91296,11.095 -7.6593,16.83611 z"
   id="path520" />
<path
   fill="#de4499"
   opacity="1"
   stroke="none"
   d="m 567.80065,50.890273 c 2.38794,5.08264 4.77581,10.1653 6.71679,15.61968 -8.59729,0.37199 -16.75402,0.18611 -24.89483,0.46484 -3.22498,0.1104 -6.41455,1.25304 -9.62024,1.92569 -2.63379,-5.43291 -5.26764,-10.86581 -7.53211,-16.74535 2.3144,-0.72076 4.25763,-1.21565 6.20478,-1.23172 9.70794,-0.0802 19.41699,-0.0345 29.12561,-0.0331 z"
   id="path522" />
<path
   fill="#df3592"
   opacity="1"
   stroke="none"
   d="m 60.213544,50.394973 c -6.99988,0.73783 -14.06133,1.11571 -21.12323,1.48507 -4.43216,0.23181 -8.864965,0.45083 -13.682119,0.83364 -2.715423,-4.61185 -5.046219,-9.38175 -7.379448,-14.52565 1.934258,-1.01728 3.860489,-2.17695 5.809433,-2.21648 9.58265,-0.19435 19.171324,-0.0913 29.189614,-0.0991 2.66248,4.71572 4.89322,9.43736 7.18575,14.52256 z"
   id="path524" />
<path
   fill="#c65cb5"
   opacity="1"
   stroke="none"
   d="m 697.2827,178.66797 c -9.83093,0.21307 -19.38623,0.25579 -28.94049,0.17649 -1.94439,-0.0161 -3.88501,-0.49168 -6.23266,-0.92216 1.86261,-5.30167 4.13061,-10.4366 6.66577,-15.80304 5.03857,0.10001 9.80597,0.60857 14.58264,0.72066 6.81262,0.15986 13.63202,0.0291 20.89758,0.022 -1.93286,5.19721 -4.31488,10.39492 -6.97284,15.80607 z"
   id="path526" />
<path
   fill="#a24dbe"
   opacity="1"
   stroke="none"
   d="m 1265.9053,227.17169 c 11.2014,-0.29276 22.201,-0.29077 33.6715,-0.28943 -0.8829,5.10819 -2.2367,10.21701 -4.2296,15.65375 -10.7029,0.33331 -20.7686,0.44308 -30.8287,0.25021 -1.8587,-0.0356 -3.6936,-1.29437 -5.5396,-1.98862 2.2415,-4.44372 4.483,-8.88748 6.9264,-13.62591 z"
   id="path528" />
<path
   fill="#de4499"
   opacity="1"
   stroke="none"
   d="m 1014.0119,53.253343 c 9.8297,-0.35259 19.749,-0.31803 29.6672,-0.41097 2.1214,-0.0199 4.2384,-0.50216 6.7532,-0.86318 2.0769,5.30921 3.7581,10.7102 4.9341,16.50743 -11.4299,0.72685 -22.3547,1.05744 -33.2795,1.38804 -2.662,-5.42657 -5.3239,-10.85315 -8.075,-16.62132 z"
   id="path530" />
<path
   fill="#974abd"
   opacity="1"
   stroke="none"
   d="m 373.29577,239.32129 c 10.89889,-0.45905 21.70544,-0.45737 32.96099,-0.45679 0.50189,5.35846 0.55484,10.71799 0.53479,16.53918 -10.89145,0.46164 -21.7099,0.46164 -32.97369,0.45951 -0.50165,-5.36182 -0.55802,-10.72153 -0.52209,-16.5419 z"
   id="path532" />
<path
   fill="#de4499"
   opacity="1"
   stroke="none"
   d="m 406.70537,55.871083 c 0.0574,5.36438 0.11481,10.72874 -0.36413,16.55659 -11.33942,0.45918 -22.14258,0.45486 -32.94571,0.45056 -0.0592,-5.36175 -0.11844,-10.72352 0.3536,-16.54235 11.33957,-0.45964 22.14792,-0.46222 32.95624,-0.4648 z"
   id="path534" />
<path
   fill="#de4499"
   opacity="1"
   stroke="none"
   d="m 440.20076,71.876833 c -0.0465,-5.35712 -0.0931,-10.71424 0.38724,-16.53447 11.38422,-0.46459 22.24158,-0.46608 33.099,-0.46757 0.0578,5.3588 0.1156,10.7176 -0.36114,16.53954 -11.39808,0.46296 -22.2616,0.46273 -33.1251,0.4625 z"
   id="path536" />
<path
   fill="#df3592"
   opacity="1"
   stroke="none"
   d="m 473.77373,54.415433 c -10.94415,0.46085 -21.80151,0.46234 -33.11548,0.46389 -0.50207,-5.35744 -0.54764,-10.71493 -0.52185,-16.53543 10.93048,-0.46376 21.78967,-0.46451 33.09607,-0.46923 0.50757,5.35783 0.56781,10.71962 0.54126,16.54077 z"
   id="path538" />
<path
   fill="#df3c96"
   opacity="1"
   stroke="none"
   d="m 306.7451,58.858633 c -0.0874,-5.35326 -0.17489,-10.70653 0.29035,-16.51085 11.30463,-0.45216 22.05652,-0.45324 32.80841,-0.4543 0.0489,5.35666 0.0977,10.71332 -0.38428,16.53155 -11.2587,0.45225 -21.98657,0.44292 -32.71448,0.4336 z"
   id="path540" />
<path
   fill="#da61ac"
   opacity="1"
   stroke="none"
   d="m 339.91967,107.42431 c -10.82697,0.46543 -21.58078,0.46781 -32.75593,0.47409 -0.51211,-5.3625 -0.60284,-10.728937 -0.13751,-16.548337 11.31055,-0.45578 22.06504,-0.45857 32.81949,-0.46136 0.049,5.35751 0.0981,10.715027 0.074,16.535607 z"
   id="path542" />
<path
   fill="#de4a9e"
   opacity="1"
   stroke="none"
   d="m 306.61306,59.311553 c 10.85995,-0.4436 21.58782,-0.43427 32.77371,-0.42337 0.50683,5.36014 0.55566,10.71869 0.0738,16.53862 -11.25894,0.45212 -21.98715,0.44287 -32.71536,0.43361 -0.0881,-5.36531 -0.17612,-10.73062 -0.13211,-16.54886 z"
   id="path544" />
<path
   fill="#db58a6"
   opacity="1"
   stroke="none"
   d="m 373.30971,73.339543 c 10.88895,-0.45701 21.69211,-0.45269 32.94412,-0.45125 0.50543,5.35817 0.56198,10.71921 0.5315,16.5413 -10.89096,0.4617 -21.69492,0.46236 -32.94281,0.46262 -0.50214,-5.36405 -0.5604,-10.72769 -0.53281,-16.55267 z"
   id="path546" />
<path
   fill="#dc0f84"
   opacity="1"
   stroke="none"
   d="m 272.92305,13.425286 c -11.71313,0.457947 -23.35513,0.497726 -34.99627,0.416267 -2.29987,-0.01608 -4.5965,-0.498634 -7.28611,-0.861816 -0.38504,-0.261299 -0.42279,-0.444107 -0.36581,-0.589905 4.8317,-12.36808802 4.83218,-12.36618002 18.13596,-12.36029002 7.93466,0.0035 15.86932,6.48e-4 24.58367,6.48e-4 0,4.49452202 0,8.71447802 -0.0714,13.39509602 z"
   id="path548" />
<path
   fill="#7650b6"
   opacity="1"
   stroke="none"
   d="m 273.04219,276.88107 c 0,5.44678 0,10.89355 0,16.64651 -11.00244,0 -21.73968,0 -33.2865,0 0,-5.25018 0,-10.48858 0.57526,-16.18521 11.28726,-0.45926 21.99924,-0.46029 32.71124,-0.4613 z"
   id="path550" />
<path
   fill="#974abd"
   opacity="1"
   stroke="none"
   d="m 1258.6799,240.95019 c 2.145,0.54166 3.9799,1.80039 5.8386,1.83603 10.0601,0.19287 20.1258,0.0831 30.6311,0.0745 -1.8967,4.54242 -4.235,9.08796 -6.8596,13.81684 -2.2064,-0.14325 -4.1239,-0.73444 -6.0468,-0.75211 -10.2622,-0.0943 -20.5281,0.0629 -30.7868,-0.14795 -1.7952,-0.0369 -3.5629,-1.41226 -5.4037,-2.56262 4.0689,-4.2995 8.1985,-8.20581 12.6272,-12.26468 z"
   id="path552" />
<path
   fill="#dc4fa0"
   opacity="1"
   stroke="none"
   d="m 32.383812,69.214203 c 7.688112,-0.66835 15.461442,-1.05183 23.238902,-1.31134 3.81962,-0.12746 7.64692,-0.025 11.94072,-0.0285 2.773,4.75842 5.07601,9.51869 7.3978,14.64577 -11.61443,0.67354 -23.2476,0.98027 -35.28353,1.32385 -2.67082,-4.74003 -4.9389,-9.51695 -7.293892,-14.62982 z"
   id="path554" />
<path
   fill="#df3592"
   opacity="1"
   stroke="none"
   d="m 567.77593,50.535493 c -9.6839,0.3534 -19.39295,0.30774 -29.10089,0.38792 -1.94715,0.0161 -3.89038,0.51096 -6.24408,0.86805 -2.71448,-4.6775 -5.02033,-9.43796 -7.35303,-14.56269 9.60315,-0.69149 19.23285,-1.02999 28.86353,-1.33672 1.99761,-0.0636 3.9989,-0.009 6.45715,-0.0115 2.75653,4.76525 5.05456,9.53272 7.37732,14.65495 z"
   id="path556" />
<path
   fill="#dc4fa0"
   opacity="1"
   stroke="none"
   d="m 540.0139,69.273863 c 3.19416,-1.04603 6.38373,-2.18867 9.60871,-2.29907 8.14081,-0.27873 16.29754,-0.0928 24.91626,-0.0933 2.77765,4.75653 5.08697,9.51323 7.42755,14.6358 -9.61914,0.36546 -19.27069,0.29004 -28.91913,0.42969 -1.86926,0.0271 -3.72644,0.89366 -5.82898,1.68422 -2.55756,-4.45383 -4.87518,-9.21889 -7.20441,-14.35732 z"
   id="path558" />
<path
   fill="#de4499"
   opacity="1"
   stroke="none"
   d="m 1078.9809,51.208843 c 7.4591,0.0108 14.7402,0.33851 22.0211,0.67367 4.4577,0.20521 8.9149,0.42178 13.7177,0.87005 -1.8586,5.02522 -4.0627,9.81364 -6.9165,14.77417 -11.6333,-0.0988 -22.6166,-0.36981 -33.5999,-0.64078 1.5332,-5.11899 3.0664,-10.23799 4.7776,-15.67711 z"
   id="path560" />
<path
   fill="#dc4fa0"
   opacity="1"
   stroke="none"
   d="m 440.12963,72.340303 c 10.93463,-0.46324 21.79815,-0.46301 33.10956,-0.46617 0.50646,5.02862 0.56512,10.06062 0.53393,15.55143 -10.97363,0.78348 -21.85742,1.10816 -33.15533,1.4446 -0.46253,-5.34763 -0.51093,-10.707 -0.48816,-16.52986 z"
   id="path562" />
<path
   fill="#e02c8f"
   opacity="1"
   stroke="none"
   d="m 339.91603,41.430433 c -10.82406,0.46411 -21.57595,0.46519 -32.7485,0.46858 -0.50821,-5.03495 -0.59577,-10.07221 -0.13046,-15.558131 11.30432,-0.448975 22.05575,-0.44928 32.80722,-0.449577 0.048,5.025358 0.0959,10.050708 0.0717,15.539128 z"
   id="path564" />
<path
   fill="#df3592"
   opacity="1"
   stroke="none"
   d="m 406.79051,55.412533 c -10.89346,0.46113 -21.70181,0.46371 -32.9544,0.4624 -0.50083,-5.0333 -0.55737,-10.0627 -0.52643,-15.55451 10.88968,-0.45716 21.69189,-0.45192 32.94278,-0.45098 0.50687,5.02532 0.565,10.05494 0.53805,15.54309 z"
   id="path566" />
<path
   fill="#73489f"
   opacity="1"
   stroke="none"
   d="m 306.48937,278.24902 c 10.90887,-0.42306 21.68884,-0.38901 32.92853,-0.37173 0.45971,5.1033 0.45971,10.22335 0.45971,15.67544 -11.1066,0 -21.98578,0 -33.51715,0 0,-4.98212 0,-9.91433 0.12891,-15.30371 z"
   id="path568" />
<path
   fill="#844db9"
   opacity="1"
   stroke="none"
   d="m 273.13414,276.42193 c -10.80395,0.46015 -21.51593,0.46118 -32.69995,0.46204 -0.54022,-5.02985 -0.60846,-10.05957 -0.56967,-15.54587 10.81445,-0.45636 21.52194,-0.45614 32.69955,-0.45746 0.53409,5.02637 0.59806,10.05423 0.57007,15.54129 z"
   id="path570" />
<path
   fill="#df3c96"
   opacity="1"
   stroke="none"
   d="m 751.22173,62.620483 c -11.92847,-0.0653 -23.60584,-0.36914 -35.69605,-0.71042 1.594,-4.58937 3.60077,-9.14132 6.27546,-13.83916 9.08966,0.17257 17.51391,0.43791 25.93182,0.83731 3.09546,0.14686 6.17596,0.61052 9.26324,0.92968 -1.84106,4.18134 -3.68219,8.36268 -5.77447,12.78259 z"
   id="path572" />
<path
   fill="#c65cb5"
   opacity="1"
   stroke="none"
   d="m 77.387444,166.20636 c 11.51449,-0.64547 23.106956,-0.95099 35.112676,-1.29195 2.46802,4.30986 4.52279,8.65518 6.61849,13.35811 -1.86025,0.77353 -3.75706,1.52408 -5.66335,1.5489 -9.49714,0.12375 -18.996776,0.0567 -28.963386,0.0566 -2.65405,-4.444 -4.84024,-8.88786 -7.10443,-13.67166 z"
   id="path574" />
<path
   fill="#c65cb5"
   opacity="1"
   stroke="none"
   d="m 160.57558,163.78717 c 2.33435,0.55229 4.3674,1.9339 6.43457,1.98703 9.30687,0.23921 18.62343,0.10161 28.39566,0.10031 -1.60254,4.55766 -3.66431,9.11487 -6.02592,13.84994 -11.78116,-0.15913 -23.26246,-0.49612 -35.17931,-0.87759 1.73943,-4.97701 3.91441,-9.90953 6.375,-15.05969 z"
   id="path576" />
<path
   fill="#e11b89"
   opacity="1"
   stroke="none"
   d="m 339.91542,25.429055 c -10.8226,0.462547 -21.57403,0.462852 -32.74588,0.463341 -0.50927,-4.696633 -0.5982,-9.393456 -0.13891,-14.54271 11.30551,-0.453682 22.0628,-0.454933 32.8201,-0.456184 0.0453,4.691101 0.0905,9.382202 0.0647,14.535553 z"
   id="path578" />
<path
   fill="#db58a6"
   opacity="1"
   stroke="none"
   d="m 306.61168,76.311463 c 10.8617,-0.44179 21.58991,-0.43254 32.77622,-0.42133 0.50683,4.69301 0.55557,9.38405 0.53106,14.53684 -10.82769,0.46452 -21.58218,0.46731 -32.75808,0.47525 -0.50855,-4.70982 -0.59558,-9.42476 -0.5492,-14.59076 z"
   id="path580" />
<path
   fill="#ca60b8"
   opacity="1"
   stroke="none"
   d="m 339.91121,175.41095 c -10.82293,0.46298 -21.57916,0.46446 -32.75723,0.4667 -0.51437,-4.7109 -0.60696,-9.42256 -0.55841,-14.58371 10.8721,-0.4387 21.60312,-0.42792 32.79217,-0.41873 0.50211,4.69032 0.54615,9.38228 0.52347,14.53574 z"
   id="path582" />
<path
   fill="#dc4fa0"
   opacity="1"
   stroke="none"
   d="m 1074.1164,67.294893 c 11.0702,-0.13797 22.0535,0.13299 33.4431,0.48715 -0.2579,4.47778 -0.922,8.87239 -1.6639,13.68636 -10.8011,0.42189 -21.5243,0.42442 -32.664,0.43168 -0.012,-4.72893 0.3932,-9.46258 0.8848,-14.60519 z"
   id="path584" />
<path
   fill="#db58a6"
   opacity="1"
   stroke="none"
   d="m 273.04668,92.418823 c -10.76071,0.45793 -21.42871,0.45825 -32.56534,0.45612 -0.52316,-4.6973 -0.57776,-9.39218 -0.53894,-14.54657 10.74213,-0.45514 21.39084,-0.45079 32.50144,-0.44608 0.53973,4.69321 0.61761,9.38606 0.60284,14.53653 z"
   id="path586" />
<path
   fill="#df3592"
   opacity="1"
   stroke="none"
   d="m 757.26061,49.614323 c -3.35169,-0.0956 -6.43219,-0.55925 -9.52765,-0.70611 -8.41791,-0.3994 -16.84216,-0.66474 -25.69824,-1.08596 1.40411,-4.25781 3.24243,-8.41288 5.29089,-12.834 11.95404,0.12041 23.69806,0.50687 35.88831,0.88881 -1.59888,4.50154 -3.64386,9.00761 -5.95331,13.73726 z"
   id="path588" />
<path
   fill="#dc4fa0"
   opacity="1"
   stroke="none"
   d="m 1022.0759,70.288533 c 10.9358,-0.74447 21.8606,-1.07506 33.2385,-1.40667 0.8556,4.36638 1.2582,8.73377 1.5873,13.55243 -10.7444,0.4554 -21.4153,0.45955 -32.5648,0.4681 -1.0765,-4.06372 -1.6742,-8.13187 -2.261,-12.61386 z"
   id="path590" />
<path
   fill="#7e4fb8"
   opacity="1"
   stroke="none"
   d="m 123.30367,265.22265 c 8.48056,-0.34604 17.02934,-0.34509 26.03241,-0.34539 -3.76801,9.307 -7.9903,18.61529 -12.71808,29.03799 -4.71346,-10.0864 -8.97978,-19.21597 -13.31433,-28.6926 z"
   id="path592" />
<path
   fill="#7e4fb8"
   opacity="1"
   stroke="none"
   d="m 631.23455,266.22723 c 8.19116,-0.35251 16.42498,-0.35135 25.11389,-0.35174 -3.61658,8.93496 -7.68836,17.87139 -12.29218,27.97558 -4.60205,-9.82068 -8.69055,-18.54544 -12.82171,-27.62384 z"
   id="path594" />
<path
   fill="#dc0f84"
   opacity="1"
   stroke="none"
   d="m 339.92229,10.437638 c -10.82886,0.457115 -21.58615,0.458366 -32.76453,0.463745 -0.42108,-3.427078 -0.42108,-6.858284 -0.42108,-10.56897702 10.97397,0 21.70609,0 33.25714,0 0,3.18668302 0,6.41802202 -0.0715,10.10523202 z"
   id="path596" />
<path
   fill="#dc4fa0"
   opacity="1"
   stroke="none"
   d="M 37.772694,0.92443898 C 26.24385,1.248742 14.566185,1.125931 2.888222,1.079468 2.383194,1.077468 1.875366,1.778229 1.21743,2.515549 0.698623,2.056481 0.331245,1.233498 0,0.49147098 c 12.756622,0 25.190223,0 37.772694,0.432968 z"
   id="path598" />
<path
   fill="#dc4fa0"
   opacity="1"
   stroke="none"
   d="M 1.047813,3.08043 C 1.294975,3.03334 1.378212,3.266846 1.238914,3.659073 1.172634,3.774895 1.040146,3.318116 1.047813,3.08043 Z"
   id="path600" />
</svg>
