<svg version="1.1" id="Layer_1" xmlns="http://www.w3.org/2000/svg" xmlns:xlink="http://www.w3.org/1999/xlink" x="0px" y="0px"
	 width="100%" viewBox="0 0 1565 421" enable-background="new 0 0 1565 421" xml:space="preserve">
<path fill="#000000" opacity="1.000000" stroke="none" 
	d="
M1007.000000,422.000000 
	C671.375488,422.000000 336.250977,422.000000 1.063229,422.000000 
	C1.063229,281.726501 1.063229,141.452942 1.063229,1.089703 
	C522.666687,1.089703 1044.333374,1.089703 1565.964600,1.089703 
	C1565.964600,141.415802 1565.964600,281.707916 1565.964600,422.000000 
	C1379.786133,422.000000 1193.643066,422.000000 1007.000000,422.000000 
M67.028252,72.437073 
	C67.028252,72.437073 67.160744,72.893852 67.185333,73.615334 
	C70.001442,79.058708 72.817558,84.502090 75.761383,90.602989 
	C78.512390,96.046333 81.263397,101.489670 84.019295,107.680984 
	C86.350082,112.450890 88.680878,117.220787 91.073433,122.720970 
	C93.477287,127.813049 95.881142,132.905121 98.458832,138.669113 
	C100.726906,143.446030 102.994987,148.222946 105.426659,153.686981 
	C108.958290,161.104630 112.489922,168.522293 116.018494,176.692688 
	C121.956367,189.240097 127.894234,201.787491 133.912186,215.046295 
	C137.040649,221.692657 140.169098,228.339020 143.453552,235.665253 
	C145.639740,240.109116 147.825928,244.552979 150.046600,249.737808 
	C153.543976,257.204315 157.041351,264.670837 160.772430,272.850311 
	C164.974258,281.892975 169.176086,290.935669 173.569733,300.633728 
	C176.151489,306.080933 178.733246,311.528168 181.503815,317.640503 
	C184.077072,323.091858 186.650330,328.543243 189.359985,334.688629 
	C193.626328,343.818237 197.892654,352.947815 202.606110,363.034210 
	C207.333893,352.611511 211.556183,343.303223 216.108871,333.358185 
	C218.647598,327.898529 221.186325,322.438843 224.056122,316.340057 
	C226.595062,310.886932 229.134003,305.433807 232.027267,299.340393 
	C236.020126,290.560455 240.012985,281.780487 244.564209,272.588715 
	C248.065521,264.732910 251.566833,256.877106 255.667862,248.665543 
	C257.729614,244.108337 259.791382,239.551132 262.272827,234.419479 
	C265.091919,228.276428 267.911041,222.133377 271.058228,215.350769 
	C275.702728,205.220062 280.347229,195.089355 285.532501,184.525360 
	C288.404266,178.110474 291.276062,171.695572 294.713470,164.845139 
	C297.390930,158.896835 300.068390,152.948532 303.051697,146.434402 
	C303.793915,145.375015 304.536133,144.315628 305.592255,142.808212 
	C305.787140,144.695389 305.905518,145.841614 305.837128,147.906845 
	C305.891693,152.601715 305.946289,157.296600 305.801483,162.910660 
	C305.861603,168.934937 305.921753,174.959213 305.780060,181.904037 
	C305.845398,196.269760 305.910767,210.635498 305.757690,225.915787 
	C305.831757,232.280945 305.905823,238.646103 305.761047,245.924789 
	C305.832764,252.614609 305.904510,259.304443 305.766266,266.911987 
	C305.833557,274.605042 305.900879,282.298096 305.755676,290.909454 
	C305.827118,297.605347 305.898560,304.301208 305.753021,311.912903 
	C305.821899,317.942108 305.890747,323.971283 305.745636,330.913635 
	C305.813843,335.943359 305.882080,340.973083 305.743805,346.919586 
	C305.743805,352.157959 305.743805,357.396362 305.743805,362.646545 
	C317.290619,362.646545 328.027863,362.646545 339.030304,362.646545 
	C339.030304,356.893585 339.030304,351.446808 339.214203,345.081726 
	C339.150238,340.053833 339.086273,335.025970 339.204956,329.076935 
	C339.139343,323.050293 339.073761,317.023651 339.194855,310.076324 
	C339.133179,303.381836 339.071503,296.687378 339.202393,289.073639 
	C339.133514,281.380341 339.064636,273.687073 339.188751,265.075226 
	C339.121674,258.385651 339.054596,251.696091 339.176880,244.084885 
	C339.115662,237.722549 339.054443,231.360214 339.181671,224.077347 
	C339.108521,209.715118 339.035370,195.352875 339.155121,180.073441 
	C339.084106,174.047424 339.013123,168.021423 339.127472,161.080154 
	C339.049561,156.387314 338.971680,151.694458 339.056641,146.078629 
	C338.982605,140.720612 338.908569,135.362610 338.979706,129.078735 
	C338.931122,123.721077 338.882568,118.363419 338.977997,112.080956 
	C338.930145,107.055061 338.882294,102.029160 338.976135,96.082970 
	C338.930664,91.723618 338.885193,87.364265 338.982605,82.083572 
	C338.982605,77.863625 338.982605,73.643669 338.982605,69.149147 
	C330.268250,69.149147 322.333588,69.152016 314.398926,69.148499 
	C301.095154,69.142609 301.094666,69.140701 296.262970,81.508789 
	C296.205994,81.654587 296.243744,81.837395 295.908020,82.646378 
	C293.686890,87.430565 291.465759,92.214745 288.914368,97.646111 
	C286.622925,102.766335 284.331482,107.886559 281.529297,113.485001 
	C279.171417,118.658539 276.813507,123.832077 274.048981,129.635635 
	C271.687958,135.064865 269.326904,140.494110 266.356842,146.282288 
	C263.687012,152.189545 261.017212,158.096802 257.977905,164.635010 
	C255.243759,170.721725 252.509628,176.808456 249.200119,183.291290 
	C244.466827,193.860855 239.733536,204.430420 234.434540,215.417999 
	C231.906128,221.174835 229.377716,226.931671 226.278091,233.123749 
	C224.103104,238.056290 221.928116,242.988815 219.261642,248.397034 
	C215.733826,256.224060 212.206009,264.051117 208.205933,272.372284 
	C206.408707,276.210999 204.611481,280.049744 202.553391,284.445648 
	C200.217941,279.732758 198.271164,275.804199 196.163376,271.148560 
	C192.491470,263.348724 188.819565,255.548889 185.065781,247.033875 
	C183.011017,242.688553 180.956253,238.343231 178.845551,233.282715 
	C175.599976,226.509155 172.354416,219.735596 168.920746,212.269592 
	C167.215576,208.650146 165.499420,205.035828 163.807404,201.410233 
	C159.537491,192.260773 155.278442,183.106247 150.976089,173.209641 
	C147.640091,166.141739 144.304092,159.073853 140.930573,151.272324 
	C138.627548,146.512054 136.324539,141.751785 133.963058,136.252533 
	C131.396515,130.794189 128.829971,125.335838 126.139862,119.150368 
	C123.909119,114.428726 121.678383,109.707085 119.267845,104.341637 
	C116.830505,99.222374 114.393173,94.103104 111.925453,88.249077 
	C109.253525,82.324837 106.581596,76.400597 103.611938,69.610428 
	C91.178329,69.610428 78.744728,69.610428 65.988106,69.610428 
	C66.319351,70.352455 66.686729,71.175438 67.038841,71.982933 
	C67.038841,71.982933 67.043587,71.961700 67.028252,72.437073 
M405.981934,79.100723 
	C405.981934,75.869385 405.981934,72.638046 405.981934,69.451363 
	C394.430878,69.451363 383.698761,69.451363 372.724792,69.451363 
	C372.724792,73.162056 372.724792,76.593262 372.470520,80.921082 
	C372.559448,85.617897 372.648376,90.314720 372.472321,95.908501 
	C372.559875,100.945763 372.647430,105.983017 372.470856,111.917809 
	C372.558319,117.271065 372.645782,122.624329 372.469086,128.883438 
	C372.557159,134.248749 372.645203,139.614059 372.466339,145.881470 
	C372.553406,150.596420 372.640442,155.311356 372.458282,160.921982 
	C372.549011,166.288422 372.639740,171.654861 372.459442,177.918976 
	C372.543579,186.878067 372.627716,195.837173 372.438171,205.725525 
	C372.533722,213.804810 372.629242,221.884109 372.442535,230.862411 
	C372.535126,235.574051 372.627716,240.285706 372.436218,245.893677 
	C372.529236,251.932602 372.622253,257.971527 372.443298,264.909027 
	C372.530548,272.260132 372.617767,279.611267 372.434448,287.869415 
	C372.523712,294.897308 372.613007,301.925171 372.427856,309.859772 
	C372.514313,316.223358 372.600800,322.586945 372.418671,329.858154 
	C372.481232,335.542389 372.543823,341.226624 372.348572,347.825134 
	C372.348572,352.757355 372.348572,357.689575 372.348572,362.671692 
	C383.879944,362.671692 394.759125,362.671692 405.865723,362.671692 
	C405.865723,357.219604 405.865723,352.099548 405.968994,346.051147 
	C405.924652,340.365814 405.880310,334.680481 405.962311,328.066467 
	C405.919556,321.707306 405.876770,315.348145 405.964203,308.061218 
	C405.921600,301.038696 405.878998,294.016174 405.971252,286.065826 
	C405.925171,278.710632 405.879089,271.355469 405.971191,263.072449 
	C405.925018,257.045441 405.878845,251.018417 405.966003,244.068405 
	C405.921997,239.376450 405.877960,234.684494 405.972076,229.065216 
	C405.928436,220.709656 405.884796,212.354095 405.982361,203.070831 
	C405.933105,194.382660 405.883850,185.694504 405.980988,176.080200 
	C405.931946,170.722687 405.882874,165.365173 405.980316,159.084183 
	C405.931580,154.393143 405.882843,149.702103 405.979370,144.084396 
	C405.930542,138.725830 405.881714,133.367279 405.978485,127.082420 
	C405.929657,121.725761 405.880829,116.369095 405.976318,110.086334 
	C405.928345,105.060974 405.880371,100.035622 405.974670,94.085762 
	C405.929382,89.394661 405.884094,84.703560 405.981934,79.100723 
M823.513123,118.509712 
	C825.558167,114.003632 827.603149,109.497559 830.097473,104.271385 
	C832.111023,103.848457 834.124207,103.057846 836.138184,103.055885 
	C902.233032,102.991386 968.328186,103.088318 1034.422607,102.910324 
	C1044.356934,102.883575 1053.904053,103.834442 1063.457642,108.477814 
	C1068.942017,112.995438 1074.426392,117.513069 1080.089233,122.713875 
	C1082.751099,128.140472 1085.412964,133.567047 1088.052856,139.821350 
	C1088.650757,143.889481 1089.248535,147.957626 1089.575684,152.783752 
	C1088.416748,158.531403 1087.257812,164.279037 1085.627930,170.547531 
	C1081.091919,176.701126 1076.555908,182.854721 1071.369751,189.222061 
	C1061.892944,196.826324 1050.916382,199.738510 1038.951904,199.719681 
	C1014.493286,199.681229 990.034607,199.708618 965.575928,199.708878 
	C963.801025,199.708893 962.026123,199.708862 959.278992,199.708862 
	C963.375732,208.377716 967.087524,216.231949 970.913086,224.820236 
	C973.947021,231.213303 976.980896,237.606369 980.041260,244.740189 
	C983.773071,252.823380 987.504822,260.906586 991.363037,269.682709 
	C996.036987,279.777466 1000.710938,289.872192 1005.581116,300.625580 
	C1009.078857,308.080414 1012.576599,315.535217 1016.139893,323.711578 
	C1017.900208,327.470062 1019.660583,331.228546 1021.599304,335.642426 
	C1023.525940,339.755310 1025.452515,343.868195 1027.569824,348.638855 
	C1028.779419,351.357941 1030.218384,354.001312 1031.147217,356.813141 
	C1032.697021,361.505554 1035.319946,363.132294 1040.596191,363.117645 
	C1121.169067,362.894348 1201.743042,363.010010 1282.316406,362.876923 
	C1289.252441,362.865448 1296.290161,362.191833 1303.096436,360.874176 
	C1312.862549,358.983490 1322.247314,355.737274 1330.743774,348.977203 
	C1335.670288,344.903931 1340.596680,340.830688 1346.044800,336.316589 
	C1348.693848,332.871002 1351.342773,329.425415 1354.564453,325.613159 
	C1356.902710,321.067627 1359.240967,316.522095 1361.974365,311.327087 
	C1363.328247,306.218231 1364.682007,301.109406 1366.116089,295.186127 
	C1366.351929,286.790680 1366.587769,278.395264 1366.898315,269.204651 
	C1364.723389,262.098083 1362.548462,254.991516 1360.179443,247.154053 
	C1359.300293,245.338440 1358.653076,243.356613 1357.495117,241.740799 
	C1354.822876,238.012329 1351.903076,234.461411 1349.053833,230.133850 
	C1348.149536,228.784225 1347.407959,227.283737 1346.316650,226.107620 
	C1329.701050,208.199661 1309.040283,199.534271 1284.721924,199.495148 
	C1265.738770,199.464615 1246.753418,199.467148 1227.773071,199.735260 
	C1217.520874,199.880066 1207.546753,199.004669 1197.693115,194.179230 
	C1186.874756,188.736572 1179.963745,179.762695 1174.947754,168.256577 
	C1173.900391,162.506622 1172.853027,156.756668 1171.961548,150.167999 
	C1172.625610,145.773392 1173.289673,141.378784 1174.441040,136.473572 
	C1176.645142,131.685165 1178.849243,126.896744 1181.718140,121.937370 
	C1187.156494,117.313087 1192.594849,112.688797 1198.785767,107.978012 
	C1206.611572,104.513885 1214.701660,102.904869 1223.360107,102.917343 
	C1316.818359,103.052017 1410.276978,103.001358 1503.735474,103.001358 
	C1505.854736,103.001358 1507.973999,103.001358 1510.110474,103.001358 
	C1510.110474,99.263123 1510.110474,96.121536 1510.341919,92.091988 
	C1510.269165,88.738533 1510.196411,85.385086 1510.364868,81.265350 
	C1510.364868,77.342125 1510.364868,73.418892 1510.364868,69.412346 
	C1508.425903,69.300728 1507.272949,69.176331 1506.119873,69.176239 
	C1410.986694,69.168655 1315.853516,69.087852 1220.720581,69.262741 
	C1206.680664,69.288544 1193.149414,72.387619 1180.301758,80.088715 
	C1174.730591,84.337196 1169.159302,88.585686 1163.010376,93.126083 
	C1159.601074,97.387733 1156.191772,101.649384 1152.226196,106.287315 
	C1149.866455,110.860771 1147.506836,115.434227 1144.791016,120.647926 
	C1143.257812,125.766922 1141.724609,130.885925 1140.017700,136.822800 
	C1139.612915,141.556458 1139.208008,146.290115 1138.495728,151.798904 
	C1139.363647,158.198181 1140.231689,164.597443 1141.052979,171.772949 
	C1144.868164,180.228790 1148.683350,188.684631 1152.776123,197.795486 
	C1169.316528,220.827606 1191.563354,232.834244 1220.115479,233.021561 
	C1245.748413,233.189682 1271.379761,233.630585 1297.534912,234.457642 
	C1307.450439,236.991867 1315.707153,242.253662 1322.949463,250.278748 
	C1326.347900,256.851685 1329.746338,263.424622 1333.053589,270.846252 
	C1334.996948,279.315674 1333.970215,287.671967 1331.691528,296.585358 
	C1329.449951,301.029083 1327.208496,305.472839 1324.368774,310.221680 
	C1320.239258,314.128021 1316.109741,318.034332 1311.277588,322.091400 
	C1302.338379,327.271637 1292.812256,329.372559 1282.383789,329.342102 
	C1209.931396,329.130402 1137.477905,329.141479 1065.025635,329.389099 
	C1058.789429,329.410370 1054.458496,328.447968 1052.589111,321.308472 
	C1049.052246,313.881653 1045.515503,306.454865 1041.792847,298.330536 
	C1036.911865,287.793365 1032.031006,277.256226 1027.044922,266.013062 
	C1023.412598,258.326019 1019.780273,250.638947 1016.048767,242.222824 
	C1014.759033,239.251282 1013.469299,236.279739 1012.030823,232.965347 
	C1024.030396,232.965347 1035.474609,233.168182 1046.908203,232.903641 
	C1056.749268,232.675964 1066.160522,230.270844 1075.710083,225.764130 
	C1077.181396,224.877777 1078.601196,223.888748 1080.132080,223.121048 
	C1094.061157,216.135727 1104.686890,205.779129 1112.602173,191.653763 
	C1115.328979,184.437592 1118.055664,177.221436 1121.053955,169.239105 
	C1121.641479,163.494247 1122.228882,157.749374 1122.963257,151.101974 
	C1122.560669,146.734589 1122.158081,142.367203 1121.859741,137.209335 
	C1120.178467,131.808350 1118.497314,126.407364 1116.847534,120.284111 
	C1113.907593,115.170242 1110.967651,110.056374 1107.899414,104.267418 
	C1102.655396,98.816010 1097.411377,93.364609 1091.837646,87.314789 
	C1077.153442,75.321159 1060.082520,69.356285 1041.371704,69.291527 
	C965.293457,69.028214 889.213745,69.192383 813.134644,69.118965 
	C810.480469,69.116402 808.982849,69.729942 807.913147,72.330383 
	C805.593811,77.968719 802.893860,83.450523 799.997131,89.647499 
	C797.839355,94.378716 795.681519,99.109940 793.103638,104.373260 
	C791.265259,108.528328 789.426941,112.683395 787.121338,117.335754 
	C785.114563,121.887703 783.107788,126.439651 780.655273,131.546021 
	C778.396423,136.612625 776.137512,141.679230 773.356445,147.232300 
	C770.906677,152.827133 768.456909,158.421951 765.458557,164.440186 
	C761.965027,172.290955 758.471436,180.141708 754.401978,188.384613 
	C747.944824,202.591995 741.487610,216.799377 734.496338,231.469711 
	C732.228271,236.604660 729.960266,241.739594 727.171631,247.322098 
	C724.123413,254.217514 721.075195,261.112915 717.469727,268.436737 
	C715.129944,273.460693 712.790100,278.484619 710.044312,284.380341 
	C707.030273,278.279694 704.493896,273.145813 701.898193,267.294098 
	C698.697144,260.498230 695.496033,253.702377 692.040039,246.201614 
	C689.350830,240.486053 686.661621,234.770508 683.808716,228.345337 
	C683.216309,227.572876 682.446716,226.880112 682.058228,226.015961 
	C676.667786,214.026367 671.329529,202.013290 665.916504,189.278885 
	C662.655701,182.417603 659.394897,175.556335 656.067078,167.981277 
	C653.373352,162.321548 650.679565,156.661804 647.923218,150.270370 
	C645.613953,145.513657 643.304626,140.756958 640.952515,135.257172 
	C638.564575,130.174530 636.176697,125.091873 633.739258,119.299675 
	C631.441284,114.532219 629.143250,109.764755 626.794067,104.282852 
	C624.180054,98.857697 621.566101,93.432541 618.910645,87.275436 
	C616.574829,82.180817 614.323608,77.044334 611.839172,72.023270 
	C611.272461,70.877922 609.913147,69.339172 608.896362,69.322273 
	C597.392883,69.131027 585.885132,69.201042 573.508057,69.201042 
	C577.294800,77.010872 580.658264,83.947784 584.075378,91.626045 
	C586.396667,96.411858 588.717896,101.197678 591.092896,106.711998 
	C593.398743,111.472458 595.704590,116.232918 598.088989,121.720718 
	C600.722839,127.153625 603.356689,132.586533 606.013550,138.766190 
	C608.331238,143.531250 610.648865,148.296310 613.007629,153.802444 
	C615.566162,159.228928 618.124756,164.655411 620.835754,170.812302 
	C623.992920,177.541000 627.150085,184.269699 630.455200,191.669983 
	C636.434326,204.438766 642.413452,217.207550 648.583008,230.633148 
	C651.350281,236.436646 654.117554,242.240128 657.031860,248.759277 
	C660.233521,255.543686 663.435181,262.328094 666.822083,269.837372 
	C670.778809,278.271301 674.735596,286.705200 678.874756,295.857452 
	C682.016235,302.564331 685.157715,309.271210 688.477661,316.650360 
	C691.378479,322.764404 694.279236,328.878479 697.265320,335.699829 
	C701.353821,344.424591 705.442322,353.149353 710.044373,362.970032 
	C714.648193,352.865845 718.719971,343.929413 723.113525,334.354523 
	C725.968750,328.228180 728.824036,322.101807 732.024231,315.331329 
	C735.151367,308.269836 738.278442,301.208374 741.973206,293.782349 
	C745.932556,285.186310 749.891907,276.590271 754.295898,267.431976 
	C757.195557,260.954773 760.095154,254.477570 763.546814,247.573471 
	C765.928772,242.375778 768.310791,237.178070 771.026978,231.335342 
	C777.348511,217.549469 783.670044,203.763611 790.527954,189.536865 
	C794.071838,181.703415 797.615723,173.869949 801.679749,165.586975 
	C804.123047,160.060562 806.566345,154.534149 809.589233,148.620514 
	C812.045776,143.073013 814.502258,137.525513 817.460999,131.500870 
	C819.302124,127.319534 821.143250,123.138191 823.513123,118.509712 
M539.848572,123.075043 
	C539.788391,117.713242 539.728149,112.351448 539.839417,106.069275 
	C539.782349,100.377846 539.725220,94.686409 539.841919,88.073372 
	C539.841919,81.958351 539.841919,75.843323 539.841919,69.456451 
	C528.391113,69.456451 517.486816,69.456451 506.192291,69.456451 
	C506.192291,76.121727 506.192291,82.564888 506.054352,89.933777 
	C506.101532,95.622459 506.148712,101.311150 506.053162,107.925858 
	C506.098724,113.283348 506.144287,118.640839 506.049316,124.924431 
	C506.095825,130.281555 506.142334,135.638672 506.046570,141.922729 
	C506.094971,147.282120 506.143372,152.641495 506.052216,158.928802 
	C506.099701,166.287598 506.147217,173.646378 506.050049,181.931915 
	C506.098724,196.616653 506.147369,211.301376 506.039978,226.913681 
	C506.092346,233.271439 506.144714,239.629196 506.039612,246.914124 
	C506.089691,254.608932 506.139740,262.303741 506.042847,270.925812 
	C506.091278,280.612915 506.139740,290.300049 506.037262,300.915527 
	C506.086426,308.270813 506.135559,315.626068 506.032013,323.868134 
	C505.959167,325.477112 505.886322,327.086090 505.802277,328.942261 
	C494.829651,328.942261 484.154053,328.942261 473.244141,328.942261 
	C473.050934,327.519440 472.878815,326.251831 472.852692,324.061005 
	C472.799713,318.701447 472.746765,313.341919 472.847076,307.058746 
	C472.796082,300.036499 472.745087,293.014221 472.853638,285.068298 
	C472.798218,278.378052 472.742798,271.687805 472.851532,264.073639 
	C472.797882,257.377869 472.744232,250.682098 472.847931,243.062714 
	C472.797760,235.703400 472.747620,228.344070 472.858246,220.061768 
	C472.801117,206.042053 472.743988,192.022339 472.861206,177.080658 
	C472.802948,171.056976 472.744690,165.033279 472.860474,158.087494 
	C472.803925,152.726456 472.747375,147.365417 472.865662,141.083160 
	C472.808289,135.718781 472.750885,130.354416 472.863739,124.072952 
	C472.805573,119.043343 472.747437,114.013725 472.856628,108.063744 
	C472.801208,102.372314 472.745789,96.680878 472.859863,90.067459 
	C472.859863,83.176888 472.859863,76.286316 472.859863,69.631973 
	C461.127777,69.631973 450.267303,69.631973 439.385529,69.631973 
	C439.385529,77.052696 439.385529,84.017548 439.214996,91.908623 
	C439.271759,97.598076 439.328522,103.287521 439.210297,109.901779 
	C439.266846,114.931190 439.323395,119.960594 439.205963,125.911911 
	C439.265198,131.273666 439.324432,136.635437 439.212006,142.919815 
	C439.270233,148.283478 439.328491,153.647125 439.208740,159.930649 
	C439.266968,165.955566 439.325226,171.980469 439.203949,178.926407 
	C439.260986,192.944824 439.318024,206.963257 439.185822,221.904297 
	C439.251068,229.263977 439.316315,236.623642 439.191071,244.904556 
	C439.255249,251.602219 439.319427,258.299866 439.202179,265.918884 
	C439.260162,272.610352 439.318176,279.301788 439.194122,286.915192 
	C439.254822,293.936646 439.315491,300.958099 439.191589,308.900940 
	C439.247955,314.260620 439.304321,319.620331 439.178650,325.898834 
	C439.239929,330.595062 439.301239,335.291321 439.194611,340.897430 
	C439.251953,344.590424 439.309296,348.283386 439.191772,352.883057 
	C439.191772,356.138916 439.191772,359.394775 439.191772,362.614655 
	C517.223755,362.614655 594.516724,362.614655 672.680054,362.614655 
	C670.560913,358.339355 668.744934,354.675720 666.874756,350.290039 
	C664.998047,346.371582 663.121399,342.453094 660.720764,338.057678 
	C660.313721,337.362152 659.583435,336.681732 659.550110,335.968719 
	C659.235901,329.248230 654.891785,329.099213 649.625244,329.123932 
	C615.043091,329.286316 580.459839,329.207672 545.876953,329.207642 
	C543.958862,329.207642 542.040710,329.207611 540.167847,329.207611 
	C539.958618,326.943604 539.821350,325.458649 539.830383,323.050568 
	C539.780640,315.360016 539.730896,307.669464 539.837341,299.056122 
	C539.784058,289.701569 539.730774,280.346985 539.841675,270.069427 
	C539.784302,262.041656 539.726990,254.013885 539.828735,245.062851 
	C539.775757,238.702469 539.722778,232.342102 539.835022,225.059875 
	C539.779907,210.374222 539.724792,195.688553 539.847961,180.081039 
	C539.789124,172.388474 539.730225,164.695892 539.851074,156.085709 
	C539.792419,151.053711 539.733765,146.021713 539.848511,140.070145 
	C539.790710,134.711349 539.732910,129.352554 539.848572,123.075043 
M1378.172119,352.916290 
	C1371.680664,356.279327 1365.189087,359.642334 1359.406494,362.638062 
	C1409.056274,362.638062 1459.557861,362.638062 1510.558472,362.638062 
	C1510.410400,359.843750 1510.281006,357.400818 1510.364624,354.061981 
	C1510.296875,350.373932 1510.229004,346.685852 1510.387085,342.088654 
	C1510.387085,337.985321 1510.387085,333.881989 1510.387085,329.901764 
	C1509.361816,329.571991 1508.898804,329.293091 1508.435547,329.292572 
	C1472.516968,329.251923 1436.598511,329.213440 1400.680176,329.298737 
	C1399.487061,329.301575 1397.920410,330.297760 1397.174316,331.308228 
	C1394.628052,334.756805 1392.371094,338.418976 1389.412109,342.306580 
	C1385.884155,345.753143 1382.356201,349.199677 1378.172119,352.916290 
M1391.574341,222.585327 
	C1392.791870,224.361832 1394.339844,225.998978 1395.159424,227.943222 
	C1396.981812,232.265930 1400.052734,233.126007 1404.511841,233.100174 
	C1437.935059,232.906631 1471.359985,232.994827 1504.784302,232.994812 
	C1506.565552,232.994812 1508.346924,232.994797 1510.124878,232.994797 
	C1510.124878,228.604294 1510.124878,224.804062 1510.363403,220.092178 
	C1510.363403,213.483994 1510.363403,206.875793 1510.363403,200.109253 
	C1459.937378,200.109253 1409.955811,200.109253 1359.974365,200.109253 
	C1373.120728,203.732346 1382.830811,211.968201 1391.574341,222.585327 
M988.806335,345.278687 
	C987.118713,341.502258 985.277771,337.785065 983.788757,333.931854 
	C982.438110,330.436493 980.509094,329.070435 976.441650,329.084290 
	C923.346252,329.265167 870.250000,329.204407 817.153992,329.204407 
	C815.527832,329.204407 813.901672,329.204407 811.930664,329.204407 
	C811.930664,335.138672 811.930664,340.576416 811.724792,346.929749 
	C811.724792,352.170288 811.724792,357.410858 811.724792,362.618561 
	C873.712036,362.618561 934.868225,362.618561 996.750671,362.618561 
	C993.956421,356.708801 991.423035,351.350891 988.806335,345.278687 
M850.500000,232.989822 
	C879.319275,232.989822 908.138550,232.989822 937.708374,232.989822 
	C933.120728,222.772507 928.793884,213.535095 924.847778,204.137802 
	C923.405823,200.703934 921.514160,199.594055 917.787292,199.611343 
	C884.172852,199.767380 850.557312,199.699265 816.942139,199.713074 
	C815.333252,199.713730 813.724426,199.866104 811.943970,199.956543 
	C811.943970,211.043579 811.943970,221.773026 811.943970,232.989822 
	C824.623718,232.989822 837.061829,232.989822 850.500000,232.989822 
z"/>
<path fill="#D06AB9" opacity="1.000000" stroke="none" 
	d="
M1198.099731,194.699936 
	C1207.546753,199.004669 1217.520874,199.880066 1227.773071,199.735260 
	C1246.753418,199.467148 1265.738770,199.464615 1284.721924,199.495148 
	C1309.040283,199.534271 1329.701050,208.199661 1346.316650,226.107620 
	C1347.407959,227.283737 1348.149536,228.784225 1348.725464,230.731583 
	C1346.447021,231.553436 1344.497925,231.963058 1342.546875,231.971710 
	C1329.470093,232.029648 1316.391968,231.916000 1303.317139,232.089767 
	C1301.207520,232.117813 1299.113159,233.301651 1297.011719,233.951172 
	C1271.379761,233.630585 1245.748413,233.189682 1220.115479,233.021561 
	C1191.563354,232.834244 1169.316528,220.827606 1153.139160,197.440521 
	C1166.561401,197.055847 1179.622070,197.114380 1192.678101,196.894958 
	C1194.497070,196.864380 1196.293091,195.465439 1198.099731,194.699936 
z"/>
<path fill="#DE1486" opacity="1.000000" stroke="none" 
	d="
M800.349609,88.996338 
	C802.893860,83.450523 805.593811,77.968719 807.913147,72.330383 
	C808.982849,69.729942 810.480469,69.116402 813.134644,69.118965 
	C889.213745,69.192383 965.293457,69.028214 1041.371704,69.291527 
	C1060.082520,69.356285 1077.153442,75.321159 1091.607910,87.781601 
	C1088.914185,88.498627 1086.450073,88.966675 1083.985840,88.967621 
	C989.440430,89.003822 894.895020,88.997238 800.349609,88.996338 
z"/>
<path fill="#E0248C" opacity="1.000000" stroke="none" 
	d="
M800.173340,89.321915 
	C894.895020,88.997238 989.440430,89.003822 1083.985840,88.967621 
	C1086.450073,88.966675 1088.914185,88.498627 1091.772949,88.080811 
	C1097.411377,93.364609 1102.655396,98.816010 1107.615845,104.833694 
	C1105.373413,105.599861 1103.415527,105.962517 1101.455688,105.972626 
	C1090.517334,106.029015 1079.577026,105.907616 1068.641479,106.088539 
	C1066.751099,106.119820 1064.879883,107.309372 1062.999878,107.963921 
	C1053.904053,103.834442 1044.356934,102.883575 1034.422607,102.910324 
	C968.328186,103.088318 902.233032,102.991386 836.138184,103.055885 
	C834.124207,103.057846 832.111023,103.848457 829.426636,104.635963 
	C817.011780,104.614082 805.267761,104.227623 793.523743,103.841156 
	C795.681519,99.109940 797.839355,94.378716 800.173340,89.321915 
z"/>
<path fill="#7450B5" opacity="1.000000" stroke="none" 
	d="
M1330.046875,349.111633 
	C1322.247314,355.737274 1312.862549,358.983490 1303.096436,360.874176 
	C1296.290161,362.191833 1289.252441,362.865448 1282.316406,362.876923 
	C1201.743042,363.010010 1121.169067,362.894348 1040.596191,363.117645 
	C1035.319946,363.132294 1032.697021,361.505554 1031.147217,356.813141 
	C1030.218384,354.001312 1028.779419,351.357941 1027.918579,348.311646 
	C1126.446899,347.989624 1224.626587,347.986908 1322.806152,348.046509 
	C1325.219971,348.047974 1327.633301,348.741119 1330.046875,349.111633 
z"/>
<path fill="#DC0F84" opacity="1.000000" stroke="none" 
	d="
M1180.998291,79.994522 
	C1193.149414,72.387619 1206.680664,69.288544 1220.720581,69.262741 
	C1315.853516,69.087852 1410.986694,69.168655 1506.119873,69.176239 
	C1507.272949,69.176331 1508.425903,69.300728 1510.364868,69.412346 
	C1510.364868,73.418892 1510.364868,77.342125 1509.767578,81.642021 
	C1506.504761,82.011948 1503.839233,81.999344 1501.173828,81.999321 
	C1397.054199,81.998314 1292.934448,82.013000 1188.814941,81.914581 
	C1186.208740,81.912117 1183.603760,80.662483 1180.998291,79.994522 
z"/>
<path fill="#844DB9" opacity="1.000000" stroke="none" 
	d="
M1330.395264,349.044434 
	C1327.633301,348.741119 1325.219971,348.047974 1322.806152,348.046509 
	C1224.626587,347.986908 1126.446899,347.989624 1027.823242,347.982758 
	C1025.452515,343.868195 1023.525940,339.755310 1021.951538,335.316162 
	C1024.302002,334.993286 1026.300171,334.999542 1028.298340,334.999573 
	C1131.371704,335.000061 1234.445068,334.986816 1337.518311,335.073578 
	C1340.187134,335.075836 1342.854980,336.171631 1345.523193,336.757446 
	C1340.596680,340.830688 1335.670288,344.903931 1330.395264,349.044434 
z"/>
<path fill="#D06AB9" opacity="1.000000" stroke="none" 
	d="
M850.000000,232.989822 
	C837.061829,232.989822 824.623718,232.989822 811.943970,232.989822 
	C811.943970,221.773026 811.943970,211.043579 811.943970,199.956543 
	C813.724426,199.866104 815.333252,199.713730 816.942139,199.713074 
	C850.557312,199.699265 884.172852,199.767380 917.787292,199.611343 
	C921.514160,199.594055 923.405823,200.703934 924.847778,204.137802 
	C928.793884,213.535095 933.120728,222.772507 937.708374,232.989822 
	C908.138550,232.989822 879.319275,232.989822 850.000000,232.989822 
z"/>
<path fill="#E11B89" opacity="1.000000" stroke="none" 
	d="
M1180.650024,80.041611 
	C1183.603760,80.662483 1186.208740,81.912117 1188.814941,81.914581 
	C1292.934448,82.013000 1397.054199,81.998314 1501.173828,81.999321 
	C1503.839233,81.999344 1506.504761,82.011948 1509.646851,82.025162 
	C1510.196411,85.385086 1510.269165,88.738533 1509.750244,92.541954 
	C1395.964478,92.994606 1282.770508,92.998138 1169.576538,92.993065 
	C1167.580444,92.992973 1165.584229,92.889450 1163.588135,92.834183 
	C1169.159302,88.585686 1174.730591,84.337196 1180.650024,80.041611 
z"/>
<path fill="#E0268D" opacity="1.000000" stroke="none" 
	d="
M1163.299316,92.980133 
	C1165.584229,92.889450 1167.580444,92.992973 1169.576538,92.993065 
	C1282.770508,92.998138 1395.964478,92.994606 1509.634521,92.985931 
	C1510.110474,96.121536 1510.110474,99.263123 1510.110474,103.001358 
	C1507.973999,103.001358 1505.854736,103.001358 1503.735474,103.001358 
	C1410.276978,103.001358 1316.818359,103.052017 1223.360107,102.917343 
	C1214.701660,102.904869 1206.611572,104.513885 1198.127319,107.754639 
	C1195.109009,107.021324 1192.754883,106.102867 1190.388306,106.069717 
	C1177.854736,105.894165 1165.318115,105.941154 1152.782471,105.911026 
	C1156.191772,101.649384 1159.601074,97.387733 1163.299316,92.980133 
z"/>
<path fill="#D36CB9" opacity="1.000000" stroke="none" 
	d="
M1112.013428,192.031204 
	C1104.686890,205.779129 1094.061157,216.135727 1080.132080,223.121048 
	C1078.601196,223.888748 1077.181396,224.877777 1075.168457,225.468597 
	C1073.081177,224.783600 1071.535645,224.056183 1069.989502,224.054398 
	C1036.926147,224.016022 1003.862671,224.059006 970.799255,224.086182 
	C967.087524,216.231949 963.375732,208.377716 959.278992,199.708862 
	C962.026123,199.708862 963.801025,199.708893 965.575928,199.708878 
	C990.034607,199.708618 1014.493286,199.681229 1038.951904,199.719681 
	C1050.916382,199.738510 1061.892944,196.826324 1072.078247,189.274902 
	C1074.569580,189.551361 1076.351318,189.955811 1078.135620,189.968277 
	C1087.519043,190.033890 1096.905640,189.889252 1106.285156,190.093460 
	C1108.207764,190.135300 1110.104614,191.354614 1112.013428,192.031204 
z"/>
<path fill="#7650B6" opacity="1.000000" stroke="none" 
	d="
M988.889709,345.992981 
	C991.423035,351.350891 993.956421,356.708801 996.750671,362.618561 
	C934.868225,362.618561 873.712036,362.618561 811.724792,362.618561 
	C811.724792,357.410858 811.724792,352.170288 812.300903,346.469910 
	C871.547974,346.004364 930.218811,345.998688 988.889709,345.992981 
z"/>
<path fill="#844BB6" opacity="1.000000" stroke="none" 
	d="
M988.848022,345.635834 
	C930.218811,345.998688 871.547974,346.004364 812.403870,346.012115 
	C811.930664,340.576416 811.930664,335.138672 811.930664,329.204407 
	C813.901672,329.204407 815.527832,329.204407 817.153992,329.204407 
	C870.250000,329.204407 923.346252,329.265167 976.441650,329.084290 
	C980.509094,329.070435 982.438110,330.436493 983.788757,333.931854 
	C985.277771,337.785065 987.118713,341.502258 988.848022,345.635834 
z"/>
<path fill="#D36CB9" opacity="1.000000" stroke="none" 
	d="
M1391.319824,221.986328 
	C1382.830811,211.968201 1373.120728,203.732346 1359.974365,200.109253 
	C1409.955811,200.109253 1459.937378,200.109253 1510.363403,200.109253 
	C1510.363403,206.875793 1510.363403,213.483994 1509.767334,220.547241 
	C1472.681519,221.001572 1436.192017,220.979294 1399.702515,221.042694 
	C1396.907715,221.047562 1394.114014,221.657593 1391.319824,221.986328 
z"/>
<path fill="#894AB5" opacity="1.000000" stroke="none" 
	d="
M439.362549,339.987549 
	C439.301239,335.291321 439.239929,330.595062 439.714966,325.441559 
	C451.069763,324.984283 461.888214,324.984283 472.706665,324.984253 
	C472.878815,326.251831 473.050934,327.519440 473.244141,328.942261 
	C484.154053,328.942261 494.829651,328.942261 505.802277,328.942261 
	C505.886322,327.086090 505.959167,325.477112 506.522827,323.440735 
	C517.903809,323.333496 528.793945,323.653595 539.684143,323.973694 
	C539.821350,325.458649 539.958618,326.943604 540.167847,329.207611 
	C542.040710,329.207611 543.958862,329.207642 545.876953,329.207642 
	C580.459839,329.207672 615.043091,329.286316 649.625244,329.123932 
	C654.891785,329.099213 659.235901,329.248230 659.550110,335.968719 
	C659.583435,336.681732 660.313721,337.362152 660.648987,338.585632 
	C658.469177,339.408966 656.361267,339.961334 654.253113,339.962555 
	C582.622925,340.003265 510.992706,339.991608 439.362549,339.987549 
z"/>
<path fill="#7E4FB8" opacity="1.000000" stroke="none" 
	d="
M439.278564,340.442505 
	C510.992706,339.991608 582.622925,340.003265 654.253113,339.962555 
	C656.361267,339.961334 658.469177,339.408966 660.911011,338.824097 
	C663.121399,342.453094 664.998047,346.371582 666.486877,350.682678 
	C663.464355,351.383453 660.829773,351.959198 658.195007,351.960663 
	C585.252197,352.001587 512.309387,351.984131 439.366608,351.976379 
	C439.309296,348.283386 439.251953,344.590424 439.278564,340.442505 
z"/>
<path fill="#7450B2" opacity="1.000000" stroke="none" 
	d="
M439.279175,352.429718 
	C512.309387,351.984131 585.252197,352.001587 658.195007,351.960663 
	C660.829773,351.959198 663.464355,351.383453 666.513977,351.043732 
	C668.744934,354.675720 670.560913,358.339355 672.680054,362.614655 
	C594.516724,362.614655 517.223755,362.614655 439.191772,362.614655 
	C439.191772,359.394775 439.191772,356.138916 439.279175,352.429718 
z"/>
<path fill="#8E4BBB" opacity="1.000000" stroke="none" 
	d="
M1345.783936,336.536987 
	C1342.854980,336.171631 1340.187134,335.075836 1337.518311,335.073578 
	C1234.445068,334.986816 1131.371704,335.000061 1028.298340,334.999573 
	C1026.300171,334.999542 1024.302002,334.993286 1021.862427,334.988464 
	C1019.660583,331.228546 1017.900208,327.470062 1016.510864,323.264130 
	C1019.016785,322.544739 1021.149841,322.056976 1023.287048,322.037811 
	C1033.110229,321.949554 1042.934448,321.992218 1052.758301,321.987915 
	C1054.458496,328.447968 1058.789429,329.410370 1065.025635,329.389099 
	C1137.477905,329.141479 1209.931396,329.130402 1282.383789,329.342102 
	C1292.812256,329.372559 1302.338379,327.271637 1311.689453,322.409180 
	C1313.881592,323.484192 1315.649292,324.859558 1317.444458,324.896454 
	C1327.703247,325.107269 1337.969116,324.950073 1348.231323,325.044403 
	C1350.154175,325.062073 1352.071655,325.653259 1353.991699,325.979858 
	C1351.342773,329.425415 1348.693848,332.871002 1345.783936,336.536987 
z"/>
<path fill="#AE50BD" opacity="1.000000" stroke="none" 
	d="
M244.005844,273.000549 
	C240.012985,281.780487 236.020126,290.560455 231.452026,299.622070 
	C211.710495,299.928589 192.544205,299.953461 173.377914,299.978333 
	C169.176086,290.935669 164.974258,281.892975 161.155136,272.466705 
	C173.133362,272.013947 184.728867,271.944794 196.324387,271.875641 
	C198.271164,275.804199 200.217941,279.732758 202.553391,284.445648 
	C204.611481,280.049744 206.408707,276.210999 208.930908,272.150848 
	C218.706253,271.952545 227.757645,271.908478 236.806335,272.043854 
	C239.210403,272.079803 241.606232,272.666626 244.005844,273.000549 
z"/>
<path fill="#B150BB" opacity="1.000000" stroke="none" 
	d="
M701.957520,268.011902 
	C704.493896,273.145813 707.030273,278.279694 710.044312,284.380341 
	C712.790100,278.484619 715.129944,273.460693 718.215271,268.220856 
	C730.590942,268.001373 742.221069,267.997803 753.851196,267.994202 
	C749.891907,276.590271 745.932556,285.186310 741.194580,293.935486 
	C721.780396,294.061035 703.144714,293.999939 684.509338,294.055817 
	C682.569275,294.061646 680.631348,294.761353 678.692383,295.139099 
	C674.735596,286.705200 670.778809,278.271301 667.173096,269.425995 
	C679.001892,268.680359 690.479675,268.346130 701.957520,268.011902 
z"/>
<path fill="#844BB6" opacity="1.000000" stroke="none" 
	d="
M1390.003662,341.999634 
	C1392.371094,338.418976 1394.628052,334.756805 1397.174316,331.308228 
	C1397.920410,330.297760 1399.487061,329.301575 1400.680176,329.298737 
	C1436.598511,329.213440 1472.516968,329.251923 1508.435547,329.292572 
	C1508.898804,329.293091 1509.361816,329.571991 1510.387085,329.901764 
	C1510.387085,333.881989 1510.387085,337.985321 1509.794434,342.543701 
	C1472.082397,342.998749 1434.963257,343.018860 1397.844116,342.955780 
	C1395.230103,342.951324 1392.617065,342.332672 1390.003662,341.999634 
z"/>
<path fill="#D16AB8" opacity="1.000000" stroke="none" 
	d="
M789.991516,189.977753 
	C783.670044,203.763611 777.348511,217.549469 770.410767,231.658356 
	C762.978088,231.987976 756.158691,232.118744 749.346069,231.958878 
	C744.569397,231.846786 739.802002,231.338226 735.030457,231.006744 
	C741.487610,216.799377 747.944824,202.591995 755.100342,188.274384 
	C764.263855,188.443176 772.731567,188.664474 781.192871,189.032669 
	C784.133850,189.160675 787.059082,189.652222 789.991516,189.977753 
z"/>
<path fill="#D56BB8" opacity="1.000000" stroke="none" 
	d="
M506.196014,225.986115 
	C506.147369,211.301376 506.098724,196.616653 506.578674,181.467728 
	C517.961426,181.003326 528.815552,181.003113 539.669678,181.002899 
	C539.724792,195.688553 539.779907,210.374222 539.304810,225.521149 
	C527.915100,225.983658 517.055542,225.984879 506.196014,225.986115 
z"/>
<path fill="#7E4FB8" opacity="1.000000" stroke="none" 
	d="
M1389.707886,342.153107 
	C1392.617065,342.332672 1395.230103,342.951324 1397.844116,342.955780 
	C1434.963257,343.018860 1472.082397,342.998749 1509.681396,342.998260 
	C1510.229004,346.685852 1510.296875,350.373932 1509.779541,354.518433 
	C1468.329590,354.981903 1427.464844,355.031647 1386.600586,354.895081 
	C1384.007324,354.886444 1381.418945,353.429413 1378.828247,352.646240 
	C1382.356201,349.199677 1385.884155,345.753143 1389.707886,342.153107 
z"/>
<path fill="#D56BB5" opacity="1.000000" stroke="none" 
	d="
M472.686829,178.002625 
	C472.743988,192.022339 472.801117,206.042053 472.328491,220.524536 
	C460.990845,220.985443 450.182922,220.983551 439.375031,220.981674 
	C439.318024,206.963257 439.260986,192.944824 439.737854,178.466934 
	C451.076813,178.005859 461.881805,178.004242 472.686829,178.002625 
z"/>
<path fill="#D56BB8" opacity="1.000000" stroke="none" 
	d="
M305.976105,225.001221 
	C305.910767,210.635498 305.845398,196.269760 306.350830,181.448288 
	C317.601776,180.991913 328.281982,180.991287 338.962219,180.990646 
	C339.035370,195.352875 339.108521,209.715118 338.619232,224.538452 
	C327.363220,225.000122 316.669678,225.000671 305.976105,225.001221 
z"/>
<path fill="#D16AB8" opacity="1.000000" stroke="none" 
	d="
M648.392578,229.976349 
	C642.413452,217.207550 636.434326,204.438766 630.830322,191.334900 
	C633.198547,190.999893 635.193481,191.055054 637.184509,190.990616 
	C646.783081,190.680069 656.380676,190.337280 665.978516,190.005920 
	C671.329529,202.013290 676.667786,214.026367 682.058228,226.015961 
	C682.446716,226.880112 683.216309,227.572876 683.537842,228.910614 
	C671.642151,229.642715 660.017395,229.809540 648.392578,229.976349 
z"/>
<path fill="#D56BB5" opacity="1.000000" stroke="none" 
	d="
M133.832108,214.334900 
	C127.894234,201.787491 121.956367,189.240097 116.374023,176.107758 
	C126.091507,175.347244 135.455032,175.225998 144.814178,174.953995 
	C146.889069,174.893692 148.948502,174.301193 151.015045,173.953751 
	C155.278442,183.106247 159.537491,192.260773 163.807404,201.410233 
	C165.499420,205.035828 167.215576,208.650146 168.539337,212.624664 
	C158.750549,212.987244 149.342010,212.918228 139.936752,213.062561 
	C137.895828,213.093887 135.866684,213.890686 133.832108,214.334900 
z"/>
<path fill="#CD66BA" opacity="1.000000" stroke="none" 
	d="
M1391.447021,222.285828 
	C1394.114014,221.657593 1396.907715,221.047562 1399.702515,221.042694 
	C1436.192017,220.979294 1472.681519,221.001572 1509.647949,221.003067 
	C1510.124878,224.804062 1510.124878,228.604294 1510.124878,232.994797 
	C1508.346924,232.994797 1506.565552,232.994812 1504.784302,232.994812 
	C1471.359985,232.994827 1437.935059,232.906631 1404.511841,233.100174 
	C1400.052734,233.126007 1396.981812,232.265930 1395.159424,227.943222 
	C1394.339844,225.998978 1392.791870,224.361832 1391.447021,222.285828 
z"/>
<path fill="#CA60B8" opacity="1.000000" stroke="none" 
	d="
M970.856201,224.453217 
	C1003.862671,224.059006 1036.926147,224.016022 1069.989502,224.054398 
	C1071.535645,224.056183 1073.081177,224.783600 1074.814697,225.504547 
	C1066.160522,230.270844 1056.749268,232.675964 1046.908203,232.903641 
	C1035.474609,233.168182 1024.030396,232.965347 1012.030823,232.965347 
	C1013.469299,236.279739 1014.759033,239.251282 1015.703125,242.748535 
	C1013.558411,243.516708 1011.760681,243.956680 1009.960022,243.968872 
	C999.978699,244.036545 989.996643,244.000168 980.014832,243.999420 
	C976.980896,237.606369 973.947021,231.213303 970.856201,224.453217 
z"/>
<path fill="#D56BB8" opacity="1.000000" stroke="none" 
	d="
M284.991730,184.958649 
	C280.347229,195.089355 275.702728,205.220062 270.442719,215.671524 
	C260.451965,215.995361 251.076050,216.061172 241.702042,215.955734 
	C239.464798,215.930573 237.234009,215.333847 235.000244,214.999985 
	C239.733536,204.430420 244.466827,193.860855 249.969757,183.114990 
	C260.214050,182.958405 269.691162,182.870514 279.161377,183.086136 
	C281.118042,183.130707 283.048950,184.305023 284.991730,184.958649 
z"/>
<path fill="#B150BB" opacity="1.000000" stroke="none" 
	d="
M1027.150024,266.719055 
	C1032.031006,277.256226 1036.911865,287.793365 1041.534668,298.894043 
	C1029.312622,299.627350 1017.348694,299.797150 1005.384888,299.966919 
	C1000.710938,289.872192 996.036987,279.777466 991.703979,269.299316 
	C1001.548950,268.610535 1011.055847,268.370514 1020.554810,267.951202 
	C1022.767029,267.853516 1024.952393,267.145996 1027.150024,266.719055 
z"/>
<path fill="#A24DBE" opacity="1.000000" stroke="none" 
	d="
M678.783569,295.498291 
	C680.631348,294.761353 682.569275,294.061646 684.509338,294.055817 
	C703.144714,293.999939 721.780396,294.061035 740.910767,294.117767 
	C738.278442,301.208374 735.151367,308.269836 731.403809,315.656006 
	C716.621948,315.979797 702.460571,315.978943 688.299194,315.978088 
	C685.157715,309.271210 682.016235,302.564331 678.783569,295.498291 
z"/>
<path fill="#DE4A9E" opacity="1.000000" stroke="none" 
	d="
M266.965881,145.923340 
	C269.326904,140.494110 271.687958,135.064865 274.641235,129.366272 
	C278.022339,129.397644 280.810120,129.946762 283.600250,129.958847 
	C302.011414,130.038544 320.423065,130.002747 338.834564,130.004593 
	C338.908569,135.362610 338.982605,140.720612 338.513367,146.539764 
	C327.321350,146.996536 316.672638,146.992188 306.023895,146.987823 
	C305.905518,145.841614 305.787140,144.695389 305.592255,142.808212 
	C304.536133,144.315628 303.793915,145.375015 302.446320,146.718872 
	C292.115845,147.001938 282.390167,147.057144 272.666199,146.950516 
	C270.762573,146.929642 268.865814,146.281937 266.965881,145.923340 
z"/>
<path fill="#7450B2" opacity="1.000000" stroke="none" 
	d="
M1378.500244,352.781250 
	C1381.418945,353.429413 1384.007324,354.886444 1386.600586,354.895081 
	C1427.464844,355.031647 1468.329590,354.981903 1509.672974,354.966400 
	C1510.281006,357.400818 1510.410400,359.843750 1510.558472,362.638062 
	C1459.557861,362.638062 1409.056274,362.638062 1359.406494,362.638062 
	C1365.189087,359.642334 1371.680664,356.279327 1378.500244,352.781250 
z"/>
<path fill="#D867B1" opacity="1.000000" stroke="none" 
	d="
M1197.896484,194.439575 
	C1196.293091,195.465439 1194.497070,196.864380 1192.678101,196.894958 
	C1179.622070,197.114380 1166.561401,197.055847 1153.000488,197.113007 
	C1148.683350,188.684631 1144.868164,180.228790 1141.478271,171.296402 
	C1149.341431,170.546158 1156.782104,170.330444 1164.215820,169.973770 
	C1167.810547,169.801300 1171.392578,169.364105 1174.980347,169.046783 
	C1179.963745,179.762695 1186.874756,188.736572 1197.896484,194.439575 
z"/>
<path fill="#DF3C96" opacity="1.000000" stroke="none" 
	d="
M338.907135,129.541656 
	C320.423065,130.002747 302.011414,130.038544 283.600250,129.958847 
	C280.810120,129.946762 278.022339,129.397644 274.844543,129.051270 
	C276.813507,123.832077 279.171417,118.658539 282.250671,113.244812 
	C301.592712,113.004997 320.213348,113.005379 338.834015,113.005760 
	C338.882568,118.363419 338.931122,123.721077 338.907135,129.541656 
z"/>
<path fill="#AE50BD" opacity="1.000000" stroke="none" 
	d="
M506.188171,299.987152 
	C506.139740,290.300049 506.091278,280.612915 506.523590,270.499329 
	C517.895386,270.379364 528.786499,270.685913 539.677490,270.992432 
	C539.730774,280.346985 539.784058,289.701569 539.311035,299.519684 
	C527.919250,299.984558 517.053711,299.985870 506.188171,299.987152 
z"/>
<path fill="#D56BB5" opacity="1.000000" stroke="none" 
	d="
M372.711853,204.796265 
	C372.627716,195.837173 372.543579,186.878067 373.016327,177.466217 
	C384.326996,177.011078 395.080811,177.008698 405.834595,177.006332 
	C405.883850,185.694504 405.933105,194.382660 405.453186,203.535248 
	C400.777130,203.999985 396.627594,203.906174 392.483917,204.022141 
	C385.891174,204.206680 379.302338,204.531052 372.711853,204.796265 
z"/>
<path fill="#A24DBE" opacity="1.000000" stroke="none" 
	d="
M173.473816,300.306030 
	C192.544205,299.953461 211.710495,299.928589 231.274872,299.942200 
	C229.134003,305.433807 226.595062,310.886932 223.439667,316.661469 
	C208.987122,316.980377 195.151062,316.977875 181.314987,316.975372 
	C178.733246,311.528168 176.151489,306.080933 173.473816,300.306030 
z"/>
<path fill="#C052B4" opacity="1.000000" stroke="none" 
	d="
M1027.097412,266.366089 
	C1024.952393,267.145996 1022.767029,267.853516 1020.554810,267.951202 
	C1011.055847,268.370514 1001.548950,268.610535 991.640747,268.952820 
	C987.504822,260.906586 983.773071,252.823380 980.028076,244.369812 
	C989.996643,244.000168 999.978699,244.036545 1009.960022,243.968872 
	C1011.760681,243.956680 1013.558411,243.516708 1015.752686,243.113068 
	C1019.780273,250.638947 1023.412598,258.326019 1027.097412,266.366089 
z"/>
<path fill="#AE50BD" opacity="1.000000" stroke="none" 
	d="
M1366.823608,269.999817 
	C1366.587769,278.395264 1366.351929,286.790680 1365.604980,295.593994 
	C1354.094360,295.999878 1343.094849,295.997894 1332.095337,295.995911 
	C1333.970215,287.671967 1334.996948,279.315674 1333.558594,270.422913 
	C1344.983643,269.999634 1355.903687,269.999725 1366.823608,269.999817 
z"/>
<path fill="#D06AB9" opacity="1.000000" stroke="none" 
	d="
M372.575012,205.260895 
	C379.302338,204.531052 385.891174,204.206680 392.483917,204.022141 
	C396.627594,203.906174 400.777130,203.999985 405.382599,203.999115 
	C405.884796,212.354095 405.928436,220.709656 405.444946,229.530502 
	C394.186798,229.984985 383.455780,229.974197 372.724792,229.963394 
	C372.629242,221.884109 372.533722,213.804810 372.575012,205.260895 
z"/>
<path fill="#D867B1" opacity="1.000000" stroke="none" 
	d="
M790.259766,189.757294 
	C787.059082,189.652222 784.133850,189.160675 781.192871,189.032669 
	C772.731567,188.664474 764.263855,188.443176 755.388306,188.078308 
	C758.471436,180.141708 761.965027,172.290955 766.083557,164.445831 
	C768.825989,164.634933 770.940125,164.901794 773.061523,164.987457 
	C782.426392,165.365601 791.793335,165.691589 801.159546,166.036469 
	C797.615723,173.869949 794.071838,181.703415 790.259766,189.757294 
z"/>
<path fill="#E02C8F" opacity="1.000000" stroke="none" 
	d="
M338.906006,112.543358 
	C320.213348,113.005379 301.592712,113.004997 282.506042,113.005707 
	C284.331482,107.886559 286.622925,102.766335 289.532410,97.323822 
	C306.378448,97.002106 322.606476,97.002686 338.834473,97.003265 
	C338.882294,102.029160 338.930145,107.055061 338.906006,112.543358 
z"/>
<path fill="#BD51B4" opacity="1.000000" stroke="none" 
	d="
M244.285034,272.794617 
	C241.606232,272.666626 239.210403,272.079803 236.806335,272.043854 
	C227.757645,271.908478 218.706253,271.952545 209.167038,271.903778 
	C212.206009,264.051117 215.733826,256.224060 219.942947,248.203674 
	C232.105545,248.347290 243.586838,248.684280 255.068146,249.021271 
	C251.566833,256.877106 248.065521,264.732910 244.285034,272.794617 
z"/>
<path fill="#DA5CA8" opacity="1.000000" stroke="none" 
	d="
M150.995575,173.581696 
	C148.948502,174.301193 146.889069,174.893692 144.814178,174.953995 
	C135.455032,175.225998 126.091507,175.347244 116.375549,175.731384 
	C112.489922,168.522293 108.958290,161.104630 105.747604,153.306549 
	C117.701736,152.619400 129.334915,152.312668 140.968109,152.005951 
	C144.304092,159.073853 147.640091,166.141739 150.995575,173.581696 
z"/>
<path fill="#BD51B4" opacity="1.000000" stroke="none" 
	d="
M539.759644,270.530945 
	C528.786499,270.685913 517.895386,270.379364 506.597046,270.035675 
	C506.139740,262.303741 506.089691,254.608932 506.574432,246.451904 
	C517.962708,245.988510 528.816223,245.987305 539.669678,245.986115 
	C539.726990,254.013885 539.784302,262.041656 539.759644,270.530945 
z"/>
<path fill="#BD51B4" opacity="1.000000" stroke="none" 
	d="
M196.243881,271.512085 
	C184.728867,271.944794 173.133362,272.013947 161.038284,272.110229 
	C157.041351,264.670837 153.543976,257.204315 150.497223,249.367462 
	C160.446594,248.997040 169.946228,249.064133 179.443375,248.940384 
	C181.349655,248.915558 183.246475,248.165009 185.147659,247.749054 
	C188.819565,255.548889 192.491470,263.348724 196.243881,271.512085 
z"/>
<path fill="#9D4BBD" opacity="1.000000" stroke="none" 
	d="
M1005.482971,300.296265 
	C1017.348694,299.797150 1029.312622,299.627350 1041.627563,299.242798 
	C1045.515503,306.454865 1049.052246,313.881653 1052.673706,321.648193 
	C1042.934448,321.992218 1033.110229,321.949554 1023.287048,322.037811 
	C1021.149841,322.056976 1019.016785,322.544739 1016.478088,322.903381 
	C1012.576599,315.535217 1009.078857,308.080414 1005.482971,300.296265 
z"/>
<path fill="#9D4BBD" opacity="1.000000" stroke="none" 
	d="
M506.112732,300.451355 
	C517.053711,299.985870 527.919250,299.984558 539.232910,299.981079 
	C539.730896,307.669464 539.780640,315.360016 539.757263,323.512146 
	C528.793945,323.653595 517.903809,323.333496 506.599152,322.997375 
	C506.135559,315.626068 506.086426,308.270813 506.112732,300.451355 
z"/>
<path fill="#DA61AC" opacity="1.000000" stroke="none" 
	d="
M539.758789,180.541962 
	C528.815552,181.003113 517.961426,181.003326 506.651001,181.004364 
	C506.147217,173.646378 506.099701,166.287598 506.536133,158.453079 
	C517.903809,157.652679 528.787598,157.328003 539.671387,157.003326 
	C539.730225,164.695892 539.789124,172.388474 539.758789,180.541962 
z"/>
<path fill="#CD66BA" opacity="1.000000" stroke="none" 
	d="
M133.872147,214.690598 
	C135.866684,213.890686 137.895828,213.093887 139.936752,213.062561 
	C149.342010,212.918228 158.750549,212.987244 168.633392,212.970886 
	C172.354416,219.735596 175.599976,226.509155 178.460266,233.675766 
	C166.482513,234.374329 154.890045,234.679855 143.297562,234.985382 
	C140.169098,228.339020 137.040649,221.692657 133.872147,214.690598 
z"/>
<path fill="#BD51B4" opacity="1.000000" stroke="none" 
	d="
M1366.860962,269.602234 
	C1355.903687,269.999725 1344.983643,269.999634 1333.604248,269.998535 
	C1329.746338,263.424622 1326.347900,256.851685 1323.114624,249.676849 
	C1325.358521,248.716919 1327.433228,248.077438 1329.516479,248.048431 
	C1339.800903,247.905197 1350.087646,247.923569 1360.373535,247.884949 
	C1362.548462,254.991516 1364.723389,262.098083 1366.860962,269.602234 
z"/>
<path fill="#B450BB" opacity="1.000000" stroke="none" 
	d="
M338.995789,265.993774 
	C339.064636,273.687073 339.133514,281.380341 338.636780,289.534790 
	C327.370178,289.994354 316.669189,289.992767 305.968170,289.991150 
	C305.900879,282.298096 305.833557,274.605042 306.341492,266.454620 
	C317.609711,265.996094 328.302765,265.994934 338.995789,265.993774 
z"/>
<path fill="#CA60B8" opacity="1.000000" stroke="none" 
	d="
M439.280426,221.442993 
	C450.182922,220.983551 460.990845,220.985443 472.248108,220.986038 
	C472.747620,228.344070 472.797760,235.703400 472.320374,243.523834 
	C460.989105,243.984421 450.185333,243.983871 439.381592,243.983322 
	C439.316315,236.623642 439.251068,229.263977 439.280426,221.442993 
z"/>
<path fill="#B450BB" opacity="1.000000" stroke="none" 
	d="
M405.832977,264.000275 
	C405.879089,271.355469 405.925171,278.710632 405.445618,286.531281 
	C394.181671,286.985260 383.443359,286.973816 372.705017,286.962372 
	C372.617767,279.611267 372.530548,272.260132 373.001221,264.457428 
	C384.317108,264.003998 395.075043,264.002136 405.832977,264.000275 
z"/>
<path fill="#D867B1" opacity="1.000000" stroke="none" 
	d="
M1112.307861,191.842484 
	C1110.104614,191.354614 1108.207764,190.135300 1106.285156,190.093460 
	C1096.905640,189.889252 1087.519043,190.033890 1078.135620,189.968277 
	C1076.351318,189.955811 1074.569580,189.551361 1072.403320,189.168030 
	C1076.555908,182.854721 1081.091919,176.701126 1086.325684,170.282043 
	C1098.276489,170.012817 1109.529541,170.009048 1120.782471,170.005280 
	C1118.055664,177.221436 1115.328979,184.437592 1112.307861,191.842484 
z"/>
<path fill="#D867B1" opacity="1.000000" stroke="none" 
	d="
M665.947510,189.642395 
	C656.380676,190.337280 646.783081,190.680069 637.184509,190.990616 
	C635.193481,191.055054 633.198547,190.999893 630.756348,190.999115 
	C627.150085,184.269699 623.992920,177.541000 621.248962,170.431091 
	C631.106995,170.032730 640.552979,170.090149 649.995728,169.939728 
	C652.047974,169.907059 654.088318,169.129517 656.134155,168.695038 
	C659.394897,175.556335 662.655701,182.417603 665.947510,189.642395 
z"/>
<path fill="#BD51B4" opacity="1.000000" stroke="none" 
	d="
M701.927856,267.653015 
	C690.479675,268.346130 679.001892,268.680359 667.080444,269.063538 
	C663.435181,262.328094 660.233521,255.543686 657.374512,248.312408 
	C660.162476,247.578110 662.604797,247.076172 665.053711,247.041550 
	C674.132935,246.913147 683.214355,246.938766 692.294922,246.906525 
	C695.496033,253.702377 698.697144,260.498230 701.927856,267.653015 
z"/>
<path fill="#C65CB5" opacity="1.000000" stroke="none" 
	d="
M1360.276489,247.519501 
	C1350.087646,247.923569 1339.800903,247.905197 1329.516479,248.048431 
	C1327.433228,248.077438 1325.358521,248.716919 1322.952759,249.395508 
	C1315.707153,242.253662 1307.450439,236.991867 1297.273315,234.204422 
	C1299.113159,233.301651 1301.207520,232.117813 1303.317139,232.089767 
	C1316.391968,231.916000 1329.470093,232.029648 1342.546875,231.971710 
	C1344.497925,231.963058 1346.447021,231.553436 1348.740479,231.083893 
	C1351.903076,234.461411 1354.822876,238.012329 1357.495117,241.740799 
	C1358.653076,243.356613 1359.300293,245.338440 1360.276489,247.519501 
z"/>
<path fill="#A74FBF" opacity="1.000000" stroke="none" 
	d="
M439.376190,307.979553 
	C439.315491,300.958099 439.254822,293.936646 439.729614,286.454132 
	C451.074768,285.992706 461.884430,285.992340 472.694092,285.991974 
	C472.745087,293.014221 472.796082,300.036499 472.321472,307.521667 
	C460.989319,307.982880 450.182770,307.981201 439.376190,307.979553 
z"/>
<path fill="#A74FBF" opacity="1.000000" stroke="none" 
	d="
M372.569733,287.415894 
	C383.443359,286.973816 394.181671,286.985260 405.378235,286.995178 
	C405.878998,294.016174 405.921600,301.038696 405.441101,308.527710 
	C394.179413,308.980499 383.440857,308.966797 372.702301,308.953064 
	C372.613007,301.925171 372.523712,294.897308 372.569733,287.415894 
z"/>
<path fill="#DE1486" opacity="1.000000" stroke="none" 
	d="
M439.385529,90.982391 
	C439.385529,84.017548 439.385529,77.052696 439.385529,69.631973 
	C450.267303,69.631973 461.127777,69.631973 472.859863,69.631973 
	C472.859863,76.286316 472.859863,83.176888 472.326416,90.532745 
	C460.990479,90.992828 450.187988,90.987610 439.385529,90.982391 
z"/>
<path fill="#BD51B4" opacity="1.000000" stroke="none" 
	d="
M754.073547,267.713074 
	C742.221069,267.997803 730.590942,268.001373 718.493896,268.006653 
	C721.075195,261.112915 724.123413,254.217514 727.837280,247.265045 
	C730.445312,247.471741 732.385925,247.947281 734.330322,247.963425 
	C743.884583,248.042725 753.439880,248.000000 762.994751,248.000366 
	C760.095154,254.477570 757.195557,260.954773 754.073547,267.713074 
z"/>
<path fill="#DE1486" opacity="1.000000" stroke="none" 
	d="
M103.909668,70.476349 
	C106.581596,76.400597 109.253525,82.324837 111.475365,88.621811 
	C99.228073,89.311523 87.430870,89.628494 75.633667,89.945465 
	C72.817558,84.502090 70.001442,79.058708 67.239319,73.138779 
	C67.366318,72.385803 67.283081,72.152298 67.043587,71.961700 
	C67.043587,71.961700 67.038841,71.982933 67.197899,71.626755 
	C67.863472,70.897186 68.371300,70.196411 68.876328,70.198425 
	C80.554291,70.244888 92.231956,70.367699 103.909668,70.476349 
z"/>
<path fill="#B450BB" opacity="1.000000" stroke="none" 
	d="
M472.773865,285.530151 
	C461.884430,285.992340 451.074768,285.992706 439.820618,285.993164 
	C439.318176,279.301788 439.260162,272.610352 439.736908,265.457764 
	C451.076874,264.996918 461.882141,264.997253 472.687378,264.997559 
	C472.742798,271.687805 472.798218,278.378052 472.773865,285.530151 
z"/>
<path fill="#C052B4" opacity="1.000000" stroke="none" 
	d="
M472.769470,264.535583 
	C461.882141,264.997253 451.076874,264.996918 439.827637,264.997070 
	C439.319427,258.299866 439.255249,251.602219 439.286316,244.443939 
	C450.185333,243.983871 460.989105,243.984421 472.241699,243.985657 
	C472.744232,250.682098 472.797882,257.377869 472.769470,264.535583 
z"/>
<path fill="#DE1486" opacity="1.000000" stroke="none" 
	d="
M584.021790,90.884689 
	C580.658264,83.947784 577.294800,77.010872 573.508057,69.201042 
	C585.885132,69.201042 597.392883,69.131027 608.896362,69.322273 
	C609.913147,69.339172 611.272461,70.877922 611.839172,72.023270 
	C614.323608,77.044334 616.574829,82.180817 618.465881,87.640610 
	C608.279358,88.005264 598.534058,87.873962 588.799194,88.133392 
	C587.183472,88.176453 585.613098,89.924515 584.021790,90.884689 
z"/>
<path fill="#DA61AC" opacity="1.000000" stroke="none" 
	d="
M285.262115,184.742004 
	C283.048950,184.305023 281.118042,183.130707 279.161377,183.086136 
	C269.691162,182.870514 260.214050,182.958405 250.257446,182.916946 
	C252.509628,176.808456 255.243759,170.721725 258.608917,164.320435 
	C268.995575,164.003372 278.752045,163.934097 288.506134,164.056488 
	C290.391510,164.080139 292.267517,164.853271 294.147827,165.280685 
	C291.276062,171.695572 288.404266,178.110474 285.262115,184.742004 
z"/>
<path fill="#DA5CA8" opacity="1.000000" stroke="none" 
	d="
M656.100586,168.338165 
	C654.088318,169.129517 652.047974,169.907059 649.995728,169.939728 
	C640.552979,170.090149 631.106995,170.032730 621.172729,170.065887 
	C618.124756,164.655411 615.566162,159.228928 613.226929,153.120667 
	C615.308960,151.959579 617.166138,151.092972 619.035400,151.065918 
	C628.683838,150.926270 638.335388,151.001694 647.985840,151.002075 
	C650.679565,156.661804 653.373352,162.321548 656.100586,168.338165 
z"/>
<path fill="#CD66BA" opacity="1.000000" stroke="none" 
	d="
M234.717392,215.208984 
	C237.234009,215.333847 239.464798,215.930573 241.702042,215.955734 
	C251.076050,216.061172 260.451965,215.995361 270.278687,215.991302 
	C267.911041,222.133377 265.091919,228.276428 261.603790,234.706238 
	C251.621689,234.994766 242.305130,235.132370 232.998260,234.893158 
	C230.931091,234.840027 228.898041,233.458420 226.849304,232.688492 
	C229.377716,226.931671 231.906128,221.174835 234.717392,215.208984 
z"/>
<path fill="#C052B4" opacity="1.000000" stroke="none" 
	d="
M339.092285,265.534485 
	C328.302765,265.994934 317.609711,265.996094 306.446472,265.995758 
	C305.904510,259.304443 305.832764,252.614609 306.340424,245.464828 
	C317.609039,245.005417 328.298279,245.005966 338.987518,245.006516 
	C339.054596,251.696091 339.121674,258.385651 339.092285,265.534485 
z"/>
<path fill="#A74FBF" opacity="1.000000" stroke="none" 
	d="
M305.861938,290.450317 
	C316.669189,289.992767 327.370178,289.994354 338.540527,289.994415 
	C339.071503,296.687378 339.133179,303.381836 338.632324,310.536621 
	C327.369843,310.996979 316.669922,310.997040 305.970001,310.997101 
	C305.898560,304.301208 305.827118,297.605347 305.861938,290.450317 
z"/>
<path fill="#DF3592" opacity="1.000000" stroke="none" 
	d="
M1063.228760,108.220856 
	C1064.879883,107.309372 1066.751099,106.119820 1068.641479,106.088539 
	C1079.577026,105.907616 1090.517334,106.029015 1101.455688,105.972626 
	C1103.415527,105.962517 1105.373413,105.599861 1107.679932,105.171249 
	C1110.967651,110.056374 1113.907593,115.170242 1116.436035,120.737007 
	C1113.905640,121.459167 1111.788574,121.941452 1109.667236,121.961327 
	C1099.749023,122.054268 1089.829712,122.019707 1079.910767,122.030708 
	C1074.426392,117.513069 1068.942017,112.995438 1063.228760,108.220856 
z"/>
<path fill="#DE1486" opacity="1.000000" stroke="none" 
	d="
M506.192291,89.008049 
	C506.192291,82.564888 506.192291,76.121727 506.192291,69.456451 
	C517.486816,69.456451 528.391113,69.456451 539.841919,69.456451 
	C539.841919,75.843323 539.841919,81.958351 539.307739,88.538361 
	C527.913086,89.004913 517.052673,89.006477 506.192291,89.008049 
z"/>
<path fill="#CA60B8" opacity="1.000000" stroke="none" 
	d="
M539.749207,245.524475 
	C528.816223,245.987305 517.962708,245.988510 506.653198,245.988327 
	C506.144714,239.629196 506.092346,233.271439 506.117981,226.449890 
	C517.055542,225.984879 527.915100,225.983658 539.222290,225.982071 
	C539.722778,232.342102 539.775757,238.702469 539.749207,245.524475 
z"/>
<path fill="#974ABD" opacity="1.000000" stroke="none" 
	d="
M372.565063,309.406433 
	C383.440857,308.966797 394.179413,308.980499 405.375977,308.991577 
	C405.876770,315.348145 405.919556,321.707306 405.441040,328.532898 
	C394.175598,328.983063 383.431427,328.966797 372.687286,328.950531 
	C372.600800,322.586945 372.514313,316.223358 372.565063,309.406433 
z"/>
<path fill="#8E4BBB" opacity="1.000000" stroke="none" 
	d="
M688.388428,316.314209 
	C702.460571,315.978943 716.621948,315.979797 731.231323,315.978058 
	C728.824036,322.101807 725.968750,328.228180 722.497437,334.675232 
	C713.647644,334.994843 705.413818,334.993683 697.180054,334.992523 
	C694.279236,328.878479 691.378479,322.764404 688.388428,316.314209 
z"/>
<path fill="#CA60B8" opacity="1.000000" stroke="none" 
	d="
M339.082214,244.545700 
	C328.298279,245.005966 317.609039,245.005417 306.449829,245.008057 
	C305.905823,238.646103 305.831757,232.280945 305.866882,225.458496 
	C316.669678,225.000671 327.363220,225.000122 338.525024,224.998718 
	C339.054443,231.360214 339.115662,237.722549 339.082214,244.545700 
z"/>
<path fill="#E11B89" opacity="1.000000" stroke="none" 
	d="
M338.905304,96.543121 
	C322.606476,97.002686 306.378448,97.002106 289.697540,97.000229 
	C291.465759,92.214745 293.686890,87.430565 296.464142,82.420410 
	C299.318390,82.461876 301.615021,82.944427 303.914886,82.960510 
	C315.556030,83.041969 327.198029,83.002190 338.839722,83.004913 
	C338.885193,87.364265 338.930664,91.723618 338.905304,96.543121 
z"/>
<path fill="#DA5CA8" opacity="1.000000" stroke="none" 
	d="
M1174.964111,168.651672 
	C1171.392578,169.364105 1167.810547,169.801300 1164.215820,169.973770 
	C1156.782104,170.330444 1149.341431,170.546158 1141.501709,170.908279 
	C1140.231689,164.597443 1139.363647,158.198181 1139.065918,151.406601 
	C1150.359375,151.011780 1161.082642,151.009247 1171.805786,151.006714 
	C1172.853027,156.756668 1173.900391,162.506622 1174.964111,168.651672 
z"/>
<path fill="#DA61AC" opacity="1.000000" stroke="none" 
	d="
M472.774017,177.541641 
	C461.881805,178.004242 451.076813,178.005859 439.827637,178.006424 
	C439.325226,171.980469 439.266968,165.955566 439.741638,159.471100 
	C451.078522,159.010910 461.882477,159.010254 472.686432,159.009598 
	C472.744690,165.033279 472.802948,171.056976 472.774017,177.541641 
z"/>
<path fill="#C052B4" opacity="1.000000" stroke="none" 
	d="
M405.902100,263.536377 
	C395.075043,264.002136 384.317108,264.003998 373.137207,264.008148 
	C372.622253,257.971527 372.529236,251.932602 373.000061,245.444763 
	C384.320160,244.994370 395.076385,244.992889 405.832642,244.991394 
	C405.878845,251.018417 405.925018,257.045441 405.902100,263.536377 
z"/>
<path fill="#DF3592" opacity="1.000000" stroke="none" 
	d="
M1152.504395,106.099167 
	C1165.318115,105.941154 1177.854736,105.894165 1190.388306,106.069717 
	C1192.754883,106.102867 1195.109009,107.021324 1197.750977,107.797890 
	C1192.594849,112.688797 1187.156494,117.313087 1181.040283,121.786041 
	C1175.905029,121.423248 1171.447754,121.206680 1166.990112,121.001472 
	C1159.709229,120.666306 1152.428101,120.338562 1145.147095,120.007683 
	C1147.506836,115.434227 1149.866455,110.860771 1152.504395,106.099167 
z"/>
<path fill="#DB58A6" opacity="1.000000" stroke="none" 
	d="
M801.419678,165.811722 
	C791.793335,165.691589 782.426392,165.365601 773.061523,164.987457 
	C770.940125,164.901794 768.825989,164.634933 766.357849,164.234131 
	C768.456909,158.421951 770.906677,152.827133 773.955811,147.249451 
	C783.624634,147.510254 792.696289,147.697937 801.762329,148.034882 
	C804.186768,148.124969 806.594299,148.671005 809.009583,149.007721 
	C806.566345,154.534149 804.123047,160.060562 801.419678,165.811722 
z"/>
<path fill="#DB58A6" opacity="1.000000" stroke="none" 
	d="
M294.430664,165.062912 
	C292.267517,164.853271 290.391510,164.080139 288.506134,164.056488 
	C278.752045,163.934097 268.995575,164.003372 258.793671,164.004944 
	C261.017212,158.096802 263.687012,152.189545 266.661377,146.102814 
	C268.865814,146.281937 270.762573,146.929642 272.666199,146.950516 
	C282.390167,147.057144 292.115845,147.001938 302.293396,147.001801 
	C300.068390,152.948532 297.390930,158.896835 294.430664,165.062912 
z"/>
<path fill="#E0248C" opacity="1.000000" stroke="none" 
	d="
M584.048584,91.255356 
	C585.613098,89.924515 587.183472,88.176453 588.799194,88.133392 
	C598.534058,87.873962 608.279358,88.005264 618.486572,88.006592 
	C621.566101,93.432541 624.180054,98.857697 626.361084,104.642288 
	C623.928467,105.001740 621.927185,104.947395 619.929565,105.011009 
	C610.298889,105.317741 600.669189,105.656242 591.039185,105.983482 
	C588.717896,101.197678 586.396667,96.411858 584.048584,91.255356 
z"/>
<path fill="#C65CB5" opacity="1.000000" stroke="none" 
	d="
M692.167480,246.554077 
	C683.214355,246.938766 674.132935,246.913147 665.053711,247.041550 
	C662.604797,247.076172 660.162476,247.578110 657.301025,247.954590 
	C654.117554,242.240128 651.350281,236.436646 648.487793,230.304749 
	C660.017395,229.809540 671.642151,229.642715 683.619690,229.265427 
	C686.661621,234.770508 689.350830,240.486053 692.167480,246.554077 
z"/>
<path fill="#DA61AC" opacity="1.000000" stroke="none" 
	d="
M339.058655,180.532043 
	C328.281982,180.991287 317.601776,180.991913 306.451721,180.988007 
	C305.921753,174.959213 305.861603,168.934937 306.369751,162.453491 
	C317.606079,161.996033 328.274078,161.995712 338.942108,161.995407 
	C339.013123,168.021423 339.084106,174.047424 339.058655,180.532043 
z"/>
<path fill="#974ABD" opacity="1.000000" stroke="none" 
	d="
M305.861511,311.455017 
	C316.669922,310.997040 327.369843,310.996979 338.538940,310.996948 
	C339.073761,317.023651 339.139343,323.050293 338.643494,329.539032 
	C327.374573,330.000916 316.667084,330.000702 305.959625,330.000488 
	C305.890747,323.971283 305.821899,317.942108 305.861511,311.455017 
z"/>
<path fill="#DA5CA8" opacity="1.000000" stroke="none" 
	d="
M1120.918213,169.622192 
	C1109.529541,170.009048 1098.276489,170.012817 1086.561279,170.021637 
	C1087.257812,164.279037 1088.416748,158.531403 1090.189697,152.400345 
	C1101.474487,152.012802 1112.145386,152.008652 1122.816284,152.004517 
	C1122.228882,157.749374 1121.641479,163.494247 1120.918213,169.622192 
z"/>
<path fill="#E0268D" opacity="1.000000" stroke="none" 
	d="
M439.300262,91.445511 
	C450.187988,90.987610 460.990479,90.992828 472.241669,90.993744 
	C472.745789,96.680878 472.801208,102.372314 472.324249,108.528221 
	C460.989685,108.987457 450.187469,108.982216 439.385284,108.976974 
	C439.328522,103.287521 439.271759,97.598076 439.300262,91.445511 
z"/>
<path fill="#E0268D" opacity="1.000000" stroke="none" 
	d="
M506.123322,89.470917 
	C517.052673,89.006477 527.913086,89.004913 539.220825,88.999161 
	C539.725220,94.686409 539.782349,100.377846 539.306396,106.533440 
	C527.914185,106.998344 517.054993,106.999092 506.195862,106.999832 
	C506.148712,101.311150 506.101532,95.622459 506.123322,89.470917 
z"/>
<path fill="#844DB9" opacity="1.000000" stroke="none" 
	d="
M372.552979,329.404358 
	C383.431427,328.966797 394.175598,328.983063 405.377869,328.997253 
	C405.880310,334.680481 405.924652,340.365814 405.457642,346.532104 
	C394.166321,346.978973 383.386353,346.944916 372.606384,346.910858 
	C372.543823,341.226624 372.481232,335.542389 372.552979,329.404358 
z"/>
<path fill="#E0248C" opacity="1.000000" stroke="none" 
	d="
M75.697525,90.274231 
	C87.430870,89.628494 99.228073,89.311523 111.490555,88.989197 
	C114.393173,94.103104 116.830505,99.222374 118.926003,104.669464 
	C108.997612,104.999237 99.408936,104.896156 89.826286,105.090508 
	C87.877342,105.130035 85.951111,106.289711 84.014404,106.933006 
	C81.263397,101.489670 78.512390,96.046333 75.697525,90.274231 
z"/>
<path fill="#8E4BBB" opacity="1.000000" stroke="none" 
	d="
M181.409393,317.307922 
	C195.151062,316.977875 208.987122,316.980377 223.274139,316.981018 
	C221.186325,322.438843 218.647598,327.898529 215.489380,333.677856 
	C206.321121,333.996521 197.772339,333.995575 189.223572,333.994598 
	C186.650330,328.543243 184.077072,323.091858 181.409393,317.307922 
z"/>
<path fill="#DE4499" opacity="1.000000" stroke="none" 
	d="
M126.263420,119.877487 
	C128.829971,125.335838 131.396515,130.794189 133.522308,136.623871 
	C129.257736,136.996811 125.430443,136.894363 121.610817,137.021820 
	C113.833359,137.281326 106.060028,137.664810 98.284996,137.997208 
	C95.881142,132.905121 93.477287,127.813049 91.427185,122.197784 
	C96.213455,121.449829 100.646263,121.230812 105.078415,120.999001 
	C112.140320,120.629639 119.201775,120.251755 126.263420,119.877487 
z"/>
<path fill="#DE4A9E" opacity="1.000000" stroke="none" 
	d="
M809.299438,148.814117 
	C806.594299,148.671005 804.186768,148.124969 801.762329,148.034882 
	C792.696289,147.697937 783.624634,147.510254 774.216858,147.006195 
	C776.137512,141.679230 778.396423,136.612625 781.290955,131.306229 
	C793.604004,131.370300 805.281372,131.674149 816.958740,131.978012 
	C814.502258,137.525513 812.045776,143.073013 809.299438,148.814117 
z"/>
<path fill="#DE4499" opacity="1.000000" stroke="none" 
	d="
M633.788757,120.009232 
	C636.176697,125.091873 638.564575,130.174530 640.505554,135.628906 
	C631.908264,136.000900 623.751526,135.815018 615.610718,136.093750 
	C612.385742,136.204147 609.196167,137.346786 605.990479,138.019440 
	C603.356689,132.586533 600.722839,127.153625 598.458374,121.274086 
	C600.772766,120.553329 602.716003,120.058441 604.663147,120.042366 
	C614.371094,119.962189 624.080139,120.007851 633.788757,120.009232 
z"/>
<path fill="#DF3592" opacity="1.000000" stroke="none" 
	d="
M126.201645,119.513931 
	C119.201775,120.251755 112.140320,120.629639 105.078415,120.999001 
	C100.646263,121.230812 96.213455,121.449829 91.396301,121.832642 
	C88.680878,117.220787 86.350082,112.450890 84.016853,107.306992 
	C85.951111,106.289711 87.877342,105.130035 89.826286,105.090508 
	C99.408936,104.896156 108.997612,104.999237 119.015900,104.991371 
	C121.678383,109.707085 123.909119,114.428726 126.201645,119.513931 
z"/>
<path fill="#C65CB5" opacity="1.000000" stroke="none" 
	d="
M763.270813,247.786926 
	C753.439880,248.000000 743.884583,248.042725 734.330322,247.963425 
	C732.385925,247.947281 730.445312,247.471741 728.097656,247.041260 
	C729.960266,241.739594 732.228271,236.604660 734.763428,231.238220 
	C739.802002,231.338226 744.569397,231.846786 749.346069,231.958878 
	C756.158691,232.118744 762.978088,231.987976 770.243652,231.980865 
	C768.310791,237.178070 765.928772,242.375778 763.270813,247.786926 
z"/>
<path fill="#A24DBE" opacity="1.000000" stroke="none" 
	d="
M1331.893433,296.290649 
	C1343.094849,295.997894 1354.094360,295.999878 1365.564941,296.001221 
	C1364.682007,301.109406 1363.328247,306.218231 1361.335327,311.654968 
	C1350.632446,311.988281 1340.566650,312.098053 1330.506592,311.905182 
	C1328.647949,311.869537 1326.812988,310.610809 1324.967041,309.916565 
	C1327.208496,305.472839 1329.449951,301.029083 1331.893433,296.290649 
z"/>
<path fill="#DE4499" opacity="1.000000" stroke="none" 
	d="
M1080.000000,122.372299 
	C1089.829712,122.019707 1099.749023,122.054268 1109.667236,121.961327 
	C1111.788574,121.941452 1113.905640,121.459167 1116.420410,121.098145 
	C1118.497314,126.407364 1120.178467,131.808350 1121.354492,137.605576 
	C1109.924561,138.332428 1098.999756,138.663025 1088.074951,138.993622 
	C1085.412964,133.567047 1082.751099,128.140472 1080.000000,122.372299 
z"/>
<path fill="#974ABD" opacity="1.000000" stroke="none" 
	d="
M439.283875,308.440247 
	C450.182770,307.981201 460.989319,307.982880 472.244873,307.983459 
	C472.746765,313.341919 472.799713,318.701447 472.779663,324.522644 
	C461.888214,324.984283 451.069763,324.984283 439.805969,324.982147 
	C439.304321,319.620331 439.247955,314.260620 439.283875,308.440247 
z"/>
<path fill="#DE4499" opacity="1.000000" stroke="none" 
	d="
M472.693481,124.990044 
	C472.750885,130.354416 472.808289,135.718781 472.329346,141.546631 
	C460.989929,142.005814 450.186768,142.001495 439.383636,141.997192 
	C439.324432,136.635437 439.265198,131.273666 439.737244,125.454842 
	C451.076813,124.995201 461.885162,124.992622 472.693481,124.990044 
z"/>
<path fill="#DE4499" opacity="1.000000" stroke="none" 
	d="
M506.188873,140.995789 
	C506.142334,135.638672 506.095825,130.281555 506.576111,124.461319 
	C517.960327,123.996727 528.817688,123.995239 539.675110,123.993752 
	C539.732910,129.352554 539.790710,134.711349 539.313965,140.533295 
	C527.915894,140.996246 517.052368,140.996017 506.188873,140.995789 
z"/>
<path fill="#DF3592" opacity="1.000000" stroke="none" 
	d="
M539.761841,123.534393 
	C528.817688,123.995239 517.960327,123.996727 506.646362,123.998276 
	C506.144287,118.640839 506.098724,113.283348 506.124512,107.462845 
	C517.054993,106.999092 527.914185,106.998344 539.220581,106.993622 
	C539.728149,112.351448 539.788391,117.713242 539.761841,123.534393 
z"/>
<path fill="#DF3C96" opacity="1.000000" stroke="none" 
	d="
M372.733215,127.977585 
	C372.645782,122.624329 372.558319,117.271065 373.023560,111.466736 
	C384.328186,111.014580 395.080078,111.013504 405.831970,111.012436 
	C405.880829,116.369095 405.929657,121.725761 405.447693,127.543991 
	C394.188995,127.996239 383.461121,127.986908 372.733215,127.977585 
z"/>
<path fill="#DA61AC" opacity="1.000000" stroke="none" 
	d="
M405.907776,176.543274 
	C395.080811,177.008698 384.326996,177.011078 373.151855,177.017365 
	C372.639740,171.654861 372.549011,166.288422 373.014343,160.469025 
	C384.324890,160.013245 395.079376,160.010452 405.833832,160.007660 
	C405.882874,165.365173 405.931946,170.722687 405.907776,176.543274 
z"/>
<path fill="#DE4A9E" opacity="1.000000" stroke="none" 
	d="
M372.601166,128.430511 
	C383.461121,127.986908 394.188995,127.996239 405.374878,128.007141 
	C405.881714,133.367279 405.930542,138.725830 405.448639,144.545761 
	C394.189697,144.997879 383.461487,144.988632 372.733276,144.979370 
	C372.645203,139.614059 372.557159,134.248749 372.601166,128.430511 
z"/>
<path fill="#DB58A6" opacity="1.000000" stroke="none" 
	d="
M439.297821,142.458496 
	C450.186768,142.001495 460.989929,142.005814 472.241943,142.007248 
	C472.747375,147.365417 472.803925,152.726456 472.773438,158.548553 
	C461.882477,159.010254 451.078522,159.010910 439.830627,159.011169 
	C439.328491,153.647125 439.270233,148.283478 439.297821,142.458496 
z"/>
<path fill="#DC0F84" opacity="1.000000" stroke="none" 
	d="
M338.911163,82.544243 
	C327.198029,83.002190 315.556030,83.041969 303.914886,82.960510 
	C301.615021,82.944427 299.318390,82.461876 296.628784,82.098694 
	C296.243744,81.837395 296.205994,81.654587 296.262970,81.508789 
	C301.094666,69.140701 301.095154,69.142609 314.398926,69.148499 
	C322.333588,69.152016 330.268250,69.149147 338.982605,69.149147 
	C338.982605,73.643669 338.982605,77.863625 338.911163,82.544243 
z"/>
<path fill="#7650B6" opacity="1.000000" stroke="none" 
	d="
M339.030304,346.000031 
	C339.030304,351.446808 339.030304,356.893585 339.030304,362.646545 
	C328.027863,362.646545 317.290619,362.646545 305.743805,362.646545 
	C305.743805,357.396362 305.743805,352.157959 306.319061,346.461334 
	C317.606323,346.002075 328.318298,346.001038 339.030304,346.000031 
z"/>
<path fill="#974ABD" opacity="1.000000" stroke="none" 
	d="
M1324.667969,310.069153 
	C1326.812988,310.610809 1328.647949,311.869537 1330.506592,311.905182 
	C1340.566650,312.098053 1350.632446,311.988281 1361.137695,311.979675 
	C1359.240967,316.522095 1356.902710,321.067627 1354.278076,325.796509 
	C1352.071655,325.653259 1350.154175,325.062073 1348.231323,325.044403 
	C1337.969116,324.950073 1327.703247,325.107269 1317.444458,324.896454 
	C1315.649292,324.859558 1313.881592,323.484192 1312.040771,322.333832 
	C1316.109741,318.034332 1320.239258,314.128021 1324.667969,310.069153 
z"/>
<path fill="#DC4FA0" opacity="1.000000" stroke="none" 
	d="
M98.371918,138.333160 
	C106.060028,137.664810 113.833359,137.281326 121.610817,137.021820 
	C125.430443,136.894363 129.257736,136.996811 133.551544,136.993362 
	C136.324539,141.751785 138.627548,146.512054 140.949341,151.639130 
	C129.334915,152.312668 117.701736,152.619400 105.665810,152.962982 
	C102.994987,148.222946 100.726906,143.446030 98.371918,138.333160 
z"/>
<path fill="#DF3592" opacity="1.000000" stroke="none" 
	d="
M633.764038,119.654449 
	C624.080139,120.007851 614.371094,119.962189 604.663147,120.042366 
	C602.716003,120.058441 600.772766,120.553329 598.419067,120.910416 
	C595.704590,116.232918 593.398743,111.472458 591.066040,106.347733 
	C600.669189,105.656242 610.298889,105.317741 619.929565,105.011009 
	C621.927185,104.947395 623.928467,105.001740 626.386719,104.999504 
	C629.143250,109.764755 631.441284,114.532219 633.764038,119.654449 
z"/>
<path fill="#DC4FA0" opacity="1.000000" stroke="none" 
	d="
M606.002014,138.392822 
	C609.196167,137.346786 612.385742,136.204147 615.610718,136.093750 
	C623.751526,135.815018 631.908264,136.000900 640.526978,136.000427 
	C643.304626,140.756958 645.613953,145.513657 647.954529,150.636230 
	C638.335388,151.001694 628.683838,150.926270 619.035400,151.065918 
	C617.166138,151.092972 615.308960,151.959579 613.206421,152.750137 
	C610.648865,148.296310 608.331238,143.531250 606.002014,138.392822 
z"/>
<path fill="#DE4499" opacity="1.000000" stroke="none" 
	d="
M1144.968994,120.327805 
	C1152.428101,120.338562 1159.709229,120.666306 1166.990112,121.001472 
	C1171.447754,121.206680 1175.905029,121.423248 1180.707764,121.871521 
	C1178.849243,126.896744 1176.645142,131.685165 1173.791260,136.645691 
	C1162.157959,136.546844 1151.174683,136.275879 1140.191406,136.004913 
	C1141.724609,130.885925 1143.257812,125.766922 1144.968994,120.327805 
z"/>
<path fill="#DC4FA0" opacity="1.000000" stroke="none" 
	d="
M506.117737,141.459259 
	C517.052368,140.996017 527.915894,140.996246 539.227295,140.993088 
	C539.733765,146.021713 539.792419,151.053711 539.761230,156.544525 
	C528.787598,157.328003 517.903809,157.652679 506.605896,157.989120 
	C506.143372,152.641495 506.094971,147.282120 506.117737,141.459259 
z"/>
<path fill="#E02C8F" opacity="1.000000" stroke="none" 
	d="
M405.904144,110.549385 
	C395.080078,111.013504 384.328186,111.014580 373.155640,111.017967 
	C372.647430,105.983017 372.559875,100.945763 373.025177,95.459839 
	C384.329498,95.010864 395.080933,95.010559 405.832397,95.010262 
	C405.880371,100.035622 405.928345,105.060974 405.904144,110.549385 
z"/>
<path fill="#DF3592" opacity="1.000000" stroke="none" 
	d="
M472.778625,124.531494 
	C461.885162,124.992622 451.076813,124.995201 439.824219,124.993889 
	C439.323395,119.960594 439.266846,114.931190 439.297791,109.439377 
	C450.187469,108.982216 460.989685,108.987457 472.240570,108.988403 
	C472.747437,114.013725 472.805573,119.043343 472.778625,124.531494 
z"/>
<path fill="#73489F" opacity="1.000000" stroke="none" 
	d="
M372.477478,347.367981 
	C383.386353,346.944916 394.166321,346.978973 405.406006,346.996246 
	C405.865723,352.099548 405.865723,357.219604 405.865723,362.671692 
	C394.759125,362.671692 383.879944,362.671692 372.348572,362.671692 
	C372.348572,357.689575 372.348572,352.757355 372.477478,347.367981 
z"/>
<path fill="#844DB9" opacity="1.000000" stroke="none" 
	d="
M339.122253,345.540894 
	C328.318298,346.001038 317.606323,346.002075 306.422302,346.002930 
	C305.882080,340.973083 305.813843,335.943359 305.852631,330.457062 
	C316.667084,330.000702 327.374573,330.000916 338.552185,329.999603 
	C339.086273,335.025970 339.150238,340.053833 339.122253,345.540894 
z"/>
<path fill="#DF3C96" opacity="1.000000" stroke="none" 
	d="
M817.209839,131.739441 
	C805.281372,131.674149 793.604004,131.370300 781.513794,131.029022 
	C783.107788,126.439651 785.114563,121.887703 787.789246,117.189857 
	C796.878906,117.362434 805.303162,117.627769 813.721069,118.027168 
	C816.816528,118.174034 819.897034,118.637688 822.984314,118.956848 
	C821.143250,123.138191 819.302124,127.319534 817.209839,131.739441 
z"/>
<path fill="#C65CB5" opacity="1.000000" stroke="none" 
	d="
M143.375549,235.325317 
	C154.890045,234.679855 166.482513,234.374329 178.488235,234.033371 
	C180.956253,238.343231 183.011017,242.688553 185.106720,247.391479 
	C183.246475,248.165009 181.349655,248.915558 179.443375,248.940384 
	C169.946228,249.064133 160.446594,248.997040 150.479980,248.996979 
	C147.825928,244.552979 145.639740,240.109116 143.375549,235.325317 
z"/>
<path fill="#C65CB5" opacity="1.000000" stroke="none" 
	d="
M226.563690,232.906128 
	C228.898041,233.458420 230.931091,234.840027 232.998260,234.893158 
	C242.305130,235.132370 251.621689,234.994766 261.393921,234.993469 
	C259.791382,239.551132 257.729614,244.108337 255.367996,248.843414 
	C243.586838,248.684280 232.105545,248.347290 220.188690,247.965820 
	C221.928116,242.988815 224.103104,238.056290 226.563690,232.906128 
z"/>
<path fill="#E11B89" opacity="1.000000" stroke="none" 
	d="
M405.903534,94.548012 
	C395.080933,95.010559 384.329498,95.010864 373.157654,95.011353 
	C372.648376,90.314720 372.559448,85.617897 373.018738,80.468643 
	C384.324249,80.014961 395.081543,80.013710 405.838837,80.012459 
	C405.884094,84.703560 405.929382,89.394661 405.903534,94.548012 
z"/>
<path fill="#DB58A6" opacity="1.000000" stroke="none" 
	d="
M372.599792,145.430420 
	C383.461487,144.988632 394.189697,144.997879 405.376007,145.009094 
	C405.882843,149.702103 405.931580,154.393143 405.907074,159.545929 
	C395.079376,160.010452 384.324890,160.013245 373.148987,160.021179 
	C372.640442,155.311356 372.553406,150.596420 372.599792,145.430420 
z"/>
<path fill="#CA60B8" opacity="1.000000" stroke="none" 
	d="
M405.899323,244.529907 
	C395.076385,244.992889 384.320160,244.994370 373.142090,244.996613 
	C372.627716,240.285706 372.535126,235.574051 372.583679,230.412903 
	C383.455780,229.974197 394.186798,229.984985 405.375854,229.994171 
	C405.877960,234.684494 405.921997,239.376450 405.899323,244.529907 
z"/>
<path fill="#DC4FA0" opacity="1.000000" stroke="none" 
	d="
M1140.104492,136.413849 
	C1151.174683,136.275879 1162.157959,136.546844 1173.547607,136.901001 
	C1173.289673,141.378784 1172.625610,145.773392 1171.883667,150.587357 
	C1161.082642,151.009247 1150.359375,151.011780 1139.219727,151.019043 
	C1139.208008,146.290115 1139.612915,141.556458 1140.104492,136.413849 
z"/>
<path fill="#DB58A6" opacity="1.000000" stroke="none" 
	d="
M339.034790,161.537781 
	C328.274078,161.995712 317.606079,161.996033 306.469452,161.993896 
	C305.946289,157.296600 305.891693,152.601715 305.930511,147.447327 
	C316.672638,146.992188 327.321350,146.996536 338.431946,147.001251 
	C338.971680,151.694458 339.049561,156.387314 339.034790,161.537781 
z"/>
<path fill="#DF3592" opacity="1.000000" stroke="none" 
	d="
M823.248718,118.733276 
	C819.897034,118.637688 816.816528,118.174034 813.721069,118.027168 
	C805.303162,117.627769 796.878906,117.362434 788.022827,116.941208 
	C789.426941,112.683395 791.265259,108.528328 793.313721,104.107208 
	C805.267761,104.227623 817.011780,104.614082 829.202026,104.996017 
	C827.603149,109.497559 825.558167,114.003632 823.248718,118.733276 
z"/>
<path fill="#DC4FA0" opacity="1.000000" stroke="none" 
	d="
M1088.063965,139.407486 
	C1098.999756,138.663025 1109.924561,138.332428 1121.302490,138.000824 
	C1122.158081,142.367203 1122.560669,146.734589 1122.889771,151.553253 
	C1112.145386,152.008652 1101.474487,152.012802 1090.324951,152.021347 
	C1089.248535,147.957626 1088.650757,143.889481 1088.063965,139.407486 
z"/>
<path fill="#7E4FB8" opacity="1.000000" stroke="none" 
	d="
M189.291779,334.341614 
	C197.772339,333.995575 206.321121,333.996521 215.324188,333.996216 
	C211.556183,343.303223 207.333893,352.611511 202.606110,363.034210 
	C197.892654,352.947815 193.626328,343.818237 189.291779,334.341614 
z"/>
<path fill="#7E4FB8" opacity="1.000000" stroke="none" 
	d="
M697.222656,335.346191 
	C705.413818,334.993683 713.647644,334.994843 722.336548,334.994446 
	C718.719971,343.929413 714.648193,352.865845 710.044373,362.970032 
	C705.442322,353.149353 701.353821,344.424591 697.222656,335.346191 
z"/>
<path fill="#DC0F84" opacity="1.000000" stroke="none" 
	d="
M405.910400,79.556595 
	C395.081543,80.013710 384.324249,80.014961 373.145874,80.020340 
	C372.724792,76.593262 372.724792,73.162056 372.724792,69.451363 
	C383.698761,69.451363 394.430878,69.451363 405.981934,69.451363 
	C405.981934,72.638046 405.981934,75.869385 405.910400,79.556595 
z"/>
<path fill="#DC4FA0" opacity="1.000000" stroke="none" 
	d="
M103.760803,70.043396 
	C92.231956,70.367699 80.554291,70.244888 68.876328,70.198425 
	C68.371300,70.196411 67.863472,70.897186 67.205536,71.634506 
	C66.686729,71.175438 66.319351,70.352455 65.988106,69.610428 
	C78.744728,69.610428 91.178329,69.610428 103.760803,70.043396 
z"/>
<path fill="#DC4FA0" opacity="1.000000" stroke="none" 
	d="
M67.035919,72.199387 
	C67.283081,72.152298 67.366318,72.385803 67.227020,72.778030 
	C67.160744,72.893852 67.028252,72.437073 67.035919,72.199387 
z"/>
</svg>